SplineFontDB: 3.0
FontName: Trochut-Italic
FullName: Trochut Italic
FamilyName: Trochut
Weight: Book
Copyright: Copyright (c) 2011, Andreu Balius (www.andreubalius.com|mail@andreubalius.com), with Reserved Font Name Trochut
Version: 1.001
ItalicAngle: -12
UnderlinePosition: -113
UnderlineWidth: 20
Ascent: 800
Descent: 200
sfntRevision: 0x00010042
LayerCount: 2
Layer: 0 1 "Back"  1
Layer: 1 1 "Fore"  0
XUID: [1021 792 1887175524 10892664]
FSType: 0
OS2Version: 2
OS2_WeightWidthSlopeOnly: 0
OS2_UseTypoMetrics: 1
CreationTime: 1325880238
ModificationTime: 1325881675
PfmFamily: 17
TTFWeight: 400
TTFWidth: 5
LineGap: 0
VLineGap: 0
Panose: 2 0 5 3 7 0 0 9 0 3
OS2TypoAscent: 167
OS2TypoAOffset: 1
OS2TypoDescent: -10
OS2TypoDOffset: 1
OS2TypoLinegap: 0
OS2WinAscent: 45
OS2WinAOffset: 1
OS2WinDescent: 0
OS2WinDOffset: 1
HheadAscent: 45
HheadAOffset: 1
HheadDescent: 0
HheadDOffset: 1
OS2SubXSize: 700
OS2SubYSize: 650
OS2SubXOff: 0
OS2SubYOff: 140
OS2SupXSize: 700
OS2SupYSize: 650
OS2SupXOff: 0
OS2SupYOff: 477
OS2StrikeYSize: 50
OS2StrikeYPos: 250
OS2Vendor: 'TYRE'
OS2CodePages: 00000001.00000000
OS2UnicodeRanges: 80000001.4000004a.00000000.00000000
Lookup: 258 0 0 "'kern' Horizontal Kerning in Latin lookup 0"  {"'kern' Horizontal Kerning in Latin lookup 0 subtable"  } ['kern' ('DFLT' <'dflt' > 'latn' <'dflt' > ) ]
DEI: 91125
TtTable: prep
PUSHW_1
 511
SCANCTRL
PUSHB_1
 4
SCANTYPE
EndTTInstrs
ShortTable: maxp 16
  1
  0
  222
  88
  7
  0
  0
  2
  0
  1
  1
  0
  64
  0
  0
  0
EndShort
LangName: 1033 "" "" "" "AndreuBalius: Trochut Italic: 2011" "" "Version 1.001" "" "Trochut is a trademark of Andreu Balius." "Andreu Balius" "Andreu Balius" "" "www.typerepublic.com" "www.andreubalius.com" "This Font Software is licensed under the SIL Open Font License, Version 1.1. This license is available with a FAQ at: http://scripts.sil.org/OFL" "http://scripts.sil.org/OFL" 
GaspTable: 1 65535 15 1
Encoding: UnicodeBmp
UnicodeInterp: none
NameList: Adobe Glyph List
DisplaySize: -24

StartChar: exclam
Encoding: 33 33 4
Width: 219
GlyphClass: 2
Flags: W
LayerCount: 2
Fore
SplineSet
219 685 m 128,-1,1
 238 700 238 700 255.5 700 c 128,-1,2
 273 700 273 700 285 688.5 c 128,-1,3
 297 677 297 677 297 664 c 128,-1,4
 297 651 297 651 294 639 c 2,5,-1
 160 154 l 1,6,-1
 123 154 l 1,7,-1
 197 646 l 2,8,0
 200 670 200 670 219 685 c 128,-1,1
153.5 85 m 128,-1,10
 163 74 163 74 163 52.5 c 128,-1,11
 163 31 163 31 145.5 10.5 c 128,-1,12
 128 -10 128 -10 109.5 -10 c 128,-1,13
 91 -10 91 -10 81.5 1 c 128,-1,14
 72 12 72 12 72 32.5 c 128,-1,15
 72 53 72 53 90 74.5 c 128,-1,16
 108 96 108 96 126 96 c 128,-1,9
 144 96 144 96 153.5 85 c 128,-1,10
EndSplineSet
EndChar

StartChar: quotedbl
Encoding: 34 34 5
Width: 346
GlyphClass: 2
Flags: W
LayerCount: 2
Fore
SplineSet
281 690 m 1,0,-1
 271 640 l 1,1,-1
 217 480 l 1,2,-1
 182 480 l 1,3,-1
 196 640 l 1,4,-1
 206 690 l 1,5,-1
 281 690 l 1,0,-1
432 690 m 1,6,-1
 422 640 l 1,7,-1
 368 480 l 1,8,-1
 333 480 l 1,9,-1
 347 640 l 1,10,-1
 357 690 l 1,11,-1
 432 690 l 1,6,-1
EndSplineSet
EndChar

StartChar: numbersign
Encoding: 35 35 6
Width: 708
GlyphClass: 2
Flags: W
LayerCount: 2
Fore
SplineSet
320 268 m 1,0,-1
 454 268 l 1,1,-1
 518 430 l 1,2,-1
 384 430 l 1,3,-1
 320 268 l 1,0,-1
650 218 m 1,4,-1
 511 218 l 1,5,-1
 427 0 l 1,6,-1
 351 0 l 1,7,-1
 435 218 l 1,8,-1
 301 218 l 1,9,-1
 217 0 l 1,10,-1
 141 0 l 1,11,-1
 225 218 l 1,12,-1
 89 218 l 1,13,-1
 108 268 l 1,14,-1
 244 268 l 1,15,-1
 308 430 l 1,16,-1
 171 430 l 1,17,-1
 191 480 l 1,18,-1
 328 480 l 1,19,-1
 409 690 l 1,20,-1
 485 690 l 1,21,-1
 404 480 l 1,22,-1
 538 480 l 1,23,-1
 619 690 l 1,24,-1
 694 690 l 1,25,-1
 613 480 l 1,26,-1
 752 480 l 1,27,-1
 732 430 l 1,28,-1
 594 430 l 1,29,-1
 530 268 l 1,30,-1
 669 268 l 1,31,-1
 650 218 l 1,4,-1
EndSplineSet
EndChar

StartChar: dollar
Encoding: 36 36 7
Width: 512
GlyphClass: 2
Flags: W
LayerCount: 2
Fore
SplineSet
547 592 m 0,0,1
 547 581 547 581 544 563 c 1,2,-1
 512 563 l 1,3,4
 513 571 513 571 513 576 c 0,5,6
 513 606 513 606 492 633 c 128,-1,7
 471 660 471 660 429 664 c 1,8,-1
 371 394 l 1,9,-1
 472 286 l 2,10,11
 502 253 502 253 502 213 c 0,12,13
 502 127 502 127 440 64 c 128,-1,14
 378 1 378 1 286 -8 c 1,15,-1
 277 -48 l 1,16,-1
 237 -48 l 1,17,-1
 245 -10 l 1,18,19
 80 -4 80 -4 80 123 c 0,20,21
 80 151 80 151 89 184 c 1,22,-1
 168 184 l 1,23,24
 157 136 157 136 157 111 c 0,25,26
 157 26 157 26 253 25 c 1,27,-1
 308 283 l 1,28,-1
 212 385 l 2,29,30
 179 419 179 419 179 476 c 0,31,32
 179 563 179 563 240 628.5 c 128,-1,33
 301 694 301 694 396 700 c 1,34,-1
 407 749 l 1,35,-1
 447 749 l 1,36,-1
 436 698 l 1,37,38
 492 692 492 692 519.5 661.5 c 128,-1,39
 547 631 547 631 547 592 c 0,0,1
309.5 620.5 m 128,-1,41
 278 582 278 582 278 538.5 c 128,-1,42
 278 495 278 495 300 470 c 1,43,-1
 339 429 l 1,44,-1
 388 663 l 1,45,40
 341 659 341 659 309.5 620.5 c 128,-1,41
400 157 m 0,46,47
 400 185 400 185 379 207 c 2,48,-1
 340 248 l 1,49,-1
 294 29 l 1,50,51
 338 39 338 39 369 75 c 128,-1,52
 400 111 400 111 400 157 c 0,46,47
EndSplineSet
EndChar

StartChar: percent
Encoding: 37 37 8
Width: 781
GlyphClass: 2
Flags: W
LayerCount: 2
Fore
SplineSet
683 739 m 1,0,-1
 768 739 l 1,1,-1
 236 -39 l 1,2,-1
 150 -39 l 1,3,-1
 683 739 l 1,0,-1
257 350 m 0,4,5
 136 350 136 350 136 458 c 0,6,7
 136 481 136 481 151 549 c 128,-1,8
 166 617 166 617 211 658.5 c 128,-1,9
 256 700 256 700 331 700 c 0,10,11
 452 700 452 700 452 593 c 0,12,13
 452 570 452 570 437 502 c 128,-1,14
 422 434 422 434 376.5 392 c 128,-1,15
 331 350 331 350 257 350 c 0,4,5
372 624 m 0,16,17
 372 670 372 670 325 670 c 0,18,19
 287 670 287 670 269.5 645 c 128,-1,20
 252 620 252 620 242 573 c 2,21,-1
 222 478 l 2,22,23
 215 446 215 446 215 428 c 0,24,25
 215 380 215 380 263 380 c 0,26,27
 301 380 301 380 318 405 c 128,-1,28
 335 430 335 430 345 478 c 2,29,-1
 365 573 l 2,30,31
 372 604 372 604 372 624 c 0,16,17
580 -10 m 0,32,33
 460 -10 460 -10 460 97 c 0,34,35
 460 118 460 118 474.5 187 c 128,-1,36
 489 256 489 256 534.5 298 c 128,-1,37
 580 340 580 340 655 340 c 0,38,39
 775 340 775 340 775 232 c 0,40,41
 775 211 775 211 760.5 142 c 128,-1,42
 746 73 746 73 700.5 31.5 c 128,-1,43
 655 -10 655 -10 580 -10 c 0,32,33
695 263 m 0,44,45
 695 310 695 310 648 310 c 0,46,47
 610 310 610 310 592.5 284.5 c 128,-1,48
 575 259 575 259 565 212 c 2,49,-1
 545 117 l 2,50,51
 539 91 539 91 539 69 c 0,52,53
 539 20 539 20 587 20 c 0,54,55
 625 20 625 20 641.5 44.5 c 128,-1,56
 658 69 658 69 668 117 c 2,57,-1
 688 212 l 2,58,59
 695 243 695 243 695 263 c 0,44,45
EndSplineSet
EndChar

StartChar: ampersand
Encoding: 38 38 9
Width: 642
GlyphClass: 2
Flags: W
LayerCount: 2
Fore
SplineSet
201 130 m 0,0,1
 201 81 201 81 226.5 53 c 128,-1,2
 252 25 252 25 309.5 25 c 128,-1,3
 367 25 367 25 409 67.5 c 128,-1,4
 451 110 451 110 466 182 c 2,5,-1
 491 300 l 1,6,-1
 232 300 l 1,7,-1
 207 182 l 2,8,9
 201 155 201 155 201 130 c 0,0,1
527 55 m 1,10,11
 527 40 527 40 545.5 40 c 128,-1,12
 564 40 564 40 584 72 c 1,13,-1
 602 69 l 1,14,15
 585 19 585 19 546 0 c 0,16,17
 528 -9 528 -9 508 -9 c 0,18,19
 453 -9 453 -9 444 36 c 1,20,21
 372 -10 372 -10 288 -10 c 128,-1,22
 204 -10 204 -10 154.5 43.5 c 128,-1,23
 105 97 105 97 105 184 c 0,24,25
 105 214 105 214 113 254 c 2,26,-1
 152 436 l 2,27,28
 177 550 177 550 257 625 c 128,-1,29
 337 700 337 700 446 700 c 0,30,31
 519 700 519 700 570.5 659 c 128,-1,32
 622 618 622 618 622 545 c 0,33,34
 622 520 622 520 616 490 c 1,35,-1
 530 490 l 1,36,37
 539 538 539 538 539 560 c 0,38,39
 539 609 539 609 514.5 637 c 128,-1,40
 490 665 490 665 432.5 665 c 128,-1,41
 375 665 375 665 333 622 c 128,-1,42
 291 579 291 579 276 508 c 2,43,-1
 242 347 l 1,44,-1
 501 347 l 1,45,-1
 514 409 l 1,46,-1
 601 409 l 1,47,-1
 588 347 l 1,48,-1
 690 347 l 1,49,-1
 680 300 l 1,50,-1
 578 300 l 1,51,-1
 527 55 l 1,10,11
EndSplineSet
EndChar

StartChar: quotesingle
Encoding: 39 39 10
Width: 195
GlyphClass: 2
Flags: W
LayerCount: 2
Fore
SplineSet
281 690 m 1,0,-1
 271 640 l 1,1,-1
 217 480 l 1,2,-1
 182 480 l 1,3,-1
 196 640 l 1,4,-1
 206 690 l 1,5,-1
 281 690 l 1,0,-1
EndSplineSet
EndChar

StartChar: parenleft
Encoding: 40 40 11
Width: 358
GlyphClass: 2
Flags: W
LayerCount: 2
Fore
SplineSet
105 178 m 0,0,1
 105 212 105 212 113 254 c 1,2,-1
 153 440 l 1,3,4
 177 557 177 557 261.5 643.5 c 128,-1,5
 346 730 346 730 453 730 c 1,6,-1
 446 700 l 1,7,8
 384 700 384 700 338.5 643.5 c 128,-1,9
 293 587 293 587 277 513 c 2,10,-1
 207 182 l 2,11,12
 200 145 200 145 200 119 c 0,13,14
 200 63 200 63 223.5 26.5 c 128,-1,15
 247 -10 247 -10 295 -10 c 1,16,-1
 289 -40 l 1,17,18
 201 -40 201 -40 153 22 c 128,-1,19
 105 84 105 84 105 178 c 0,0,1
EndSplineSet
EndChar

StartChar: parenright
Encoding: 41 41 12
Width: 358
GlyphClass: 2
Flags: W
LayerCount: 2
Fore
SplineSet
304 574 m 0,0,1
 304 629 304 629 280.5 664.5 c 128,-1,2
 257 700 257 700 208 700 c 1,3,-1
 215 730 l 1,4,5
 303 730 303 730 351 669.5 c 128,-1,6
 399 609 399 609 399 516 c 0,7,8
 399 482 399 482 391 440 c 1,9,-1
 351 254 l 2,10,11
 326 137 326 137 242 48.5 c 128,-1,12
 158 -40 158 -40 51 -40 c 1,13,-1
 57 -10 l 1,14,15
 119 -10 119 -10 165 48.5 c 128,-1,16
 211 107 211 107 227 182 c 2,17,-1
 297 513 l 2,18,19
 304 548 304 548 304 574 c 0,0,1
EndSplineSet
EndChar

StartChar: asterisk
Encoding: 42 42 13
Width: 500
GlyphClass: 2
Flags: W
LayerCount: 2
Fore
SplineSet
203 394 m 1,0,1
 206 415 206 415 215.5 422.5 c 128,-1,2
 225 430 225 430 324 491 c 1,3,4
 222 471 222 471 207 471 c 2,5,-1
 205 471 l 2,6,7
 193 471 193 471 186 479.5 c 128,-1,8
 179 488 179 488 179 496.5 c 128,-1,9
 179 505 179 505 181 514 c 128,-1,10
 183 523 183 523 195 534.5 c 128,-1,11
 207 546 207 546 219 546 c 128,-1,12
 231 546 231 546 327 530 c 1,13,14
 257 585 257 585 251.5 592 c 128,-1,15
 246 599 246 599 246 606 c 0,16,17
 246 627 246 627 261 641 c 128,-1,18
 276 655 276 655 291.5 655 c 128,-1,19
 307 655 307 655 314 647 c 1,20,21
 333 614 333 614 361 556 c 1,22,23
 366 658 366 658 368 670 c 128,-1,24
 370 682 370 682 383.5 691 c 128,-1,25
 397 700 397 700 411 700 c 128,-1,26
 425 700 425 700 434.5 693 c 128,-1,27
 444 686 444 686 444 674 c 1,28,29
 441 655 441 655 400 558 c 1,30,31
 478 646 478 646 485 652 c 128,-1,32
 492 658 492 658 506 658 c 128,-1,33
 520 658 520 658 532 646 c 1,34,35
 539 636 539 636 539 628 c 128,-1,36
 539 620 539 620 537.5 613 c 128,-1,37
 536 606 536 606 524.5 596 c 128,-1,38
 513 586 513 586 423 531 c 1,39,40
 523 551 523 551 536 551 c 2,41,-1
 537 551 l 2,42,43
 549 551 549 551 556 542 c 128,-1,44
 563 533 563 533 563 517.5 c 128,-1,45
 563 502 563 502 549.5 488.5 c 128,-1,46
 536 475 536 475 519 475 c 128,-1,47
 502 475 502 475 415 492 c 1,48,49
 490 432 490 432 494 427 c 128,-1,50
 498 422 498 422 498 412 c 2,51,-1
 498 407 l 1,52,53
 495 393 495 393 480 378 c 1,54,55
 464 365 464 365 449.5 365 c 128,-1,56
 435 365 435 365 429.5 372.5 c 128,-1,57
 424 380 424 380 382 462 c 1,58,59
 380 360 380 360 378 354 c 1,60,-1
 378 352 l 1,61,62
 375 339 375 339 362 329.5 c 128,-1,63
 349 320 349 320 335 320 c 128,-1,64
 321 320 321 320 311.5 327.5 c 128,-1,65
 302 335 302 335 302 346 c 1,66,-1
 303 351 l 1,67,-1
 303 352 l 1,68,69
 306 365 306 365 342 461 c 1,70,71
 267 377 267 377 258 369.5 c 128,-1,72
 249 362 249 362 234.5 362 c 128,-1,73
 220 362 220 362 211.5 372 c 128,-1,74
 203 382 203 382 203 394 c 1,0,1
EndSplineSet
EndChar

StartChar: plus
Encoding: 43 43 14
Width: 350
GlyphClass: 2
Flags: W
LayerCount: 2
Fore
SplineSet
279 360 m 1,0,-1
 258 260 l 1,1,-1
 355 260 l 1,2,-1
 344 210 l 1,3,-1
 247 210 l 1,4,-1
 226 110 l 1,5,-1
 170 110 l 1,6,-1
 191 210 l 1,7,-1
 94 210 l 1,8,-1
 105 260 l 1,9,-1
 202 260 l 1,10,-1
 223 360 l 1,11,-1
 279 360 l 1,0,-1
EndSplineSet
EndChar

StartChar: comma
Encoding: 44 44 15
Width: 184
GlyphClass: 2
Flags: W
LayerCount: 2
Fore
SplineSet
157 110 m 1,0,1
 141 39 141 39 110.5 -10 c 128,-1,2
 80 -59 80 -59 22 -98 c 1,3,-1
 11 -88 l 1,4,5
 30 -69 30 -69 46 -34 c 128,-1,6
 62 1 62 1 74 51 c 2,7,-1
 87 110 l 1,8,-1
 157 110 l 1,0,1
EndSplineSet
EndChar

StartChar: hyphen
Encoding: 45 45 16
Width: 325
GlyphClass: 2
Flags: W
LayerCount: 2
Fore
SplineSet
324 235 m 1,0,-1
 99 235 l 1,1,-1
 113 300 l 1,2,-1
 338 300 l 1,3,-1
 324 235 l 1,0,-1
EndSplineSet
EndChar

StartChar: period
Encoding: 46 46 17
Width: 188
GlyphClass: 2
Flags: W
LayerCount: 2
Fore
SplineSet
139 84.5 m 128,-1,1
 149 73 149 73 149 52.5 c 128,-1,2
 149 32 149 32 130.5 11 c 128,-1,3
 112 -10 112 -10 94 -10 c 128,-1,4
 76 -10 76 -10 66.5 1 c 128,-1,5
 57 12 57 12 57 33 c 128,-1,6
 57 54 57 54 74.5 75 c 128,-1,7
 92 96 92 96 110.5 96 c 128,-1,0
 129 96 129 96 139 84.5 c 128,-1,1
EndSplineSet
EndChar

StartChar: slash
Encoding: 47 47 18
Width: 344
GlyphClass: 2
Flags: W
LayerCount: 2
Fore
SplineSet
377 799 m 1,0,-1
 453 799 l 1,1,-1
 127 -39 l 1,2,-1
 51 -39 l 1,3,-1
 377 799 l 1,0,-1
EndSplineSet
EndChar

StartChar: zero
Encoding: 48 48 19
Width: 530
GlyphClass: 2
Flags: W
LayerCount: 2
Fore
SplineSet
262 -10 m 0,0,1
 101 -10 101 -10 101 147 c 0,2,3
 101 196 101 196 115 260 c 2,4,-1
 151 429 l 2,5,6
 179 560 179 560 239.5 630 c 128,-1,7
 300 700 300 700 413 700 c 0,8,9
 574 700 574 700 574 540 c 0,10,11
 574 488 574 488 561 429 c 2,12,-1
 525 260 l 2,13,14
 498 130 498 130 436 60 c 128,-1,15
 374 -10 374 -10 262 -10 c 0,0,1
467 508 m 2,16,17
 479 563 479 563 479 596 c 128,-1,18
 479 629 479 629 462.5 647 c 128,-1,19
 446 665 446 665 410 665 c 128,-1,20
 374 665 374 665 351.5 654 c 128,-1,21
 329 643 329 643 314 619 c 0,22,23
 291 580 291 580 276 508 c 2,24,-1
 207 182 l 2,25,26
 195 127 195 127 195 94 c 0,27,28
 195 25 195 25 270 25 c 0,29,30
 330 25 330 25 355.5 63.5 c 128,-1,31
 381 102 381 102 398 182 c 2,32,-1
 467 508 l 2,16,17
EndSplineSet
EndChar

StartChar: one
Encoding: 49 49 20
Width: 296
GlyphClass: 2
Flags: W
LayerCount: 2
Fore
SplineSet
226 0 m 1,0,-1
 117 0 l 1,1,-1
 246 612 l 1,2,-1
 126 502 l 1,3,-1
 141 572 l 1,4,-1
 263 690 l 1,5,-1
 372 690 l 1,6,-1
 226 0 l 1,0,-1
EndSplineSet
EndChar

StartChar: two
Encoding: 50 50 21
Width: 458
GlyphClass: 2
Flags: W
LayerCount: 2
Fore
SplineSet
353 700 m 0,0,1
 428 700 428 700 471 662 c 128,-1,2
 514 624 514 624 514 565 c 0,3,4
 514 550 514 550 499 476 c 1,5,6
 474 364 474 364 394 304 c 0,7,8
 343 266 343 266 278 229 c 128,-1,9
 213 192 213 192 172.5 164.5 c 128,-1,10
 132 137 132 137 105 100 c 1,11,-1
 408 100 l 1,12,-1
 387 0 l 1,13,-1
 10 0 l 1,14,15
 16 31 16 31 53 85.5 c 128,-1,16
 90 140 90 140 142 190.5 c 128,-1,17
 194 241 194 241 250 286 c 128,-1,18
 306 331 306 331 328 353 c 0,19,20
 374 399 374 399 389 474 c 1,21,-1
 409 565 l 2,22,23
 412 578 412 578 412 591 c 0,24,25
 412 624 412 624 392.5 644.5 c 128,-1,26
 373 665 373 665 335.5 665 c 128,-1,27
 298 665 298 665 259.5 639.5 c 128,-1,28
 221 614 221 614 191 574 c 1,29,-1
 165 587 l 1,30,31
 243 700 243 700 353 700 c 0,0,1
EndSplineSet
EndChar

StartChar: three
Encoding: 51 51 22
Width: 449
GlyphClass: 2
Flags: W
LayerCount: 2
Fore
SplineSet
398 591 m 0,0,1
 398 624 398 624 378.5 644.5 c 128,-1,2
 359 665 359 665 320 665 c 0,3,4
 249 665 249 665 182 574 c 1,5,-1
 156 587 l 1,6,7
 173 613 173 613 203 642 c 0,8,9
 263 700 263 700 338.5 700 c 128,-1,10
 414 700 414 700 457 662 c 128,-1,11
 500 624 500 624 500 565 c 0,12,13
 500 546 500 546 493 515 c 0,14,15
 468 404 468 404 360 365 c 1,16,17
 400 349 400 349 421 316.5 c 128,-1,18
 442 284 442 284 442 243 c 0,19,20
 442 230 442 230 433 189 c 0,21,22
 411 85 411 85 349 37.5 c 128,-1,23
 287 -10 287 -10 182 -10 c 0,24,25
 120 -10 120 -10 83.5 22 c 128,-1,26
 47 54 47 54 43 112 c 1,27,-1
 71 120 l 1,28,29
 75 86 75 86 100.5 55.5 c 128,-1,30
 126 25 126 25 180 25 c 0,31,32
 290 25 290 25 316 147 c 2,33,-1
 338 253 l 2,34,35
 341 268 341 268 341 281 c 0,36,37
 341 350 341 350 257 350 c 1,38,-1
 265 380 l 1,39,40
 356 383 356 383 376 476 c 2,41,-1
 395 565 l 2,42,43
 398 578 398 578 398 591 c 0,0,1
EndSplineSet
EndChar

StartChar: four
Encoding: 52 52 23
Width: 476
GlyphClass: 2
Flags: W
LayerCount: 2
Fore
SplineSet
389 0 m 1,0,-1
 280 0 l 1,1,-1
 318 183 l 1,2,-1
 58 183 l 1,3,-1
 427 690 l 1,4,-1
 534 690 l 1,5,-1
 201 232 l 1,6,-1
 329 232 l 1,7,-1
 358 369 l 1,8,-1
 467 369 l 1,9,-1
 438 232 l 1,10,-1
 465 232 l 1,11,-1
 454 182 l 1,12,-1
 427 182 l 1,13,-1
 389 0 l 1,0,-1
EndSplineSet
EndChar

StartChar: five
Encoding: 53 53 24
Width: 487
GlyphClass: 2
Flags: W
LayerCount: 2
Fore
SplineSet
497 292 m 0,0,1
 497 258 497 258 487 212 c 0,2,3
 439 -10 439 -10 230 -10 c 0,4,5
 168 -10 168 -10 131.5 22 c 128,-1,6
 95 54 95 54 91 112 c 1,7,-1
 119 120 l 1,8,9
 123 86 123 86 148.5 55.5 c 128,-1,10
 174 25 174 25 228 25 c 0,11,12
 339 25 339 25 368 160 c 2,13,-1
 389 259 l 2,14,15
 397 297 397 297 397 325 c 0,16,17
 397 415 397 415 316 415 c 0,18,19
 221 415 221 415 175 307 c 1,20,-1
 125 307 l 1,21,-1
 206 690 l 1,22,-1
 569 690 l 1,23,-1
 548 590 l 1,24,-1
 235 590 l 1,25,-1
 190 381 l 1,26,27
 244 450 244 450 332 450 c 128,-1,28
 420 450 420 450 458.5 405.5 c 128,-1,29
 497 361 497 361 497 292 c 0,0,1
EndSplineSet
EndChar

StartChar: six
Encoding: 54 54 25
Width: 497
GlyphClass: 2
Flags: W
LayerCount: 2
Fore
SplineSet
403.5 38.5 m 128,-1,1
 337 -10 337 -10 258 -10 c 128,-1,2
 179 -10 179 -10 134 28 c 128,-1,3
 89 66 89 66 89 125 c 0,4,5
 89 135 89 135 93 157 c 2,6,-1
 161 477 l 2,7,8
 208 700 208 700 417 700 c 0,9,10
 479 700 479 700 515.5 668 c 128,-1,11
 552 636 552 636 556 578 c 1,12,-1
 529 570 l 1,13,14
 526 591 526 591 517.5 609.5 c 128,-1,15
 509 628 509 628 483.5 646.5 c 128,-1,16
 458 665 458 665 420 665 c 0,17,18
 309 665 309 665 280 530 c 2,19,-1
 256 417 l 1,20,21
 304 450 304 450 365 450 c 128,-1,22
 426 450 426 450 470.5 413 c 128,-1,23
 515 376 515 376 515 316 c 0,24,25
 515 300 515 300 512 284 c 2,26,-1
 485 157 l 2,27,0
 470 87 470 87 403.5 38.5 c 128,-1,1
415 354 m 0,28,29
 415 420 415 420 340 420 c 0,30,31
 301 420 301 420 274 399 c 128,-1,32
 247 378 247 378 241 348 c 2,33,-1
 193 118 l 2,34,35
 189 96 189 96 189 86 c 0,36,37
 189 20 189 20 260 20 c 0,38,39
 347 20 347 20 368 118 c 2,40,-1
 411 323 l 2,41,42
 415 343 415 343 415 354 c 0,28,29
EndSplineSet
EndChar

StartChar: seven
Encoding: 55 55 26
Width: 443
GlyphClass: 2
Flags: W
LayerCount: 2
Fore
SplineSet
299 640 m 2,0,1
 235 640 235 640 211 588 c 1,2,-1
 134 588 l 1,3,-1
 156 690 l 1,4,-1
 587 690 l 1,5,-1
 586 675 l 1,6,7
 461 572 461 572 363 389 c 1,8,-1
 447 389 l 1,9,-1
 437 342 l 1,10,-1
 339 342 l 1,11,12
 264 186 264 186 225 0 c 1,13,-1
 109 0 l 1,14,15
 148 187 148 187 237 342 c 1,16,-1
 160 342 l 1,17,-1
 170 389 l 1,18,-1
 266 389 l 1,19,20
 316 466 316 466 374.5 529 c 128,-1,21
 433 592 433 592 466 616 c 2,22,-1
 500 640 l 1,23,-1
 299 640 l 2,0,1
EndSplineSet
EndChar

StartChar: eight
Encoding: 56 56 27
Width: 512
GlyphClass: 2
Flags: W
LayerCount: 2
Fore
SplineSet
568 566 m 0,0,1
 568 550 568 550 559.5 507.5 c 128,-1,2
 551 465 551 465 512 425 c 128,-1,3
 473 385 473 385 418 365 c 1,4,5
 459 349 459 349 482 317 c 128,-1,6
 505 285 505 285 505 244 c 0,7,8
 505 229 505 229 490 158 c 128,-1,9
 475 87 475 87 407 38.5 c 128,-1,10
 339 -10 339 -10 258 -10 c 128,-1,11
 177 -10 177 -10 131 28.5 c 128,-1,12
 85 67 85 67 85 126 c 0,13,14
 85 141 85 141 100 214 c 0,15,16
 110 264 110 264 150 304.5 c 128,-1,17
 190 345 190 345 247 365 c 1,18,19
 166 400 166 400 166 483 c 0,20,21
 166 499 166 499 173 534 c 0,22,23
 188 604 188 604 254 652 c 128,-1,24
 320 700 320 700 399 700 c 128,-1,25
 478 700 478 700 523 662.5 c 128,-1,26
 568 625 568 625 568 566 c 0,0,1
404 281 m 0,27,28
 404 350 404 350 330 350 c 0,29,30
 283 350 283 350 254 322.5 c 128,-1,31
 225 295 225 295 216 253 c 2,32,-1
 188 118 l 2,33,34
 185 103 185 103 185 90 c 0,35,36
 185 20 185 20 260 20 c 0,37,38
 307 20 307 20 335.5 47.5 c 128,-1,39
 364 75 364 75 373 118 c 2,40,-1
 401 253 l 2,41,42
 404 268 404 268 404 281 c 0,27,28
470 603 m 0,43,44
 470 670 470 670 398 670 c 0,45,46
 351 670 351 670 323 643 c 128,-1,47
 295 616 295 616 286 573 c 2,48,-1
 266 476 l 2,49,50
 263 461 263 461 263 446 c 0,51,52
 263 383 263 383 331 380 c 1,53,-1
 341 380 l 1,54,55
 427 383 427 383 447 476 c 2,56,-1
 467 573 l 2,57,58
 470 588 470 588 470 603 c 0,43,44
EndSplineSet
EndChar

StartChar: nine
Encoding: 57 57 28
Width: 497
GlyphClass: 2
Flags: W
LayerCount: 2
Fore
SplineSet
239 651.5 m 128,-1,1
 305 700 305 700 384 700 c 128,-1,2
 463 700 463 700 508 662 c 128,-1,3
 553 624 553 624 553 565 c 0,4,5
 553 550 553 550 550 533 c 2,6,-1
 482 213 l 2,7,8
 435 -10 435 -10 225 -10 c 0,9,10
 163 -10 163 -10 126.5 22 c 128,-1,11
 90 54 90 54 86 112 c 1,12,-1
 114 120 l 1,13,14
 118 86 118 86 143.5 55.5 c 128,-1,15
 169 25 169 25 223 25 c 0,16,17
 334 25 334 25 363 160 c 2,18,-1
 387 273 l 1,19,20
 336 240 336 240 276.5 240 c 128,-1,21
 217 240 217 240 172.5 277 c 128,-1,22
 128 314 128 314 128 374 c 0,23,24
 128 390 128 390 131 406 c 2,25,-1
 158 533 l 2,26,0
 173 603 173 603 239 651.5 c 128,-1,1
228 336 m 0,27,28
 228 270 228 270 303 270 c 0,29,30
 342 270 342 270 368.5 291 c 128,-1,31
 395 312 395 312 401 342 c 2,32,-1
 450 572 l 2,33,34
 454 594 454 594 454 604 c 0,35,36
 454 670 454 670 383 670 c 0,37,38
 296 670 296 670 275 572 c 2,39,-1
 232 367 l 2,40,41
 228 345 228 345 228 336 c 0,27,28
EndSplineSet
EndChar

StartChar: colon
Encoding: 58 58 29
Width: 188
GlyphClass: 2
Flags: W
LayerCount: 2
Fore
SplineSet
138.5 84.5 m 128,-1,1
 148 73 148 73 148 52 c 128,-1,2
 148 31 148 31 130 10.5 c 128,-1,3
 112 -10 112 -10 94 -10 c 128,-1,4
 76 -10 76 -10 66.5 1 c 128,-1,5
 57 12 57 12 57 33 c 128,-1,6
 57 54 57 54 75 75 c 128,-1,7
 93 96 93 96 111 96 c 128,-1,0
 129 96 129 96 138.5 84.5 c 128,-1,1
204.5 394.5 m 128,-1,9
 214 383 214 383 214 362 c 128,-1,10
 214 341 214 341 196 320.5 c 128,-1,11
 178 300 178 300 160 300 c 128,-1,12
 142 300 142 300 132.5 311 c 128,-1,13
 123 322 123 322 123 343 c 128,-1,14
 123 364 123 364 141 385 c 128,-1,15
 159 406 159 406 177 406 c 128,-1,8
 195 406 195 406 204.5 394.5 c 128,-1,9
EndSplineSet
EndChar

StartChar: semicolon
Encoding: 59 59 30
Width: 193
GlyphClass: 2
Flags: W
LayerCount: 2
Fore
SplineSet
209.5 394.5 m 128,-1,1
 219 383 219 383 219 362 c 128,-1,2
 219 341 219 341 201 320.5 c 128,-1,3
 183 300 183 300 165 300 c 128,-1,4
 147 300 147 300 137.5 311 c 128,-1,5
 128 322 128 322 128 343 c 128,-1,6
 128 364 128 364 146 385 c 128,-1,7
 164 406 164 406 182 406 c 128,-1,0
 200 406 200 406 209.5 394.5 c 128,-1,1
157 110 m 1,8,9
 141 39 141 39 110.5 -10 c 128,-1,10
 80 -59 80 -59 22 -98 c 1,11,-1
 11 -88 l 1,12,13
 30 -69 30 -69 46 -34 c 128,-1,14
 62 1 62 1 74 51 c 2,15,-1
 87 110 l 1,16,-1
 157 110 l 1,8,9
EndSplineSet
EndChar

StartChar: less
Encoding: 60 60 31
Width: 519
GlyphClass: 2
Flags: W
LayerCount: 2
Fore
SplineSet
383 0 m 1,0,-1
 159 282 l 1,1,-1
 503 565 l 1,2,-1
 530 530 l 1,3,-1
 230 282 l 1,4,-1
 426 35 l 1,5,-1
 383 0 l 1,0,-1
EndSplineSet
EndChar

StartChar: equal
Encoding: 61 61 32
Width: 500
GlyphClass: 2
Flags: W
LayerCount: 2
Fore
SplineSet
513 300 m 1,0,-1
 113 300 l 1,1,-1
 124 350 l 1,2,-1
 524 350 l 1,3,-1
 513 300 l 1,0,-1
484 160 m 1,4,-1
 84 160 l 1,5,-1
 94 210 l 1,6,-1
 494 210 l 1,7,-1
 484 160 l 1,4,-1
EndSplineSet
EndChar

StartChar: greater
Encoding: 62 62 33
Width: 519
GlyphClass: 2
Flags: W
LayerCount: 2
Fore
SplineSet
478 282 m 1,0,-1
 136 0 l 1,1,-1
 107 35 l 1,2,-1
 407 282 l 1,3,-1
 213 530 l 1,4,-1
 256 565 l 1,5,-1
 478 282 l 1,0,-1
EndSplineSet
EndChar

StartChar: question
Encoding: 63 63 34
Width: 447
GlyphClass: 2
Flags: W
LayerCount: 2
Fore
SplineSet
414 604 m 0,0,1
 414 665 414 665 351 665 c 0,2,3
 315 665 315 665 287.5 639.5 c 128,-1,4
 260 614 260 614 252 576 c 2,5,-1
 237 507 l 1,6,-1
 157 507 l 1,7,-1
 161 523 l 1,8,9
 176 598 176 598 235.5 649 c 128,-1,10
 295 700 295 700 369 700 c 128,-1,11
 443 700 443 700 478 664 c 128,-1,12
 513 628 513 628 513 570 c 0,13,14
 513 549 513 549 504 508 c 0,15,16
 488 433 488 433 410 353 c 1,17,-1
 272 214 l 2,18,19
 249 190 249 190 243 164 c 1,20,-1
 239 142 l 1,21,-1
 194 142 l 1,22,-1
 199 165 l 2,23,24
 206 201 206 201 226 229.5 c 128,-1,25
 246 258 246 258 346 402 c 0,26,27
 386 459 386 459 398 516 c 0,28,29
 414 589 414 589 414 604 c 0,0,1
230.5 84.5 m 128,-1,31
 240 73 240 73 240 52 c 128,-1,32
 240 31 240 31 222 10.5 c 128,-1,33
 204 -10 204 -10 186 -10 c 128,-1,34
 168 -10 168 -10 158.5 1 c 128,-1,35
 149 12 149 12 149 33 c 128,-1,36
 149 54 149 54 167 75 c 128,-1,37
 185 96 185 96 203 96 c 128,-1,30
 221 96 221 96 230.5 84.5 c 128,-1,31
EndSplineSet
EndChar

StartChar: at
Encoding: 64 64 35
Width: 919
GlyphClass: 2
Flags: W
LayerCount: 2
Fore
SplineSet
267 -145 m 2,0,1
 172 -145 172 -145 124 -96 c 128,-1,2
 76 -47 76 -47 76 41 c 0,3,4
 76 75 76 75 86 125 c 2,5,-1
 149 419 l 2,6,7
 175 544 175 544 251.5 617 c 128,-1,8
 328 690 328 690 444 690 c 2,9,-1
 767 690 l 2,10,11
 861 690 861 690 909 640.5 c 128,-1,12
 957 591 957 591 957 503 c 0,13,14
 957 464 957 464 948 419 c 2,15,-1
 914 260 l 2,16,17
 888 138 888 138 812.5 64 c 128,-1,18
 737 -10 737 -10 635 -10 c 2,19,-1
 605 -10 l 2,20,21
 541 -10 541 -10 541 53 c 2,22,-1
 541 64 l 1,23,24
 497 -10 497 -10 425 -10 c 0,25,26
 376 -10 376 -10 349.5 19 c 128,-1,27
 323 48 323 48 323 100 c 0,28,29
 323 128 323 128 328 149 c 2,30,-1
 365 322 l 2,31,32
 380 394 380 394 425 437 c 128,-1,33
 470 480 470 480 530 480 c 0,34,35
 600 480 600 480 613 412 c 1,36,-1
 625 470 l 1,37,-1
 712 470 l 1,38,39
 624 54 624 54 624 48 c 0,40,41
 624 25 624 25 644 25 c 0,42,43
 754 25 754 25 787 182 c 2,44,-1
 854 498 l 2,45,46
 860 525 860 525 860 550 c 0,47,48
 860 599 860 599 835.5 627 c 128,-1,49
 811 655 811 655 760 655 c 2,50,-1
 437 655 l 2,51,52
 373 655 373 655 331 611.5 c 128,-1,53
 289 568 289 568 274 498 c 2,54,-1
 178 47 l 2,55,56
 172 20 172 20 172 -5 c 0,57,58
 172 -54 172 -54 197 -82 c 128,-1,59
 222 -110 222 -110 274 -110 c 2,60,-1
 589 -110 l 1,61,-1
 582 -145 l 1,62,-1
 267 -145 l 2,0,1
596 334 m 2,63,64
 600 354 600 354 600 379.5 c 128,-1,65
 600 405 600 405 584.5 427.5 c 128,-1,66
 569 450 569 450 538 450 c 0,67,68
 479 450 479 450 459 356 c 2,69,-1
 408 115 l 2,70,71
 403 95 403 95 403 73 c 0,72,73
 403 22 403 22 445 22 c 128,-1,74
 487 22 487 22 516 55.5 c 128,-1,75
 545 89 545 89 555 137 c 2,76,-1
 596 334 l 2,63,64
EndSplineSet
EndChar

StartChar: A
Encoding: 65 65 36
Width: 606
GlyphClass: 2
Flags: W
LayerCount: 2
Fore
SplineSet
377.5 28.5 m 128,-1,1
 328 -10 328 -10 259 -10 c 128,-1,2
 190 -10 190 -10 146.5 35.5 c 128,-1,3
 103 81 103 81 103 165 c 0,4,5
 103 202 103 202 112 247 c 2,6,-1
 154 446 l 2,7,8
 180 569 180 569 257.5 634.5 c 128,-1,9
 335 700 335 700 421 700 c 0,10,11
 457 700 457 700 483.5 685 c 128,-1,12
 510 670 510 670 523 648 c 0,13,14
 544 611 544 611 549 575 c 1,15,-1
 573 690 l 1,16,-1
 682 690 l 1,17,-1
 536 0 l 1,18,-1
 427 0 l 1,19,-1
 450 110 l 1,20,0
 427 67 427 67 377.5 28.5 c 128,-1,1
531 522 m 0,21,22
 531 582 531 582 504 623.5 c 128,-1,23
 477 665 477 665 424 665 c 0,24,25
 394 665 394 665 368.5 651.5 c 128,-1,26
 343 638 343 638 327.5 619.5 c 128,-1,27
 312 601 312 601 300 575 c 1,28,29
 282 540 282 540 273 497 c 2,30,-1
 209 197 l 2,31,32
 201 157 201 157 201 131 c 0,33,34
 201 25 201 25 294 25 c 0,35,36
 359 25 359 25 408 85.5 c 128,-1,37
 457 146 457 146 474 227 c 2,38,-1
 525 468 l 2,39,40
 531 495 531 495 531 522 c 0,21,22
EndSplineSet
EndChar

StartChar: B
Encoding: 66 66 37
Width: 537
GlyphClass: 2
Flags: W
LayerCount: 2
Fore
SplineSet
541 230 m 0,0,1
 541 166 541 166 515 119 c 128,-1,2
 489 72 489 72 446 47 c 0,3,4
 364 0 364 0 251 0 c 2,5,-1
 70 0 l 1,6,-1
 216 690 l 1,7,-1
 372 690 l 2,8,9
 528 690 528 690 570 628 c 1,10,11
 587 601 587 601 587 562 c 0,12,13
 587 485 587 485 543 434 c 128,-1,14
 499 383 499 383 425 365 c 1,15,16
 541 327 541 327 541 230 c 0,0,1
485 567 m 0,17,18
 485 622 485 622 447 639 c 128,-1,19
 409 656 409 656 336 656 c 2,20,-1
 317 656 l 1,21,-1
 258 378 l 1,22,-1
 298 378 l 2,23,24
 374 378 374 378 429.5 427.5 c 128,-1,25
 485 477 485 477 485 567 c 0,17,18
438 238 m 0,26,27
 438 291 438 291 404 320 c 128,-1,28
 370 349 370 349 316 349 c 2,29,-1
 252 349 l 1,30,-1
 185 34 l 1,31,-1
 220 34 l 2,32,33
 325 34 325 34 381.5 84.5 c 128,-1,34
 438 135 438 135 438 238 c 0,26,27
EndSplineSet
EndChar

StartChar: C
Encoding: 67 67 38
Width: 562
GlyphClass: 2
Flags: W
LayerCount: 2
Fore
SplineSet
295 -10 m 0,0,1
 204 -10 204 -10 154.5 43.5 c 128,-1,2
 105 97 105 97 105 184 c 0,3,4
 105 216 105 216 113 254 c 2,5,-1
 152 436 l 2,6,7
 177 550 177 550 257 625 c 128,-1,8
 337 700 337 700 446 700 c 0,9,10
 519 700 519 700 570.5 659 c 128,-1,11
 622 618 622 618 622 545 c 0,12,13
 622 520 622 520 615 486 c 1,14,-1
 529 486 l 1,15,16
 539 532 539 532 539 559 c 0,17,18
 539 608 539 608 514.5 636.5 c 128,-1,19
 490 665 490 665 432.5 665 c 128,-1,20
 375 665 375 665 333.5 622 c 128,-1,21
 292 579 292 579 277 509 c 2,22,-1
 207 182 l 2,23,24
 201 155 201 155 201 130 c 0,25,26
 201 81 201 81 226.5 53 c 128,-1,27
 252 25 252 25 309 25 c 128,-1,28
 366 25 366 25 407 68 c 128,-1,29
 448 111 448 111 464 182 c 2,30,-1
 469 204 l 1,31,-1
 555 204 l 1,32,33
 539 124 539 124 491 75 c 0,34,35
 406 -10 406 -10 295 -10 c 0,0,1
EndSplineSet
EndChar

StartChar: D
Encoding: 68 68 39
Width: 576
GlyphClass: 2
Flags: W
LayerCount: 2
Fore
SplineSet
261 0 m 2,0,-1
 70 0 l 1,1,-1
 216 690 l 1,2,-1
 407 690 l 2,3,4
 502 690 502 690 557 634 c 128,-1,5
 612 578 612 578 612 487 c 0,6,7
 612 453 612 453 605 421 c 2,8,-1
 573 269 l 2,9,10
 548 152 548 152 460.5 76 c 128,-1,11
 373 0 373 0 261 0 c 2,0,-1
513 522 m 0,12,13
 513 587 513 587 473.5 621.5 c 128,-1,14
 434 656 434 656 363 656 c 2,15,-1
 317 656 l 1,16,-1
 185 34 l 1,17,-1
 231 34 l 2,18,19
 317 34 317 34 376.5 82.5 c 128,-1,20
 436 131 436 131 455 222 c 2,21,-1
 507 468 l 2,22,23
 513 498 513 498 513 522 c 0,12,13
EndSplineSet
EndChar

StartChar: E
Encoding: 69 69 40
Width: 567
GlyphClass: 2
Flags: W
LayerCount: 2
Fore
SplineSet
295 -10 m 0,0,1
 204 -10 204 -10 154.5 43.5 c 128,-1,2
 105 97 105 97 105 184 c 0,3,4
 105 216 105 216 113 254 c 2,5,-1
 152 436 l 2,6,7
 177 550 177 550 257 625 c 128,-1,8
 337 700 337 700 446 700 c 0,9,10
 519 700 519 700 570.5 659 c 128,-1,11
 622 618 622 618 622 545 c 0,12,13
 622 520 622 520 615 486 c 1,14,-1
 529 486 l 1,15,16
 539 541 539 541 539 560 c 0,17,18
 539 609 539 609 514.5 637 c 128,-1,19
 490 665 490 665 432.5 665 c 128,-1,20
 375 665 375 665 333 622 c 128,-1,21
 291 579 291 579 276 508 c 2,22,-1
 251 388 l 1,23,-1
 515 388 l 1,24,-1
 505 341 l 1,25,-1
 241 341 l 1,26,-1
 207 182 l 2,27,28
 201 155 201 155 201 130 c 0,29,30
 201 81 201 81 226.5 53 c 128,-1,31
 252 25 252 25 309 25 c 128,-1,32
 366 25 366 25 407 68 c 128,-1,33
 448 111 448 111 464 182 c 2,34,-1
 469 204 l 1,35,-1
 555 204 l 1,36,37
 539 124 539 124 491 75 c 0,38,39
 406 -10 406 -10 295 -10 c 0,0,1
EndSplineSet
EndChar

StartChar: F
Encoding: 70 70 41
Width: 434
GlyphClass: 2
Flags: W
LayerCount: 2
Fore
SplineSet
456 583 m 2,0,1
 459 596 459 596 459 615 c 128,-1,2
 459 634 459 634 444.5 649.5 c 128,-1,3
 430 665 430 665 402 665 c 128,-1,4
 374 665 374 665 349.5 642.5 c 128,-1,5
 325 620 325 620 317 583 c 2,6,-1
 276 388 l 1,7,-1
 418 388 l 1,8,-1
 408 341 l 1,9,-1
 266 341 l 1,10,-1
 194 0 l 1,11,-1
 85 0 l 1,12,-1
 157 341 l 1,13,-1
 117 341 l 1,14,-1
 127 388 l 1,15,-1
 167 388 l 1,16,-1
 196 527 l 2,17,18
 214 609 214 609 272.5 654.5 c 128,-1,19
 331 700 331 700 393.5 700 c 128,-1,20
 456 700 456 700 492.5 665 c 128,-1,21
 529 630 529 630 529 568 c 0,22,23
 529 546 529 546 517 486 c 1,24,-1
 436 486 l 1,25,-1
 456 583 l 2,0,1
EndSplineSet
EndChar

StartChar: G
Encoding: 71 71 42
Width: 569
GlyphClass: 2
Flags: W
LayerCount: 2
Fore
SplineSet
340.5 -197.5 m 128,-1,1
 302 -209 302 -209 241.5 -209 c 128,-1,2
 181 -209 181 -209 130 -189 c 128,-1,3
 79 -169 79 -169 56 -144 c 1,4,-1
 81 -116 l 1,5,6
 99 -136 99 -136 137.5 -153 c 128,-1,7
 176 -170 176 -170 228 -170 c 0,8,9
 327 -170 327 -170 369 -118 c 256,10,11
 411 -66 411 -66 437 65 c 1,12,13
 384 -10 384 -10 293.5 -10 c 128,-1,14
 203 -10 203 -10 154 42.5 c 128,-1,15
 105 95 105 95 105 182 c 0,16,17
 105 214 105 214 113 252 c 2,18,-1
 152 437 l 2,19,20
 177 551 177 551 256.5 625.5 c 128,-1,21
 336 700 336 700 444 700 c 0,22,23
 517 700 517 700 568 659 c 128,-1,24
 619 618 619 618 619 545 c 0,25,26
 619 523 619 523 611 486 c 1,27,-1
 527 486 l 1,28,29
 535 534 535 534 535 556 c 0,30,31
 535 665 535 665 437 665 c 0,32,33
 374 665 374 665 332.5 622.5 c 128,-1,34
 291 580 291 580 276 510 c 2,35,-1
 206 181 l 2,36,37
 200 154 200 154 200 129 c 0,38,39
 200 25 200 25 301 25 c 0,40,41
 421 25 421 25 461 181 c 1,42,-1
 466 202 l 1,43,-1
 566 202 l 1,44,45
 532 40 532 40 528.5 26.5 c 128,-1,46
 525 13 525 13 513.5 -21 c 128,-1,47
 502 -55 502 -55 489.5 -77 c 128,-1,48
 477 -99 477 -99 454.5 -126.5 c 128,-1,49
 432 -154 432 -154 405.5 -170 c 128,-1,0
 379 -186 379 -186 340.5 -197.5 c 128,-1,1
EndSplineSet
EndChar

StartChar: H
Encoding: 72 72 43
Width: 611
GlyphClass: 2
Flags: W
LayerCount: 2
Fore
SplineSet
541 0 m 1,0,-1
 432 0 l 1,1,-1
 504 340 l 1,2,-1
 250 340 l 1,3,-1
 178 0 l 1,4,-1
 70 0 l 1,5,-1
 216 690 l 1,6,-1
 324 690 l 1,7,-1
 260 388 l 1,8,-1
 514 388 l 1,9,-1
 578 690 l 1,10,-1
 687 690 l 1,11,-1
 541 0 l 1,0,-1
EndSplineSet
EndChar

StartChar: I
Encoding: 73 73 44
Width: 249
GlyphClass: 2
Flags: W
LayerCount: 2
Fore
SplineSet
179 0 m 1,0,-1
 70 0 l 1,1,-1
 216 690 l 1,2,-1
 325 690 l 1,3,-1
 179 0 l 1,0,-1
EndSplineSet
EndChar

StartChar: J
Encoding: 74 74 45
Width: 448
GlyphClass: 2
Flags: W
LayerCount: 2
Fore
SplineSet
347 41.5 m 128,-1,1
 287 -10 287 -10 210.5 -10 c 128,-1,2
 134 -10 134 -10 92.5 30.5 c 128,-1,3
 51 71 51 71 51 132 c 0,4,5
 51 150 51 150 63 204 c 1,6,-1
 143 204 l 1,7,8
 122 106 122 106 122 97 c 0,9,10
 122 67 122 67 142 46.5 c 128,-1,11
 162 26 162 26 198 26 c 128,-1,12
 234 26 234 26 264 51.5 c 128,-1,13
 294 77 294 77 304 121 c 2,14,-1
 425 690 l 1,15,-1
 534 690 l 1,16,-1
 423 167 l 2,17,0
 407 93 407 93 347 41.5 c 128,-1,1
EndSplineSet
EndChar

StartChar: K
Encoding: 75 75 46
Width: 498
GlyphClass: 2
Flags: W
LayerCount: 2
Fore
SplineSet
375 135 m 2,0,1
 392 215 392 215 392 264 c 0,2,3
 392 370 392 370 266 370 c 1,4,-1
 256 369 l 1,5,-1
 178 0 l 1,6,-1
 70 0 l 1,7,-1
 216 690 l 1,8,-1
 324 690 l 1,9,-1
 264 408 l 1,10,11
 329 408 329 408 380 452.5 c 128,-1,12
 431 497 431 497 446 565 c 2,13,-1
 473 690 l 1,14,-1
 582 690 l 1,15,-1
 570 637 l 2,16,17
 553 558 553 558 501.5 495.5 c 128,-1,18
 450 433 450 433 379 401 c 1,19,20
 489 372 489 372 489 240 c 0,21,22
 489 192 489 192 471 111 c 1,23,-1
 448 0 l 1,24,-1
 347 0 l 1,25,-1
 375 135 l 2,0,1
EndSplineSet
EndChar

StartChar: L
Encoding: 76 76 47
Width: 365
GlyphClass: 2
Flags: W
LayerCount: 2
Fore
SplineSet
362 0 m 1,0,-1
 70 0 l 1,1,-1
 216 690 l 1,2,-1
 324 690 l 1,3,-1
 187 47 l 1,4,-1
 371 47 l 1,5,-1
 362 0 l 1,0,-1
EndSplineSet
EndChar

StartChar: M
Encoding: 77 77 48
Width: 902
GlyphClass: 2
Flags: W
LayerCount: 2
Fore
SplineSet
850 589 m 0,0,1
 850 665 850 665 784 665 c 0,2,3
 737 665 737 665 683 613.5 c 128,-1,4
 629 562 629 562 608 464 c 2,5,-1
 510 0 l 1,6,-1
 401 0 l 1,7,-1
 510 514 l 2,8,9
 519 557 519 557 519 593 c 0,10,11
 519 665 519 665 452 665 c 0,12,13
 406 665 406 665 351.5 613 c 128,-1,14
 297 561 297 561 276 464 c 2,15,-1
 178 0 l 1,16,-1
 70 0 l 1,17,-1
 216 690 l 1,18,-1
 324 690 l 1,19,-1
 300 578 l 1,20,21
 376 700 376 700 485 700 c 0,22,23
 614 700 614 700 619 553 c 1,24,25
 652 618 652 618 701.5 659 c 128,-1,26
 751 700 751 700 816.5 700 c 128,-1,27
 882 700 882 700 916 661.5 c 128,-1,28
 950 623 950 623 950 550 c 0,29,30
 950 513 950 513 941 468 c 2,31,-1
 842 0 l 1,32,-1
 732 0 l 1,33,-1
 841 514 l 2,34,35
 850 559 850 559 850 589 c 0,0,1
EndSplineSet
EndChar

StartChar: N
Encoding: 78 78 49
Width: 606
GlyphClass: 2
Flags: W
LayerCount: 2
Fore
SplineSet
549 565 m 0,0,1
 549 665 549 665 464 665 c 0,2,3
 400 665 400 665 346.5 604.5 c 128,-1,4
 293 544 293 544 276 464 c 2,5,-1
 178 0 l 1,6,-1
 70 0 l 1,7,-1
 216 690 l 1,8,-1
 324 690 l 1,9,-1
 300 575 l 1,10,11
 333 634 333 634 381 667 c 128,-1,12
 429 700 429 700 481 700 c 0,13,14
 554 700 554 700 601 653 c 128,-1,15
 648 606 648 606 648 520 c 0,16,17
 648 487 648 487 640 447 c 2,18,-1
 546 0 l 1,19,-1
 436 0 l 1,20,-1
 541 498 l 2,21,22
 549 536 549 536 549 565 c 0,0,1
EndSplineSet
EndChar

StartChar: O
Encoding: 79 79 50
Width: 596
GlyphClass: 2
Flags: W
LayerCount: 2
Fore
SplineSet
295 -10 m 0,0,1
 201 -10 201 -10 153 39 c 128,-1,2
 105 88 105 88 105 175 c 0,3,4
 105 210 105 210 115 260 c 2,5,-1
 151 429 l 2,6,7
 177 554 177 554 253.5 627 c 128,-1,8
 330 700 330 700 446 700 c 0,9,10
 540 700 540 700 588 650.5 c 128,-1,11
 636 601 636 601 636 513 c 0,12,13
 636 470 636 470 627 429 c 2,14,-1
 591 260 l 2,15,16
 565 136 565 136 488 63 c 128,-1,17
 411 -10 411 -10 295 -10 c 0,0,1
539 560 m 0,18,19
 539 609 539 609 514.5 637 c 128,-1,20
 490 665 490 665 432.5 665 c 128,-1,21
 375 665 375 665 333 621.5 c 128,-1,22
 291 578 291 578 276 508 c 2,23,-1
 207 182 l 2,24,25
 201 155 201 155 201 130 c 0,26,27
 201 81 201 81 226.5 53 c 128,-1,28
 252 25 252 25 309 25 c 128,-1,29
 366 25 366 25 407.5 68 c 128,-1,30
 449 111 449 111 464 182 c 2,31,-1
 533 508 l 2,32,33
 539 535 539 535 539 560 c 0,18,19
EndSplineSet
EndChar

StartChar: P
Encoding: 80 80 51
Width: 606
GlyphClass: 2
Flags: W
LayerCount: 2
Fore
SplineSet
330 -10 m 0,0,1
 295 -10 295 -10 268.5 4.5 c 128,-1,2
 242 19 242 19 229 42 c 0,3,4
 206 83 206 83 202 115 c 1,5,-1
 135 -200 l 1,6,-1
 27 -200 l 1,7,-1
 216 690 l 1,8,-1
 324 690 l 1,9,-1
 301 580 l 1,10,11
 324 623 324 623 373.5 661.5 c 128,-1,12
 423 700 423 700 492 700 c 128,-1,13
 561 700 561 700 605 655 c 128,-1,14
 649 610 649 610 649 525 c 0,15,16
 649 488 649 488 640 443 c 2,17,-1
 597 244 l 2,18,19
 571 121 571 121 493.5 55.5 c 128,-1,20
 416 -10 416 -10 330 -10 c 0,0,1
549 561 m 0,21,22
 549 665 549 665 457 665 c 0,23,24
 393 665 393 665 343.5 604.5 c 128,-1,25
 294 544 294 544 277 463 c 2,26,-1
 226 222 l 2,27,28
 220 197 220 197 220 169 c 0,29,30
 220 109 220 109 247.5 67 c 128,-1,31
 275 25 275 25 328 25 c 0,32,33
 365 25 365 25 394 43.5 c 128,-1,34
 423 62 423 62 440 93 c 0,35,36
 468 145 468 145 478 193 c 2,37,-1
 541 493 l 2,38,39
 549 528 549 528 549 561 c 0,21,22
EndSplineSet
EndChar

StartChar: Q
Encoding: 81 81 52
Width: 607
GlyphClass: 2
Flags: W
LayerCount: 2
Fore
SplineSet
377.5 28.5 m 128,-1,1
 328 -10 328 -10 259 -10 c 128,-1,2
 190 -10 190 -10 146.5 35 c 128,-1,3
 103 80 103 80 103 164 c 0,4,5
 103 202 103 202 112 247 c 2,6,-1
 154 446 l 2,7,8
 180 568 180 568 258 634 c 128,-1,9
 336 700 336 700 421 700 c 0,10,11
 499 700 499 700 532 632 c 0,12,13
 547 602 547 602 549 575 c 1,14,-1
 573 690 l 1,15,-1
 683 690 l 1,16,-1
 494 -200 l 1,17,-1
 384 -200 l 1,18,-1
 450 110 l 1,19,0
 427 67 427 67 377.5 28.5 c 128,-1,1
532 522 m 0,20,21
 532 582 532 582 504.5 623.5 c 128,-1,22
 477 665 477 665 424 665 c 0,23,24
 387 665 387 665 358 646 c 128,-1,25
 329 627 329 627 312 596 c 0,26,27
 284 544 284 544 274 496 c 2,28,-1
 210 197 l 2,29,30
 202 157 202 157 202 131 c 0,31,32
 202 25 202 25 296 25 c 0,33,34
 360 25 360 25 409 85 c 128,-1,35
 458 145 458 145 475 226 c 2,36,-1
 526 468 l 2,37,38
 532 495 532 495 532 522 c 0,20,21
EndSplineSet
EndChar

StartChar: R
Encoding: 82 82 53
Width: 558
GlyphClass: 2
Flags: W
LayerCount: 2
Fore
SplineSet
443 221 m 0,0,1
 443 325 443 325 328 325 c 0,2,3
 313 325 313 325 301 324 c 1,4,-1
 307 349 l 1,5,6
 406 352 406 352 458 414 c 128,-1,7
 510 476 510 476 510 560 c 0,8,9
 510 611 510 611 476 634 c 128,-1,10
 442 657 442 657 372 657 c 2,11,-1
 317 657 l 1,12,-1
 178 0 l 1,13,-1
 70 0 l 1,14,-1
 216 690 l 1,15,-1
 411 690 l 2,16,17
 613 690 613 690 613 560 c 0,18,19
 613 477 613 477 557.5 420 c 128,-1,20
 502 363 502 363 410 339 c 1,21,22
 545 311 545 311 545 193 c 0,23,24
 545 172 545 172 538 135 c 2,25,-1
 510 0 l 1,26,-1
 402 0 l 1,27,-1
 437 169 l 2,28,29
 443 197 443 197 443 221 c 0,0,1
EndSplineSet
EndChar

StartChar: S
Encoding: 83 83 54
Width: 482
GlyphClass: 2
Flags: W
LayerCount: 2
Fore
SplineSet
488 211 m 0,0,1
 488 118 488 118 415 54 c 128,-1,2
 342 -10 342 -10 239 -10 c 0,3,4
 65 -10 65 -10 65 123 c 0,5,6
 65 147 65 147 74 184 c 1,7,-1
 153 184 l 1,8,9
 142 134 142 134 142 111 c 0,10,11
 142 25 142 25 241 25 c 0,12,13
 299 25 299 25 342 62.5 c 128,-1,14
 385 100 385 100 385 157 c 0,15,16
 385 185 385 185 364 207 c 2,17,-1
 197 385 l 2,18,19
 164 419 164 419 164 476 c 0,20,21
 164 565 164 565 228.5 632.5 c 128,-1,22
 293 700 293 700 392 700 c 0,23,24
 463 700 463 700 497.5 668 c 128,-1,25
 532 636 532 636 532 591 c 1,26,-1
 530 563 l 1,27,-1
 497 563 l 1,28,29
 498 569 498 569 498 576 c 0,30,31
 498 609 498 609 474 637 c 128,-1,32
 450 665 450 665 395.5 665 c 128,-1,33
 341 665 341 665 302 628 c 128,-1,34
 263 591 263 591 263 528 c 0,35,36
 263 493 263 493 285 470 c 2,37,-1
 457 286 l 2,38,39
 488 254 488 254 488 211 c 0,0,1
EndSplineSet
EndChar

StartChar: T
Encoding: 84 84 55
Width: 593
GlyphClass: 2
Flags: W
LayerCount: 2
Fore
SplineSet
585 563 m 0,0,1
 585 607 585 607 562 630 c 128,-1,2
 539 653 539 653 493 665 c 1,3,-1
 351 0 l 1,4,-1
 242 0 l 1,5,-1
 384 665 l 1,6,7
 319 650 319 650 284 618 c 0,8,9
 244 581 244 581 229 496 c 1,10,-1
 126 496 l 1,11,-1
 129 513 l 2,12,13
 162 700 162 700 445 700 c 0,14,15
 686 700 686 700 686 553 c 0,16,17
 686 536 686 536 679 496 c 1,18,-1
 575 496 l 1,19,20
 585 541 585 541 585 563 c 0,0,1
EndSplineSet
EndChar

StartChar: U
Encoding: 85 85 56
Width: 606
GlyphClass: 2
Flags: W
LayerCount: 2
Fore
SplineSet
377.5 28.5 m 128,-1,1
 328 -10 328 -10 259 -10 c 128,-1,2
 190 -10 190 -10 146.5 35.5 c 128,-1,3
 103 81 103 81 103 165 c 0,4,5
 103 202 103 202 112 247 c 2,6,-1
 206 690 l 1,7,-1
 314 690 l 1,8,-1
 209 197 l 2,9,10
 201 157 201 157 201 131 c 0,11,12
 201 25 201 25 294 25 c 0,13,14
 359 25 359 25 408 85.5 c 128,-1,15
 457 146 457 146 474 227 c 2,16,-1
 572 690 l 1,17,-1
 682 690 l 1,18,-1
 536 0 l 1,19,-1
 427 0 l 1,20,-1
 450 110 l 1,21,0
 427 67 427 67 377.5 28.5 c 128,-1,1
EndSplineSet
EndChar

StartChar: V
Encoding: 86 86 57
Width: 501
GlyphClass: 2
Flags: W
LayerCount: 2
Fore
SplineSet
625 690 m 1,0,-1
 306 0 l 1,1,-1
 183 0 l 1,2,-1
 168 690 l 1,3,-1
 280 690 l 1,4,-1
 293 77 l 1,5,-1
 575 690 l 1,6,-1
 625 690 l 1,0,-1
EndSplineSet
EndChar

StartChar: W
Encoding: 87 87 58
Width: 808
GlyphClass: 2
Flags: W
LayerCount: 2
Fore
SplineSet
475 690 m 1,0,-1
 525 690 l 1,1,-1
 529 590 l 1,2,-1
 575 690 l 1,3,-1
 625 690 l 1,4,-1
 532 491 l 1,5,-1
 547 77 l 1,6,-1
 821 690 l 1,7,-1
 933 690 l 1,8,-1
 625 0 l 1,9,-1
 502 0 l 1,10,-1
 487 392 l 1,11,-1
 306 0 l 1,12,-1
 183 0 l 1,13,-1
 168 690 l 1,14,-1
 280 690 l 1,15,-1
 293 77 l 1,16,-1
 483 491 l 1,17,-1
 475 690 l 1,0,-1
EndSplineSet
EndChar

StartChar: X
Encoding: 88 88 59
Width: 708
GlyphClass: 2
Flags: W
LayerCount: 2
Fore
SplineSet
623.5 42 m 128,-1,1
 559 -10 559 -10 480.5 -10 c 128,-1,2
 402 -10 402 -10 362 37 c 1,3,4
 298 -10 298 -10 226 -10 c 128,-1,5
 154 -10 154 -10 112.5 30 c 128,-1,6
 71 70 71 70 71 131 c 0,7,8
 71 151 71 151 78 179 c 1,9,-1
 158 179 l 1,10,11
 142 106 142 106 142 97 c 0,12,13
 142 66 142 66 162 45.5 c 128,-1,14
 182 25 182 25 218 25 c 128,-1,15
 254 25 254 25 284 50 c 128,-1,16
 314 75 314 75 324 119 c 2,17,-1
 420 571 l 2,18,19
 423 585 423 585 423 596 c 0,20,21
 423 629 423 629 403.5 647 c 128,-1,22
 384 665 384 665 348.5 665 c 128,-1,23
 313 665 313 665 281.5 638.5 c 128,-1,24
 250 612 250 612 242 575 c 2,25,-1
 228 511 l 1,26,-1
 148 511 l 1,27,-1
 151 523 l 2,28,29
 169 597 169 597 232 648.5 c 128,-1,30
 295 700 295 700 372 700 c 128,-1,31
 449 700 449 700 493 653 c 1,32,33
 553 700 553 700 626.5 700 c 128,-1,34
 700 700 700 700 741.5 660 c 128,-1,35
 783 620 783 620 783 559 c 0,36,37
 783 539 783 539 776 511 c 1,38,-1
 696 511 l 1,39,40
 712 584 712 584 712 593 c 0,41,42
 712 624 712 624 692 644.5 c 128,-1,43
 672 665 672 665 636 665 c 128,-1,44
 600 665 600 665 569.5 640 c 128,-1,45
 539 615 539 615 530 571 c 2,46,-1
 434 119 l 2,47,48
 431 106 431 106 431 93 c 0,49,50
 431 61 431 61 450.5 43 c 128,-1,51
 470 25 470 25 505.5 25 c 128,-1,52
 541 25 541 25 572.5 51.5 c 128,-1,53
 604 78 604 78 612 115 c 2,54,-1
 626 179 l 1,55,-1
 706 179 l 1,56,-1
 703 167 l 1,57,0
 688 94 688 94 623.5 42 c 128,-1,1
EndSplineSet
EndChar

StartChar: Y
Encoding: 89 89 60
Width: 565
GlyphClass: 2
Flags: W
LayerCount: 2
Fore
SplineSet
148 552 m 0,0,1
 148 581 148 581 154 611 c 2,2,-1
 171 690 l 1,3,-1
 280 690 l 1,4,-1
 248 538 l 2,5,6
 244 521 244 521 244 500 c 0,7,8
 244 447 244 447 276 414.5 c 128,-1,9
 308 382 308 382 368.5 382 c 128,-1,10
 429 382 429 382 479.5 426 c 128,-1,11
 530 470 530 470 544 538 c 2,12,-1
 576 690 l 1,13,-1
 686 690 l 1,14,-1
 669 611 l 2,15,16
 649 514 649 514 577.5 442.5 c 128,-1,17
 506 371 506 371 411 353 c 1,18,-1
 337 0 l 1,19,-1
 228 0 l 1,20,-1
 302 352 l 1,21,22
 230 368 230 368 189 422 c 128,-1,23
 148 476 148 476 148 552 c 0,0,1
EndSplineSet
EndChar

StartChar: Z
Encoding: 90 90 61
Width: 525
GlyphClass: 2
Flags: W
LayerCount: 2
Fore
SplineSet
495 0 m 1,0,-1
 30 0 l 1,1,-1
 482 643 l 1,2,-1
 174 643 l 1,3,-1
 184 690 l 1,4,-1
 625 690 l 1,5,-1
 172 47 l 1,6,-1
 504 47 l 1,7,-1
 495 0 l 1,0,-1
EndSplineSet
EndChar

StartChar: bracketleft
Encoding: 91 91 62
Width: 266
GlyphClass: 2
Flags: W
LayerCount: 2
Fore
SplineSet
143 -10 m 1,0,-1
 243 -10 l 1,1,-1
 233 -57 l 1,2,-1
 47 -57 l 1,3,-1
 206 690 l 1,4,-1
 392 690 l 1,5,-1
 382 643 l 1,6,-1
 282 643 l 1,7,-1
 143 -10 l 1,0,-1
EndSplineSet
EndChar

StartChar: backslash
Encoding: 92 92 63
Width: 357
GlyphClass: 2
Flags: W
LayerCount: 2
Fore
SplineSet
221 690 m 1,0,-1
 297 690 l 1,1,-1
 297 0 l 1,2,-1
 221 0 l 1,3,-1
 221 690 l 1,0,-1
EndSplineSet
EndChar

StartChar: bracketright
Encoding: 93 93 64
Width: 266
GlyphClass: 2
Flags: W
LayerCount: 2
Fore
SplineSet
17 -10 m 1,0,-1
 117 -10 l 1,1,-1
 256 643 l 1,2,-1
 156 643 l 1,3,-1
 166 690 l 1,4,-1
 352 690 l 1,5,-1
 193 -57 l 1,6,-1
 7 -57 l 1,7,-1
 17 -10 l 1,0,-1
EndSplineSet
EndChar

StartChar: asciicircum
Encoding: 94 94 65
Width: 566
GlyphClass: 2
Flags: W
LayerCount: 2
Fore
SplineSet
429 650 m 1,0,-1
 552 367 l 1,1,-1
 494 367 l 1,2,-1
 407 557 l 1,3,-1
 244 367 l 1,4,-1
 186 367 l 1,5,-1
 429 650 l 1,0,-1
EndSplineSet
EndChar

StartChar: underscore
Encoding: 95 95 66
Width: 500
GlyphClass: 2
Flags: W
LayerCount: 2
Fore
SplineSet
487 -60 m 1,0,-1
 -12 -60 l 1,1,-1
 -2 -10 l 1,2,-1
 497 -10 l 1,3,-1
 487 -60 l 1,0,-1
EndSplineSet
EndChar

StartChar: grave
Encoding: 96 96 67
Width: 243
GlyphClass: 2
Flags: W
LayerCount: 2
Fore
SplineSet
60 626 m 1,0,1
 49 637 49 637 49 651 c 128,-1,2
 49 665 49 665 62 677.5 c 128,-1,3
 75 690 75 690 92 690 c 128,-1,4
 109 690 109 690 118 674 c 2,5,-1
 192 539 l 1,6,-1
 175 526 l 1,7,-1
 60 626 l 1,0,1
EndSplineSet
EndChar

StartChar: a
Encoding: 97 97 68
Width: 444
GlyphClass: 2
Flags: W
LayerCount: 2
Fore
SplineSet
396 40 m 0,0,1
 417 40 417 40 435 72 c 1,2,-1
 453 69 l 1,3,4
 436 18 436 18 396 -2 c 0,5,6
 378 -10 378 -10 358 -10 c 0,7,8
 294 -10 294 -10 294 53 c 2,9,-1
 294 64 l 1,10,11
 250 -10 250 -10 178 -10 c 0,12,13
 129 -10 129 -10 102.5 19 c 128,-1,14
 76 48 76 48 76 100 c 0,15,16
 76 128 76 128 81 149 c 2,17,-1
 118 322 l 2,18,19
 133 394 133 394 178 437 c 128,-1,20
 223 480 223 480 283 480 c 0,21,22
 353 480 353 480 366 412 c 1,23,-1
 378 470 l 1,24,-1
 465 470 l 1,25,26
 379 65 379 65 379 59 c 0,27,28
 379 40 379 40 396 40 c 0,0,1
349 334 m 2,29,30
 353 350 353 350 353 377.5 c 128,-1,31
 353 405 353 405 337.5 427.5 c 128,-1,32
 322 450 322 450 291 450 c 0,33,34
 232 450 232 450 212 356 c 2,35,-1
 161 115 l 2,36,37
 156 88 156 88 156 73 c 0,38,39
 156 22 156 22 198 22 c 128,-1,40
 240 22 240 22 269.5 57 c 128,-1,41
 299 92 299 92 310 146 c 2,42,-1
 349 334 l 2,29,30
EndSplineSet
EndChar

StartChar: b
Encoding: 98 98 69
Width: 426
GlyphClass: 2
Flags: W
LayerCount: 2
Fore
SplineSet
347 33 m 128,-1,1
 302 -10 302 -10 237.5 -10 c 128,-1,2
 173 -10 173 -10 158 60 c 1,3,-1
 146 0 l 1,4,-1
 60 0 l 1,5,-1
 206 690 l 1,6,-1
 292 690 l 1,7,-1
 233 412 l 1,8,9
 277 480 277 480 347 480 c 0,10,11
 396 480 396 480 422.5 451 c 128,-1,12
 449 422 449 422 449 370 c 0,13,14
 449 343 449 343 444 322 c 2,15,-1
 407 149 l 2,16,0
 392 76 392 76 347 33 c 128,-1,1
368 399 m 0,17,18
 368 450 368 450 324 450 c 0,19,20
 285 450 285 450 255 414.5 c 128,-1,21
 225 379 225 379 216 334 c 2,22,-1
 175 137 l 2,23,24
 171 120 171 120 171 99 c 0,25,26
 171 22 171 22 235 22 c 0,27,28
 292 22 292 22 312 115 c 2,29,-1
 363 356 l 2,30,31
 368 383 368 383 368 399 c 0,17,18
EndSplineSet
EndChar

StartChar: c
Encoding: 99 99 70
Width: 350
GlyphClass: 2
Flags: W
LayerCount: 2
Fore
SplineSet
363 349 m 1,0,-1
 365 369 l 1,1,-1
 365 374 l 2,2,3
 365 450 365 450 305 450 c 0,4,5
 274 450 274 450 247.5 424.5 c 128,-1,6
 221 399 221 399 211 352 c 2,7,-1
 162 118 l 2,8,9
 158 96 158 96 158 75.5 c 128,-1,10
 158 55 158 55 173 37.5 c 128,-1,11
 188 20 188 20 215 20 c 0,12,13
 257 20 257 20 282 53.5 c 128,-1,14
 307 87 307 87 315 122 c 1,15,-1
 340 122 l 1,16,17
 331 78 331 78 294 34 c 128,-1,18
 257 -10 257 -10 197 -10 c 128,-1,19
 137 -10 137 -10 107 21.5 c 128,-1,20
 77 53 77 53 77 108 c 0,21,22
 77 132 77 132 83 157 c 2,23,-1
 116 313 l 2,24,25
 132 388 132 388 181.5 434 c 128,-1,26
 231 480 231 480 291 480 c 128,-1,27
 351 480 351 480 371.5 450 c 128,-1,28
 392 420 392 420 392 380 c 1,29,-1
 389 349 l 1,30,-1
 363 349 l 1,0,-1
EndSplineSet
EndChar

StartChar: d
Encoding: 100 100 71
Width: 426
GlyphClass: 2
Flags: W
LayerCount: 2
Fore
SplineSet
178 -10 m 0,0,1
 129 -10 129 -10 102.5 19 c 128,-1,2
 76 48 76 48 76 100 c 0,3,4
 76 128 76 128 81 149 c 2,5,-1
 118 322 l 2,6,7
 133 394 133 394 178 437 c 128,-1,8
 223 480 223 480 283 480 c 0,9,10
 353 480 353 480 366 412 c 1,11,-1
 425 690 l 1,12,-1
 512 690 l 1,13,-1
 366 0 l 1,14,-1
 279 0 l 1,15,-1
 291 60 l 1,16,17
 248 -10 248 -10 178 -10 c 0,0,1
349 334 m 2,18,19
 353 354 353 354 353 379.5 c 128,-1,20
 353 405 353 405 337.5 427.5 c 128,-1,21
 322 450 322 450 291 450 c 0,22,23
 232 450 232 450 212 356 c 2,24,-1
 161 115 l 2,25,26
 156 88 156 88 156 73 c 0,27,28
 156 22 156 22 198 22 c 128,-1,29
 240 22 240 22 269 55 c 128,-1,30
 298 88 298 88 308 137 c 2,31,-1
 349 334 l 2,18,19
EndSplineSet
EndChar

StartChar: e
Encoding: 101 101 72
Width: 381
GlyphClass: 2
Flags: W
LayerCount: 2
Fore
SplineSet
156 79 m 0,0,1
 156 20 156 20 220 20 c 0,2,3
 263 20 263 20 293 55 c 128,-1,4
 323 90 323 90 328 115 c 1,5,-1
 350 115 l 1,6,7
 344 83 344 83 311 41 c 0,8,9
 294 19 294 19 264.5 4.5 c 128,-1,10
 235 -10 235 -10 200 -10 c 0,11,12
 77 -10 77 -10 77 105 c 0,13,14
 77 130 77 130 83 157 c 2,15,-1
 116 314 l 2,16,17
 132 387 132 387 182 433.5 c 128,-1,18
 232 480 232 480 309 480 c 0,19,20
 409 480 409 480 409 372 c 0,21,22
 409 348 409 348 402 311 c 2,23,-1
 385 232 l 1,24,-1
 185 232 l 1,25,-1
 161 118 l 2,26,27
 156 95 156 95 156 79 c 0,0,1
358 390 m 0,28,29
 358 450 358 450 304 450 c 0,30,31
 232 450 232 450 211 353 c 2,32,-1
 191 262 l 1,33,-1
 334 262 l 1,34,-1
 354 353 l 2,35,36
 358 372 358 372 358 390 c 0,28,29
EndSplineSet
EndChar

StartChar: f
Encoding: 102 102 73
Width: 287
GlyphClass: 2
Flags: W
LayerCount: 2
Fore
SplineSet
372 606 m 0,0,1
 372 665 372 665 337 665 c 0,2,3
 315 665 315 665 303 645 c 128,-1,4
 291 625 291 625 282 587 c 2,5,-1
 221 300 l 1,6,-1
 306 300 l 1,7,-1
 300 270 l 1,8,-1
 215 270 l 1,9,-1
 158 0 l 1,10,-1
 73 0 l 1,11,-1
 130 270 l 1,12,-1
 97 270 l 1,13,-1
 103 300 l 1,14,-1
 136 300 l 1,15,-1
 191 557 l 2,16,17
 205 624 205 624 239.5 662 c 128,-1,18
 274 700 274 700 317 700 c 0,19,20
 377 700 377 700 385 644 c 1,21,-1
 402 720 l 1,22,-1
 425 720 l 1,23,-1
 381 515 l 1,24,-1
 358 515 l 1,25,26
 372 583 372 583 372 606 c 0,0,1
EndSplineSet
EndChar

StartChar: g
Encoding: 103 103 74
Width: 425
GlyphClass: 2
Flags: W
LayerCount: 2
Fore
SplineSet
63 -83 m 1,0,1
 88 -133 88 -133 148.5 -133 c 128,-1,2
 209 -133 209 -133 240 -88 c 0,3,4
 271 -42 271 -42 290 60 c 1,5,6
 249 -10 249 -10 178 -10 c 0,7,8
 129 -10 129 -10 102.5 19 c 128,-1,9
 76 48 76 48 76 100 c 0,10,11
 76 126 76 126 81 149 c 2,12,-1
 118 322 l 2,13,14
 134 395 134 395 178.5 437.5 c 128,-1,15
 223 480 223 480 283 480 c 0,16,17
 354 480 354 480 365 413 c 1,18,-1
 377 470 l 1,19,-1
 464 470 l 1,20,-1
 380 71 l 1,21,22
 328 -167 328 -167 152 -167 c 0,23,24
 112 -167 112 -167 85 -149.5 c 128,-1,25
 58 -132 58 -132 50 -114 c 2,26,-1
 43 -97 l 1,27,-1
 63 -83 l 1,0,1
348 334 m 2,28,29
 352 354 352 354 352 379.5 c 128,-1,30
 352 405 352 405 337 427.5 c 128,-1,31
 322 450 322 450 291 450 c 0,32,33
 232 450 232 450 212 357 c 2,34,-1
 161 116 l 2,35,36
 156 93 156 93 156 73 c 0,37,38
 156 22 156 22 198 22 c 128,-1,39
 240 22 240 22 268.5 55 c 128,-1,40
 297 88 297 88 307 137 c 2,41,-1
 348 334 l 2,28,29
EndSplineSet
EndChar

StartChar: h
Encoding: 104 104 75
Width: 453
GlyphClass: 2
Flags: W
LayerCount: 2
Fore
SplineSet
388 57 m 0,0,1
 388 40 388 40 407 40 c 128,-1,2
 426 40 426 40 444 72 c 1,3,-1
 462 69 l 1,4,5
 445 19 445 19 405 -2 c 0,6,7
 388 -10 388 -10 368 -10 c 0,8,9
 302 -10 302 -10 302 53 c 0,10,11
 302 65 302 65 306 89 c 1,12,-1
 363 356 l 2,13,14
 369 381 369 381 369 400 c 0,15,16
 369 450 369 450 324 450 c 0,17,18
 285 450 285 450 255.5 415 c 128,-1,19
 226 380 226 380 216 334 c 2,20,-1
 146 0 l 1,21,-1
 60 0 l 1,22,-1
 206 690 l 1,23,-1
 292 690 l 1,24,-1
 233 412 l 1,25,26
 277 480 277 480 347 480 c 0,27,28
 395 480 395 480 422 451.5 c 128,-1,29
 449 423 449 423 449 372 c 0,30,31
 449 349 449 349 443 322 c 0,32,33
 388 65 388 65 388 57 c 0,0,1
EndSplineSet
EndChar

StartChar: i
Encoding: 105 105 76
Width: 225
GlyphClass: 2
Flags: W
LayerCount: 2
Fore
SplineSet
272 677 m 128,-1,1
 281 664 281 664 281 638 c 128,-1,2
 281 612 281 612 262 583 c 128,-1,3
 243 554 243 554 220 554 c 0,4,5
 207 554 207 554 198.5 567.5 c 128,-1,6
 190 581 190 581 190 606.5 c 128,-1,7
 190 632 190 632 208.5 661 c 128,-1,8
 227 690 227 690 245 690 c 128,-1,0
 263 690 263 690 272 677 c 128,-1,1
159 57 m 0,9,10
 159 40 159 40 177.5 40 c 128,-1,11
 196 40 196 40 216 72 c 1,12,-1
 234 69 l 1,13,14
 217 18 217 18 176 -2 c 0,15,16
 159 -10 159 -10 139 -10 c 0,17,18
 74 -10 74 -10 74 54 c 0,19,20
 74 67 74 67 78 89 c 2,21,-1
 159 470 l 1,22,-1
 245 470 l 1,23,-1
 161 74 l 2,24,25
 159 64 159 64 159 57 c 0,9,10
EndSplineSet
EndChar

StartChar: j
Encoding: 106 106 77
Width: 220
GlyphClass: 2
Flags: W
LayerCount: 2
Fore
SplineSet
285.5 677 m 128,-1,1
 294 664 294 664 294 638 c 128,-1,2
 294 612 294 612 275 583 c 128,-1,3
 256 554 256 554 234 554 c 0,4,5
 204 554 204 554 204 600 c 0,6,7
 204 631 204 631 222 660.5 c 128,-1,8
 240 690 240 690 258.5 690 c 128,-1,0
 277 690 277 690 285.5 677 c 128,-1,1
33 -210 m 0,9,10
 -28 -210 -28 -210 -28 -140 c 2,11,-1
 -28 -132 l 1,12,-1
 -8 -128 l 1,13,14
 -6 -160 -6 -160 17 -160 c 128,-1,15
 40 -160 40 -160 47 -126 c 2,16,-1
 173 470 l 1,17,-1
 259 470 l 1,18,-1
 136 -111 l 2,19,20
 116 -210 116 -210 33 -210 c 0,9,10
EndSplineSet
EndChar

StartChar: k
Encoding: 107 107 78
Width: 371
GlyphClass: 2
Flags: W
LayerCount: 2
Fore
SplineSet
354 133 m 0,0,1
 354 119 354 119 351 104 c 2,2,-1
 329 0 l 1,3,-1
 252 0 l 1,4,-1
 281 140 l 2,5,6
 283 152 283 152 283 160 c 0,7,8
 283 193 283 193 259.5 212.5 c 128,-1,9
 236 232 236 232 195 233 c 1,10,-1
 146 0 l 1,11,-1
 60 0 l 1,12,-1
 206 690 l 1,13,-1
 292 690 l 1,14,-1
 206 285 l 1,15,-1
 392 470 l 1,16,-1
 430 470 l 1,17,-1
 218 259 l 1,18,19
 280 255 280 255 317 220 c 128,-1,20
 354 185 354 185 354 133 c 0,0,1
EndSplineSet
EndChar

StartChar: l
Encoding: 108 108 79
Width: 225
GlyphClass: 2
Flags: W
LayerCount: 2
Fore
SplineSet
159 57 m 0,0,1
 159 40 159 40 178.5 40 c 128,-1,2
 198 40 198 40 216 72 c 1,3,-1
 234 69 l 1,4,5
 217 18 217 18 176 -2 c 0,6,7
 159 -10 159 -10 138 -10 c 0,8,9
 74 -10 74 -10 74 53 c 0,10,11
 74 65 74 65 78 89 c 1,12,-1
 206 690 l 1,13,-1
 292 690 l 1,14,-1
 161 74 l 2,15,16
 159 62 159 62 159 57 c 0,0,1
EndSplineSet
EndChar

StartChar: m
Encoding: 109 109 80
Width: 682
GlyphClass: 2
Flags: W
LayerCount: 2
Fore
SplineSet
617 57 m 0,0,1
 617 40 617 40 636 40 c 128,-1,2
 655 40 655 40 673 72 c 1,3,-1
 691 69 l 1,4,5
 674 18 674 18 634 -2 c 0,6,7
 616 -10 616 -10 596 -10 c 0,8,9
 531 -10 531 -10 531 53 c 0,10,11
 531 65 531 65 535 89 c 1,12,-1
 592 356 l 2,13,14
 597 383 597 383 597 399 c 0,15,16
 597 450 597 450 553 450 c 0,17,18
 514 450 514 450 485 415 c 128,-1,19
 456 380 456 380 446 334 c 2,20,-1
 376 0 l 1,21,-1
 288 0 l 1,22,-1
 363 356 l 2,23,24
 369 381 369 381 369 400 c 0,25,26
 369 450 369 450 324 450 c 0,27,28
 285 450 285 450 255.5 415 c 128,-1,29
 226 380 226 380 216 334 c 2,30,-1
 146 0 l 1,31,-1
 60 0 l 1,32,-1
 159 470 l 1,33,-1
 245 470 l 1,34,-1
 233 412 l 1,35,36
 277 480 277 480 347 480 c 0,37,38
 392 480 392 480 418 455 c 128,-1,39
 444 430 444 430 447 385 c 1,40,41
 490 480 490 480 576 480 c 0,42,43
 624 480 624 480 651 451.5 c 128,-1,44
 678 423 678 423 678 372 c 0,45,46
 678 354 678 354 672 322 c 0,47,48
 617 65 617 65 617 57 c 0,0,1
EndSplineSet
EndChar

StartChar: n
Encoding: 110 110 81
Width: 453
GlyphClass: 2
Flags: W
LayerCount: 2
Fore
SplineSet
388 57 m 0,0,1
 388 40 388 40 407 40 c 128,-1,2
 426 40 426 40 444 72 c 1,3,-1
 462 69 l 1,4,5
 445 18 445 18 406 -2 c 1,6,7
 388 -10 388 -10 368 -10 c 0,8,9
 302 -10 302 -10 302 53 c 0,10,11
 302 65 302 65 306 89 c 1,12,-1
 363 356 l 2,13,14
 369 383 369 383 369 400 c 0,15,16
 369 450 369 450 324 450 c 0,17,18
 285 450 285 450 255.5 415 c 128,-1,19
 226 380 226 380 216 334 c 2,20,-1
 146 0 l 1,21,-1
 60 0 l 1,22,-1
 159 470 l 1,23,-1
 245 470 l 1,24,-1
 233 412 l 1,25,26
 277 480 277 480 347 480 c 0,27,28
 395 480 395 480 422 451.5 c 128,-1,29
 449 423 449 423 449 372 c 0,30,31
 449 354 449 354 443 322 c 0,32,33
 388 65 388 65 388 57 c 0,0,1
EndSplineSet
EndChar

StartChar: o
Encoding: 111 111 82
Width: 416
GlyphClass: 2
Flags: W
LayerCount: 2
Fore
SplineSet
437 359 m 0,0,1
 437 341 437 341 432 314 c 2,2,-1
 399 157 l 2,3,4
 383 84 383 84 331.5 37 c 128,-1,5
 280 -10 280 -10 211.5 -10 c 128,-1,6
 143 -10 143 -10 110.5 23.5 c 128,-1,7
 78 57 78 57 78 112 c 0,8,9
 78 130 78 130 83 157 c 2,10,-1
 116 314 l 2,11,12
 132 387 132 387 183.5 433.5 c 128,-1,13
 235 480 235 480 303.5 480 c 128,-1,14
 372 480 372 480 404.5 447 c 128,-1,15
 437 414 437 414 437 359 c 0,0,1
359 391 m 0,16,17
 359 450 359 450 303 450 c 0,18,19
 232 450 232 450 211 353 c 2,20,-1
 161 118 l 2,21,22
 156 96 156 96 156 80 c 0,23,24
 156 20 156 20 212 20 c 0,25,26
 283 20 283 20 304 118 c 2,27,-1
 354 353 l 2,28,29
 359 375 359 375 359 391 c 0,16,17
EndSplineSet
EndChar

StartChar: p
Encoding: 112 112 83
Width: 426
GlyphClass: 2
Flags: W
LayerCount: 2
Fore
SplineSet
347 33.5 m 128,-1,1
 302 -10 302 -10 237.5 -10 c 128,-1,2
 173 -10 173 -10 158 59 c 1,3,-1
 115 -145 l 1,4,-1
 29 -145 l 1,5,-1
 159 470 l 1,6,-1
 245 470 l 1,7,-1
 233 411 l 1,8,9
 277 480 277 480 347 480 c 0,10,11
 396 480 396 480 423 451 c 128,-1,12
 450 422 450 422 450 371 c 0,13,14
 450 350 450 350 444 322 c 2,15,-1
 407 149 l 2,16,0
 392 77 392 77 347 33.5 c 128,-1,1
368 399 m 0,17,18
 368 450 368 450 326.5 450 c 128,-1,19
 285 450 285 450 255.5 416.5 c 128,-1,20
 226 383 226 383 216 334 c 2,21,-1
 175 137 l 2,22,23
 171 121 171 121 171 94 c 128,-1,24
 171 67 171 67 186.5 44.5 c 128,-1,25
 202 22 202 22 233 22 c 0,26,27
 292 22 292 22 312 115 c 2,28,-1
 363 356 l 2,29,30
 368 381 368 381 368 399 c 0,17,18
EndSplineSet
EndChar

StartChar: q
Encoding: 113 113 84
Width: 426
GlyphClass: 2
Flags: W
LayerCount: 2
Fore
SplineSet
178 -10 m 0,0,1
 129 -10 129 -10 102.5 19.5 c 128,-1,2
 76 49 76 49 76 101 c 0,3,4
 76 128 76 128 81 149 c 2,5,-1
 118 322 l 2,6,7
 134 395 134 395 178.5 437.5 c 128,-1,8
 223 480 223 480 283 480 c 0,9,10
 353 480 353 480 366 411 c 1,11,-1
 378 470 l 1,12,-1
 465 470 l 1,13,-1
 335 -145 l 1,14,-1
 248 -145 l 1,15,-1
 291 59 l 1,16,17
 248 -10 248 -10 178 -10 c 0,0,1
349 334 m 2,18,19
 353 351 353 351 353 379.5 c 128,-1,20
 353 408 353 408 337.5 429 c 128,-1,21
 322 450 322 450 290 450 c 0,22,23
 233 450 233 450 212 356 c 1,24,-1
 161 115 l 2,25,26
 156 88 156 88 156 73 c 0,27,28
 156 22 156 22 200 22 c 0,29,30
 239 22 239 22 268 56 c 0,31,32
 303 97 303 97 309 145 c 1,33,-1
 349 334 l 2,18,19
EndSplineSet
EndChar

StartChar: r
Encoding: 114 114 85
Width: 346
GlyphClass: 2
Flags: W
LayerCount: 2
Fore
SplineSet
310 385 m 0,0,1
 310 444 310 444 240 444 c 1,2,-1
 146 0 l 1,3,-1
 60 0 l 1,4,-1
 159 470 l 1,5,-1
 245 470 l 2,6,7
 345 470 345 470 372 396 c 1,8,-1
 385 460 l 1,9,-1
 408 460 l 1,10,-1
 366 260 l 1,11,-1
 287 260 l 1,12,-1
 306 352 l 2,13,14
 310 368 310 368 310 385 c 0,0,1
EndSplineSet
EndChar

StartChar: s
Encoding: 115 115 86
Width: 356
GlyphClass: 2
Flags: W
LayerCount: 2
Fore
SplineSet
283 26.5 m 128,-1,1
 237 -10 237 -10 173 -10 c 128,-1,2
 109 -10 109 -10 85 16.5 c 128,-1,3
 61 43 61 43 61 82 c 0,4,5
 61 100 61 100 64 113 c 1,6,-1
 89 113 l 1,7,8
 86 94 86 94 86 87 c 0,9,10
 86 56 86 56 106.5 38 c 128,-1,11
 127 20 127 20 163 20 c 0,12,13
 244 20 244 20 259 90 c 0,14,15
 261 102 261 102 261 114.5 c 128,-1,16
 261 127 261 127 244 147 c 2,17,-1
 141 261 l 2,18,19
 114 290 114 290 114 331 c 0,20,21
 114 342 114 342 117 356 c 0,22,23
 129 411 129 411 173 445.5 c 128,-1,24
 217 480 217 480 270.5 480 c 128,-1,25
 324 480 324 480 346.5 456.5 c 128,-1,26
 369 433 369 433 369 396 c 0,27,28
 369 380 369 380 366 365 c 1,29,-1
 341 365 l 1,30,31
 344 386 344 386 344 391 c 0,32,33
 344 418 344 418 325.5 434 c 128,-1,34
 307 450 307 450 276 450 c 0,35,36
 206 450 206 450 193 387 c 0,37,38
 191 377 191 377 191 373 c 0,39,40
 191 350 191 350 210 328 c 2,41,-1
 319 207 l 2,42,43
 344 179 344 179 344 146 c 0,44,45
 344 134 344 134 341 119 c 0,46,0
 329 63 329 63 283 26.5 c 128,-1,1
EndSplineSet
EndChar

StartChar: t
Encoding: 116 116 87
Width: 254
GlyphClass: 2
Flags: W
LayerCount: 2
Fore
SplineSet
187 40 m 128,-1,1
 205 40 205 40 225 72 c 1,2,-1
 243 69 l 1,3,4
 226 18 226 18 186 -2 c 0,5,6
 168 -10 168 -10 148 -10 c 0,7,8
 83 -10 83 -10 83 54 c 0,9,10
 83 67 83 67 87 89 c 2,11,-1
 162 441 l 1,12,-1
 118 441 l 1,13,-1
 124 470 l 1,14,-1
 168 470 l 1,15,-1
 205 640 l 1,16,-1
 292 640 l 1,17,-1
 255 470 l 1,18,-1
 327 470 l 1,19,-1
 321 441 l 1,20,-1
 249 441 l 1,21,22
 169 63 169 63 169 56 c 0,23,0
 169 40 169 40 187 40 c 128,-1,1
EndSplineSet
EndChar

StartChar: u
Encoding: 117 117 88
Width: 444
GlyphClass: 2
Flags: W
LayerCount: 2
Fore
SplineSet
379 57 m 0,0,1
 379 40 379 40 398 40 c 128,-1,2
 417 40 417 40 435 72 c 1,3,-1
 453 68 l 1,4,5
 442 36 442 36 428 22 c 0,6,7
 396 -10 396 -10 358 -10 c 0,8,9
 294 -10 294 -10 294 53 c 2,10,-1
 294 64 l 1,11,12
 250 -10 250 -10 178 -10 c 0,13,14
 129 -10 129 -10 102.5 19 c 128,-1,15
 76 48 76 48 76 100 c 0,16,17
 76 125 76 125 81 149 c 2,18,-1
 149 470 l 1,19,-1
 236 470 l 1,20,-1
 161 115 l 2,21,22
 156 90 156 90 156 73 c 0,23,24
 156 22 156 22 198 22 c 128,-1,25
 240 22 240 22 269 55 c 128,-1,26
 298 88 298 88 308 137 c 2,27,-1
 378 470 l 1,28,-1
 465 470 l 1,29,-1
 381 74 l 2,30,31
 379 62 379 62 379 57 c 0,0,1
EndSplineSet
EndChar

StartChar: v
Encoding: 118 118 89
Width: 337
GlyphClass: 2
Flags: W
LayerCount: 2
Fore
SplineSet
431 470 m 1,0,-1
 208 0 l 1,1,-1
 121 0 l 1,2,-1
 104 470 l 1,3,-1
 190 470 l 1,4,-1
 205 62 l 1,5,-1
 399 470 l 1,6,-1
 431 470 l 1,0,-1
EndSplineSet
EndChar

StartChar: w
Encoding: 119 119 90
Width: 545
GlyphClass: 2
Flags: W
LayerCount: 2
Fore
SplineSet
639 470 m 1,0,-1
 425 0 l 1,1,-1
 338 0 l 1,2,-1
 324 246 l 1,3,-1
 208 0 l 1,4,-1
 121 0 l 1,5,-1
 104 470 l 1,6,-1
 190 470 l 1,7,-1
 205 62 l 1,8,-1
 322 307 l 1,9,-1
 312 470 l 1,10,-1
 344 470 l 1,11,-1
 350 368 l 1,12,-1
 399 470 l 1,13,-1
 431 470 l 1,14,-1
 354 307 l 1,15,-1
 366 62 l 1,16,-1
 552 470 l 1,17,-1
 639 470 l 1,0,-1
EndSplineSet
EndChar

StartChar: x
Encoding: 120 120 91
Width: 438
GlyphClass: 2
Flags: W
LayerCount: 2
Fore
SplineSet
387 24.5 m 128,-1,1
 351 -10 351 -10 301 -10 c 128,-1,2
 251 -10 251 -10 224 25 c 1,3,4
 181 -10 181 -10 134 -10 c 0,5,6
 43 -10 43 -10 43 91 c 0,7,8
 43 107 43 107 44 115 c 1,9,-1
 59 115 l 1,10,11
 58 109 58 109 58 96 c 0,12,13
 58 22 58 22 121 22 c 0,14,15
 179 22 179 22 199 115 c 2,16,-1
 250 355 l 2,17,18
 255 380 255 380 255 398 c 0,19,20
 255 450 255 450 212 450 c 0,21,22
 176 450 176 450 149.5 423.5 c 128,-1,23
 123 397 123 397 110 356 c 1,24,-1
 95 356 l 1,25,26
 112 411 112 411 148.5 445.5 c 128,-1,27
 185 480 185 480 236 480 c 128,-1,28
 287 480 287 480 313 446 c 1,29,30
 355 480 355 480 403 480 c 0,31,32
 494 480 494 480 494 376 c 0,33,34
 494 363 494 363 493 356 c 1,35,-1
 478 356 l 1,36,37
 479 362 479 362 479 373 c 0,38,39
 479 407 479 407 463 428.5 c 128,-1,40
 447 450 447 450 415 450 c 0,41,42
 357 450 357 450 337 355 c 2,43,-1
 286 115 l 2,44,45
 281 88 281 88 281 74 c 0,46,47
 281 22 281 22 324 22 c 0,48,49
 360 22 360 22 386.5 48 c 128,-1,50
 413 74 413 74 427 115 c 1,51,-1
 442 115 l 1,52,0
 423 59 423 59 387 24.5 c 128,-1,1
EndSplineSet
EndChar

StartChar: y
Encoding: 121 121 92
Width: 421
GlyphClass: 2
Flags: W
LayerCount: 2
Fore
SplineSet
112 394 m 0,0,1
 112 409 112 409 124 470 c 1,2,-1
 203 470 l 1,3,4
 184 378 184 378 184 369 c 0,5,6
 184 336 184 336 207.5 315.5 c 128,-1,7
 231 295 231 295 275 295 c 128,-1,8
 319 295 319 295 355 322 c 128,-1,9
 391 349 391 349 399 388 c 2,10,-1
 416 470 l 1,11,-1
 495 470 l 1,12,-1
 486 424 l 1,13,14
 474 368 474 368 425.5 326 c 128,-1,15
 377 284 377 284 311 273 c 1,16,-1
 253 0 l 1,17,-1
 167 0 l 1,18,-1
 225 273 l 1,19,20
 173 283 173 283 142.5 315.5 c 128,-1,21
 112 348 112 348 112 394 c 0,0,1
EndSplineSet
EndChar

StartChar: z
Encoding: 122 122 93
Width: 355
GlyphClass: 2
Flags: W
LayerCount: 2
Fore
SplineSet
424 470 m 1,0,-1
 135 30 l 1,1,-1
 319 30 l 1,2,-1
 313 0 l 1,3,-1
 30 0 l 1,4,-1
 319 440 l 1,5,-1
 134 440 l 1,6,-1
 140 470 l 1,7,-1
 424 470 l 1,0,-1
EndSplineSet
EndChar

StartChar: braceleft
Encoding: 123 123 94
Width: 376
GlyphClass: 2
Flags: W
LayerCount: 2
Fore
SplineSet
325 249 m 0,0,1
 325 224 325 224 308.5 150 c 128,-1,2
 292 76 292 76 292 46.5 c 128,-1,3
 292 17 292 17 307 3.5 c 128,-1,4
 322 -10 322 -10 353 -10 c 1,5,-1
 347 -40 l 1,6,7
 263 -40 263 -40 226 -17.5 c 128,-1,8
 189 5 189 5 189 69 c 0,9,10
 189 89 189 89 202 163.5 c 128,-1,11
 215 238 215 238 215 250 c 0,12,13
 215 338 215 338 131 338 c 1,14,-1
 138 368 l 1,15,16
 200 368 200 368 232 411 c 128,-1,17
 264 454 264 454 282 537 c 0,18,19
 308 655 308 655 357.5 692.5 c 128,-1,20
 407 730 407 730 511 730 c 1,21,-1
 504 700 l 1,22,23
 463 700 463 700 439.5 676 c 128,-1,24
 416 652 416 652 404 595 c 2,25,-1
 388 519 l 2,26,27
 360 387 360 387 257 353 c 1,28,29
 325 327 325 327 325 249 c 0,0,1
EndSplineSet
EndChar

StartChar: bar
Encoding: 124 124 95
Width: 206
GlyphClass: 2
Flags: W
LayerCount: 2
Fore
SplineSet
115 -145 m 1,0,-1
 29 -145 l 1,1,-1
 206 689 l 1,2,-1
 292 689 l 1,3,-1
 115 -145 l 1,0,-1
EndSplineSet
EndChar

StartChar: braceright
Encoding: 125 125 96
Width: 376
GlyphClass: 2
Flags: W
LayerCount: 2
Fore
SplineSet
201 458 m 0,0,1
 201 483 201 483 215.5 552.5 c 128,-1,2
 230 622 230 622 230 641 c 0,3,4
 230 700 230 700 168 700 c 1,5,-1
 175 730 l 1,6,7
 259 730 259 730 296 708 c 128,-1,8
 333 686 333 686 333 622 c 0,9,10
 333 602 333 602 322 538 c 128,-1,11
 311 474 311 474 311 455 c 0,12,13
 311 368 311 368 394 368 c 1,14,-1
 387 338 l 1,15,16
 325 338 325 338 292.5 293 c 128,-1,17
 260 248 260 248 236 142.5 c 128,-1,18
 212 37 212 37 163 -1.5 c 128,-1,19
 114 -40 114 -40 11 -40 c 1,20,-1
 17 -10 l 1,21,22
 58 -10 58 -10 82 14.5 c 128,-1,23
 106 39 106 39 118 95 c 2,24,-1
 137 187 l 1,25,26
 166 320 166 320 269 353 c 1,27,28
 201 379 201 379 201 458 c 0,0,1
EndSplineSet
EndChar

StartChar: asciitilde
Encoding: 126 126 97
Width: 346
GlyphClass: 2
Flags: W
LayerCount: 2
Fore
SplineSet
294 388 m 128,-1,1
 274 388 274 388 247.5 408 c 128,-1,2
 221 428 221 428 207 428 c 0,3,4
 178 428 178 428 149 408 c 1,5,-1
 139 420 l 1,6,7
 197 478 197 478 247 478 c 0,8,9
 262 478 262 478 287 461 c 128,-1,10
 312 444 312 444 334.5 444 c 128,-1,11
 357 444 357 444 379 458 c 1,12,-1
 390 444 l 1,13,14
 370 421 370 421 342 404.5 c 128,-1,0
 314 388 314 388 294 388 c 128,-1,1
EndSplineSet
EndChar

StartChar: exclamdown
Encoding: 161 161 98
Width: 219
GlyphClass: 2
Flags: W
LayerCount: 2
Fore
SplineSet
117 -130 m 128,-1,1
 98 -145 98 -145 80.5 -145 c 128,-1,2
 63 -145 63 -145 51 -133.5 c 128,-1,3
 39 -122 39 -122 39 -108.5 c 128,-1,4
 39 -95 39 -95 40 -91 c 2,5,-1
 176 401 l 1,6,-1
 213 401 l 1,7,-1
 139 -91 l 2,8,0
 136 -115 136 -115 117 -130 c 128,-1,1
253.5 553.5 m 128,-1,10
 263 542 263 542 263 521 c 128,-1,11
 263 500 263 500 246 479.5 c 128,-1,12
 229 459 229 459 210.5 459 c 128,-1,13
 192 459 192 459 182.5 470 c 128,-1,14
 173 481 173 481 173 502.5 c 128,-1,15
 173 524 173 524 190 544.5 c 128,-1,16
 207 565 207 565 225.5 565 c 128,-1,9
 244 565 244 565 253.5 553.5 c 128,-1,10
EndSplineSet
EndChar

StartChar: cent
Encoding: 162 162 99
Width: 385
GlyphClass: 2
Flags: W
LayerCount: 2
Fore
SplineSet
87 108 m 0,0,1
 87 132 87 132 93 157 c 2,2,-1
 126 313 l 2,3,4
 142 388 142 388 191.5 434 c 128,-1,5
 241 480 241 480 308 480 c 2,6,-1
 309 480 l 1,7,-1
 319 530 l 1,8,-1
 349 530 l 1,9,-1
 338 476 l 1,10,11
 402 460 402 460 402 379 c 0,12,13
 402 361 402 361 400 349 c 1,14,-1
 373 349 l 1,15,16
 375 360 375 360 375 373 c 0,17,18
 375 437 375 437 332 448 c 1,19,-1
 241 21 l 1,20,21
 275 28 275 28 296.5 60 c 128,-1,22
 318 92 318 92 324 122 c 1,23,-1
 350 122 l 1,24,25
 343 85 343 85 313.5 45 c 128,-1,26
 284 5 284 5 235 -6 c 1,27,-1
 224 -60 l 1,28,-1
 194 -60 l 1,29,-1
 204 -10 l 1,30,31
 147 -10 147 -10 117 21.5 c 128,-1,32
 87 53 87 53 87 108 c 0,0,1
168 84 m 0,33,34
 168 29 168 29 211 21 c 1,35,-1
 302 448 l 1,36,37
 240 437 240 437 221 352 c 1,38,-1
 172 118 l 2,39,40
 168 102 168 102 168 84 c 0,33,34
EndSplineSet
EndChar

StartChar: sterling
Encoding: 163 163 100
Width: 624
GlyphClass: 2
Flags: W
LayerCount: 2
Fore
SplineSet
498 700 m 0,0,1
 571 700 571 700 622.5 659 c 128,-1,2
 674 618 674 618 674 545 c 0,3,4
 674 532 674 532 667 486 c 1,5,-1
 581 486 l 1,6,7
 591 541 591 541 591 560 c 0,8,9
 591 609 591 609 566.5 637 c 128,-1,10
 542 665 542 665 484.5 665 c 128,-1,11
 427 665 427 665 385 622 c 128,-1,12
 343 579 343 579 328 508 c 2,13,-1
 294 347 l 1,14,-1
 504 347 l 1,15,-1
 494 300 l 1,16,-1
 284 300 l 1,17,-1
 230 47 l 1,18,-1
 555 47 l 1,19,-1
 546 0 l 1,20,-1
 60 0 l 1,21,-1
 69 47 l 1,22,-1
 121 47 l 1,23,-1
 175 300 l 1,24,-1
 123 300 l 1,25,-1
 133 347 l 1,26,-1
 185 347 l 1,27,-1
 204 436 l 2,28,29
 229 550 229 550 309 625 c 128,-1,30
 389 700 389 700 498 700 c 0,0,1
EndSplineSet
EndChar

StartChar: yen
Encoding: 165 165 101
Width: 635
GlyphClass: 2
Flags: W
LayerCount: 2
Fore
SplineSet
183 551 m 0,0,1
 183 580 183 580 189 611 c 2,2,-1
 206 690 l 1,3,-1
 315 690 l 1,4,-1
 283 538 l 2,5,6
 279 521 279 521 279 500 c 0,7,8
 279 447 279 447 311 414.5 c 128,-1,9
 343 382 343 382 403.5 382 c 128,-1,10
 464 382 464 382 514.5 426 c 128,-1,11
 565 470 565 470 579 538 c 2,12,-1
 611 690 l 1,13,-1
 721 690 l 1,14,-1
 704 611 l 2,15,16
 688 533 688 533 636.5 469.5 c 128,-1,17
 585 406 585 406 513 374 c 1,18,-1
 571 374 l 1,19,-1
 557 309 l 1,20,-1
 437 309 l 1,21,-1
 423 245 l 1,22,-1
 543 245 l 1,23,-1
 530 180 l 1,24,-1
 410 180 l 1,25,-1
 372 0 l 1,26,-1
 263 0 l 1,27,-1
 301 180 l 1,28,-1
 180 180 l 1,29,-1
 193 245 l 1,30,-1
 314 245 l 1,31,-1
 328 309 l 1,32,-1
 207 309 l 1,33,-1
 221 374 l 1,34,-1
 279 374 l 1,35,36
 183 429 183 429 183 551 c 0,0,1
EndSplineSet
EndChar

StartChar: section
Encoding: 167 167 102
Width: 451
GlyphClass: 2
Flags: W
LayerCount: 2
Fore
SplineSet
386 427 m 1,0,1
 411 401 411 401 411 362 c 128,-1,2
 411 323 411 323 386.5 285.5 c 128,-1,3
 362 248 362 248 320 228 c 1,4,-1
 339 207 l 1,5,6
 364 177 364 177 364 146 c 0,7,8
 364 81 364 81 314.5 35.5 c 128,-1,9
 265 -10 265 -10 186 -10 c 0,10,11
 129 -10 129 -10 105 16.5 c 128,-1,12
 81 43 81 43 81 82 c 0,13,14
 81 100 81 100 84 113 c 1,15,-1
 110 113 l 1,16,17
 106 96 106 96 106 87 c 0,18,19
 106 56 106 56 126.5 38 c 128,-1,20
 147 20 147 20 187 20 c 128,-1,21
 227 20 227 20 254 43.5 c 128,-1,22
 281 67 281 67 281 108 c 0,23,24
 281 127 281 127 264 147 c 2,25,-1
 161 261 l 2,26,27
 134 290 134 290 134 331 c 128,-1,28
 134 372 134 372 159.5 408.5 c 128,-1,29
 185 445 185 445 223 464 c 1,30,-1
 208 481 l 2,31,32
 181 512 181 512 181 550 c 0,33,34
 181 613 181 613 229 656.5 c 128,-1,35
 277 700 277 700 334 700 c 128,-1,36
 391 700 391 700 413.5 676 c 128,-1,37
 436 652 436 652 436 615 c 0,38,39
 436 600 436 600 433 585 c 1,40,-1
 407 585 l 1,41,42
 410 599 410 599 410 619 c 128,-1,43
 410 639 410 639 392 654.5 c 128,-1,44
 374 670 374 670 340.5 670 c 128,-1,45
 307 670 307 670 282.5 648.5 c 128,-1,46
 258 627 258 627 258 598.5 c 128,-1,47
 258 570 258 570 277 548 c 2,48,-1
 386 427 l 1,0,1
211 373 m 0,49,50
 211 350 211 350 230 328 c 2,51,-1
 293 258 l 1,52,53
 308 267 308 267 317.5 287.5 c 128,-1,54
 327 308 327 308 327 328 c 128,-1,55
 327 348 327 348 311 367 c 1,56,-1
 246 437 l 1,57,58
 211 415 211 415 211 373 c 0,49,50
EndSplineSet
EndChar

StartChar: dieresis
Encoding: 168 168 103
Width: 340
GlyphClass: 2
Flags: W
LayerCount: 2
Fore
SplineSet
413.5 664.5 m 128,-1,1
 423 653 423 653 423 631.5 c 128,-1,2
 423 610 423 610 405 589 c 128,-1,3
 387 568 387 568 369 568 c 128,-1,4
 351 568 351 568 341.5 579.5 c 128,-1,5
 332 591 332 591 332 612 c 128,-1,6
 332 633 332 633 349.5 654.5 c 128,-1,7
 367 676 367 676 385.5 676 c 128,-1,0
 404 676 404 676 413.5 664.5 c 128,-1,1
261.5 664.5 m 128,-1,9
 271 653 271 653 271 631.5 c 128,-1,10
 271 610 271 610 253 589 c 128,-1,11
 235 568 235 568 217 568 c 128,-1,12
 199 568 199 568 189.5 579.5 c 128,-1,13
 180 591 180 591 180 612 c 128,-1,14
 180 633 180 633 197.5 654.5 c 128,-1,15
 215 676 215 676 233.5 676 c 128,-1,8
 252 676 252 676 261.5 664.5 c 128,-1,9
EndSplineSet
EndChar

StartChar: copyright
Encoding: 169 169 104
Width: 776
GlyphClass: 2
Flags: W
LayerCount: 2
Fore
SplineSet
487 0 m 2,0,-1
 307 0 l 2,1,2
 212 0 212 0 164 49 c 128,-1,3
 116 98 116 98 116 186 c 0,4,5
 116 220 116 220 126 270 c 2,6,-1
 157 419 l 2,7,8
 183 544 183 544 259.5 617 c 128,-1,9
 336 690 336 690 452 690 c 2,10,-1
 632 690 l 2,11,12
 726 690 726 690 774 640.5 c 128,-1,13
 822 591 822 591 822 503 c 0,14,15
 822 464 822 464 813 419 c 2,16,-1
 782 270 l 2,17,18
 756 146 756 146 679.5 73 c 128,-1,19
 603 0 603 0 487 0 c 2,0,-1
720 498 m 2,20,21
 725 520 725 520 725 559 c 128,-1,22
 725 598 725 598 700.5 626.5 c 128,-1,23
 676 655 676 655 625 655 c 2,24,-1
 445 655 l 2,25,26
 381 655 381 655 339.5 612 c 128,-1,27
 298 569 298 569 283 498 c 2,28,-1
 219 192 l 2,29,30
 213 164 213 164 213 140 c 0,31,32
 213 91 213 91 238 63 c 128,-1,33
 263 35 263 35 314 35 c 2,34,-1
 494 35 l 2,35,36
 558 35 558 35 599.5 78 c 128,-1,37
 641 121 641 121 656 192 c 2,38,-1
 720 498 l 2,20,21
420 100 m 128,-1,40
 369 100 369 100 339 132.5 c 128,-1,41
 309 165 309 165 309 218 c 0,42,43
 309 236 309 236 314 261 c 2,44,-1
 347 414 l 2,45,46
 362 483 362 483 410.5 529 c 128,-1,47
 459 575 459 575 525 575 c 0,48,49
 570 575 570 575 601 550 c 128,-1,50
 632 525 632 525 632 480 c 0,51,52
 632 466 632 466 627 444 c 1,53,-1
 575 444 l 1,54,55
 582 479 582 479 582 490 c 0,56,57
 582 553 582 553 520 553 c 0,58,59
 443 553 443 553 422 458 c 2,60,-1
 371 217 l 2,61,62
 367 195 367 195 367 185 c 0,63,64
 367 122 367 122 429 122 c 0,65,66
 506 122 506 122 527 217 c 2,67,-1
 530 230 l 1,68,-1
 581 230 l 1,69,70
 570 164 570 164 520.5 132 c 128,-1,39
 471 100 471 100 420 100 c 128,-1,40
EndSplineSet
EndChar

StartChar: ordfeminine
Encoding: 170 170 105
Width: 315
GlyphClass: 2
Flags: W
LayerCount: 2
Fore
SplineSet
327 443 m 2,0,1
 327 435 327 435 337 435 c 128,-1,2
 347 435 347 435 355 451 c 1,3,-1
 365 450 l 1,4,5
 361 435 361 435 347.5 422.5 c 128,-1,6
 334 410 334 410 318 410 c 0,7,8
 285 410 285 410 285 443 c 2,9,-1
 285 447 l 1,10,11
 263 410 263 410 233 410 c 0,12,13
 176 410 176 410 176 465 c 0,14,15
 176 476 176 476 197 576 c 0,16,17
 204 612 204 612 227 633.5 c 128,-1,18
 250 655 250 655 282.5 655 c 128,-1,19
 315 655 315 655 321 621 c 1,20,-1
 328 650 l 1,21,-1
 371 650 l 1,22,-1
 327 445 l 1,23,-1
 327 443 l 2,0,1
315 599 m 0,24,25
 315 640 315 640 283 640 c 0,26,27
 254 640 254 640 244 593 c 0,28,29
 216 459 216 459 216 452 c 0,30,31
 216 426 216 426 237 426 c 128,-1,32
 258 426 258 426 272.5 443 c 128,-1,33
 287 460 287 460 292 484 c 0,34,35
 315 591 315 591 315 599 c 0,24,25
EndSplineSet
EndChar

StartChar: guillemotleft
Encoding: 171 171 106
Width: 435
GlyphClass: 2
Flags: W
LayerCount: 2
Fore
SplineSet
259 183 m 2,0,1
 261 179 261 179 261 175 c 128,-1,2
 261 171 261 171 250.5 163.5 c 128,-1,3
 240 156 240 156 234.5 156 c 128,-1,4
 229 156 229 156 226 159 c 2,5,-1
 117 302 l 2,6,7
 115 304 115 304 115 310.5 c 128,-1,8
 115 317 115 317 121 323 c 2,9,-1
 292 467 l 2,10,11
 295 470 295 470 300.5 470 c 128,-1,12
 306 470 306 470 312.5 464.5 c 128,-1,13
 319 459 319 459 319 453.5 c 128,-1,14
 319 448 319 448 317 446 c 2,15,-1
 199 313 l 1,16,-1
 259 183 l 2,0,1
420 183 m 2,17,18
 422 179 422 179 422 175 c 128,-1,19
 422 171 422 171 411.5 163.5 c 128,-1,20
 401 156 401 156 395.5 156 c 128,-1,21
 390 156 390 156 387 159 c 2,22,-1
 278 302 l 2,23,24
 276 304 276 304 276 310.5 c 128,-1,25
 276 317 276 317 282 323 c 2,26,-1
 453 467 l 2,27,28
 456 470 456 470 461.5 470 c 128,-1,29
 467 470 467 470 473.5 464.5 c 128,-1,30
 480 459 480 459 480 453.5 c 128,-1,31
 480 448 480 448 478 446 c 2,32,-1
 360 313 l 1,33,-1
 420 183 l 2,17,18
EndSplineSet
EndChar

StartChar: registered
Encoding: 174 174 107
Width: 776
GlyphClass: 2
Flags: W
LayerCount: 2
Fore
SplineSet
487 0 m 2,0,-1
 307 0 l 2,1,2
 212 0 212 0 164 49 c 128,-1,3
 116 98 116 98 116 186 c 0,4,5
 116 220 116 220 126 270 c 1,6,-1
 159 419 l 2,7,8
 187 544 187 544 262.5 617 c 128,-1,9
 338 690 338 690 454 690 c 2,10,-1
 634 690 l 2,11,12
 728 690 728 690 776 640.5 c 128,-1,13
 824 591 824 591 824 503 c 0,14,15
 824 464 824 464 815 419 c 2,16,-1
 782 270 l 1,17,18
 756 146 756 146 679.5 73 c 128,-1,19
 603 0 603 0 487 0 c 2,0,-1
722 498 m 2,20,21
 727 520 727 520 727 559 c 128,-1,22
 727 598 727 598 702.5 626.5 c 128,-1,23
 678 655 678 655 627 655 c 2,24,-1
 447 655 l 2,25,26
 383 655 383 655 341.5 612 c 128,-1,27
 300 569 300 569 285 498 c 2,28,-1
 219 192 l 2,29,30
 213 164 213 164 213 140 c 0,31,32
 213 91 213 91 238 63 c 128,-1,33
 263 35 263 35 314 35 c 2,34,-1
 494 35 l 2,35,36
 558 35 558 35 599.5 78 c 128,-1,37
 641 121 641 121 656 192 c 2,38,-1
 722 498 l 2,20,21
528 272 m 0,39,40
 528 340 528 340 458 340 c 0,41,42
 448 340 448 340 442 339 c 1,43,-1
 445 354 l 1,44,45
 502 356 502 356 536 397.5 c 128,-1,46
 570 439 570 439 570 490 c 0,47,48
 570 554 570 554 488 554 c 2,49,-1
 454 554 l 1,50,-1
 360 112 l 1,51,-1
 295 112 l 1,52,-1
 393 574 l 1,53,-1
 511 574 l 2,54,55
 633 574 633 574 633 488 c 0,56,57
 633 438 633 438 598 401 c 128,-1,58
 563 364 563 364 508 348 c 1,59,60
 588 332 588 332 588 255 c 0,61,62
 588 235 588 235 584 218 c 2,63,-1
 562 112 l 1,64,-1
 497 112 l 1,65,-1
 524 239 l 2,66,67
 528 255 528 255 528 272 c 0,39,40
EndSplineSet
EndChar

StartChar: macron
Encoding: 175 175 108
Width: 322
GlyphClass: 2
Flags: W
LayerCount: 2
Fore
SplineSet
408 640 m 1,0,-1
 186 640 l 1,1,-1
 196 690 l 1,2,-1
 418 690 l 1,3,-1
 408 640 l 1,0,-1
EndSplineSet
EndChar

StartChar: degree
Encoding: 176 176 109
Width: 375
GlyphClass: 2
Flags: W
LayerCount: 2
Fore
SplineSet
451 598 m 0,0,1
 451 530 451 530 403 481 c 128,-1,2
 355 432 355 432 292 432 c 0,3,4
 245 432 245 432 217 460 c 128,-1,5
 189 488 189 488 189 534 c 0,6,7
 189 601 189 601 238 650.5 c 128,-1,8
 287 700 287 700 349 700 c 0,9,10
 395 700 395 700 423 672 c 128,-1,11
 451 644 451 644 451 598 c 0,0,1
368 513.5 m 128,-1,13
 397 544 397 544 397 578 c 128,-1,14
 397 612 397 612 380.5 630.5 c 128,-1,15
 364 649 364 649 333 649 c 128,-1,16
 302 649 302 649 272 617.5 c 128,-1,17
 242 586 242 586 242 552 c 128,-1,18
 242 518 242 518 259 500.5 c 128,-1,19
 276 483 276 483 307.5 483 c 128,-1,12
 339 483 339 483 368 513.5 c 128,-1,13
EndSplineSet
EndChar

StartChar: acute
Encoding: 180 180 110
Width: 243
GlyphClass: 2
Flags: W
LayerCount: 2
Fore
SplineSet
124 674 m 2,0,1
 133 690 133 690 149.5 690 c 128,-1,2
 166 690 166 690 179.5 677.5 c 128,-1,3
 193 665 193 665 193 650.5 c 128,-1,4
 193 636 193 636 182 627 c 2,5,-1
 67 527 l 1,6,-1
 50 539 l 1,7,-1
 124 674 l 2,0,1
EndSplineSet
EndChar

StartChar: paragraph
Encoding: 182 182 111
Width: 537
GlyphClass: 2
Flags: W
LayerCount: 2
Fore
SplineSet
488 660 m 1,0,-1
 396 230 l 1,1,-1
 448 230 l 1,2,-1
 540 660 l 1,3,-1
 488 660 l 1,0,-1
348 661 m 2,4,5
 276 661 276 661 255 563 c 2,6,-1
 205 328 l 2,7,8
 200 306 200 306 200 290 c 0,9,10
 200 230 200 230 256 230 c 2,11,-1
 307 230 l 1,12,-1
 399 661 l 1,13,-1
 348 661 l 2,4,5
250 200 m 2,14,15
 188 200 188 200 155.5 233.5 c 128,-1,16
 123 267 123 267 123 322 c 0,17,18
 123 340 123 340 128 367 c 2,19,-1
 161 524 l 2,20,21
 177 597 177 597 228 643.5 c 128,-1,22
 279 690 279 690 354 690 c 2,23,-1
 633 690 l 1,24,-1
 487 0 l 1,25,-1
 400 0 l 1,26,-1
 442 200 l 1,27,-1
 390 200 l 1,28,-1
 348 0 l 1,29,-1
 259 0 l 1,30,-1
 301 200 l 1,31,-1
 250 200 l 2,14,15
EndSplineSet
EndChar

StartChar: periodcentered
Encoding: 183 183 112
Width: 128
GlyphClass: 2
Flags: W
LayerCount: 2
Fore
SplineSet
151.5 288.5 m 128,-1,1
 161 277 161 277 161 256 c 128,-1,2
 161 235 161 235 144 214.5 c 128,-1,3
 127 194 127 194 108.5 194 c 128,-1,4
 90 194 90 194 80.5 205.5 c 128,-1,5
 71 217 71 217 71 238 c 128,-1,6
 71 259 71 259 88 279.5 c 128,-1,7
 105 300 105 300 123.5 300 c 128,-1,0
 142 300 142 300 151.5 288.5 c 128,-1,1
EndSplineSet
EndChar

StartChar: cedilla
Encoding: 184 184 113
Width: 204
GlyphClass: 2
Flags: W
LayerCount: 2
Fore
SplineSet
154 0 m 1,0,1
 136 -77 136 -77 31 -148 c 1,2,-1
 20 -138 l 1,3,4
 39 -119 39 -119 54 -89 c 0,5,6
 68 -61 68 -61 84 0 c 1,7,-1
 154 0 l 1,0,1
EndSplineSet
EndChar

StartChar: ordmasculine
Encoding: 186 186 114
Width: 278
GlyphClass: 2
Flags: W
LayerCount: 2
Fore
SplineSet
304 433.5 m 128,-1,1
 279 410 279 410 244.5 410 c 128,-1,2
 210 410 210 410 193.5 427 c 128,-1,3
 177 444 177 444 177 472 c 0,4,5
 177 482 177 482 179 494 c 2,6,-1
 196 572 l 2,7,8
 204 608 204 608 230 631.5 c 128,-1,9
 256 655 256 655 290 655 c 128,-1,10
 324 655 324 655 340.5 638.5 c 128,-1,11
 357 622 357 622 357 603 c 128,-1,12
 357 584 357 584 354 572 c 2,13,-1
 337 494 l 2,14,0
 329 457 329 457 304 433.5 c 128,-1,1
317 611 m 0,15,16
 317 640 317 640 289 640 c 0,17,18
 254 640 254 640 243 592 c 0,19,20
 216 465 216 465 216 456 c 0,21,22
 216 425 216 425 244 425 c 0,23,24
 281 425 281 425 290 474 c 1,25,26
 317 601 317 601 317 611 c 0,15,16
EndSplineSet
EndChar

StartChar: guillemotright
Encoding: 187 187 115
Width: 435
GlyphClass: 2
Flags: W
LayerCount: 2
Fore
SplineSet
307 447 m 2,0,1
 306 449 306 449 306 452.5 c 128,-1,2
 306 456 306 456 316 463 c 128,-1,3
 326 470 326 470 332 470 c 128,-1,4
 338 470 338 470 341 467 c 2,5,-1
 450 323 l 2,6,7
 452 321 452 321 452 314.5 c 128,-1,8
 452 308 452 308 446 302 c 2,9,-1
 275 159 l 2,10,11
 272 156 272 156 265.5 156 c 128,-1,12
 259 156 259 156 253.5 163 c 128,-1,13
 248 170 248 170 248 174 c 128,-1,14
 248 178 248 178 250 180 c 2,15,-1
 368 313 l 1,16,-1
 307 447 l 2,0,1
146 447 m 2,17,18
 145 449 145 449 145 452.5 c 128,-1,19
 145 456 145 456 155 463 c 128,-1,20
 165 470 165 470 171 470 c 128,-1,21
 177 470 177 470 180 467 c 2,22,-1
 289 323 l 2,23,24
 291 321 291 321 291 314.5 c 128,-1,25
 291 308 291 308 285 302 c 2,26,-1
 114 159 l 2,27,28
 111 156 111 156 104.5 156 c 128,-1,29
 98 156 98 156 92.5 163 c 128,-1,30
 87 170 87 170 87 174 c 128,-1,31
 87 178 87 178 89 180 c 2,32,-1
 207 313 l 1,33,-1
 146 447 l 2,17,18
EndSplineSet
EndChar

StartChar: questiondown
Encoding: 191 191 116
Width: 447
GlyphClass: 2
Flags: W
LayerCount: 2
Fore
SplineSet
329 -93.5 m 128,-1,1
 269 -145 269 -145 195 -145 c 128,-1,2
 121 -145 121 -145 86 -109 c 128,-1,3
 51 -73 51 -73 51 -15 c 0,4,5
 51 4 51 4 59 47 c 0,6,7
 73 119 73 119 154 202 c 2,8,-1
 292 341 l 2,9,10
 315 365 315 365 321 391 c 1,11,-1
 325 413 l 1,12,-1
 370 413 l 1,13,-1
 365 390 l 2,14,15
 358 354 358 354 338 325.5 c 128,-1,16
 318 297 318 297 218 153 c 1,17,18
 179 100 179 100 164.5 34 c 128,-1,19
 150 -32 150 -32 150 -49 c 0,20,21
 150 -110 150 -110 213 -110 c 0,22,23
 249 -110 249 -110 276.5 -84.5 c 128,-1,24
 304 -59 304 -59 312 -21 c 2,25,-1
 327 48 l 1,26,-1
 406 48 l 1,27,-1
 403 32 l 2,28,0
 389 -42 389 -42 329 -93.5 c 128,-1,1
405 553.5 m 128,-1,30
 414 542 414 542 414 521 c 128,-1,31
 414 500 414 500 397 479.5 c 128,-1,32
 380 459 380 459 361.5 459 c 128,-1,33
 343 459 343 459 333.5 470.5 c 128,-1,34
 324 482 324 482 324 503 c 128,-1,35
 324 524 324 524 341.5 544.5 c 128,-1,36
 359 565 359 565 377.5 565 c 128,-1,29
 396 565 396 565 405 553.5 c 128,-1,30
EndSplineSet
EndChar

StartChar: Agrave
Encoding: 192 192 117
Width: 606
GlyphClass: 2
Flags: W
LayerCount: 2
Fore
SplineSet
377.5 28.5 m 128,-1,1
 328 -10 328 -10 259 -10 c 128,-1,2
 190 -10 190 -10 146.5 35.5 c 128,-1,3
 103 81 103 81 103 165 c 0,4,5
 103 202 103 202 112 247 c 2,6,-1
 154 446 l 2,7,8
 180 569 180 569 257.5 634.5 c 128,-1,9
 335 700 335 700 421 700 c 0,10,11
 457 700 457 700 483.5 685 c 128,-1,12
 510 670 510 670 523 648 c 0,13,14
 544 611 544 611 549 575 c 1,15,-1
 573 690 l 1,16,-1
 682 690 l 1,17,-1
 536 0 l 1,18,-1
 427 0 l 1,19,-1
 450 110 l 1,20,0
 427 67 427 67 377.5 28.5 c 128,-1,1
531 522 m 0,21,22
 531 582 531 582 504 623.5 c 128,-1,23
 477 665 477 665 424 665 c 0,24,25
 394 665 394 665 368.5 651.5 c 128,-1,26
 343 638 343 638 327.5 619.5 c 128,-1,27
 312 601 312 601 300 575 c 1,28,29
 282 540 282 540 273 497 c 2,30,-1
 209 197 l 2,31,32
 201 157 201 157 201 131 c 0,33,34
 201 25 201 25 294 25 c 0,35,36
 359 25 359 25 408 85.5 c 128,-1,37
 457 146 457 146 474 227 c 2,38,-1
 525 468 l 2,39,40
 531 495 531 495 531 522 c 0,21,22
344 858 m 1,41,42
 333 869 333 869 333 883 c 128,-1,43
 333 897 333 897 346 909.5 c 128,-1,44
 359 922 359 922 376 922 c 128,-1,45
 393 922 393 922 402 906 c 2,46,-1
 476 771 l 1,47,-1
 459 758 l 1,48,-1
 344 858 l 1,41,42
EndSplineSet
EndChar

StartChar: Aacute
Encoding: 193 193 118
Width: 606
GlyphClass: 2
Flags: W
LayerCount: 2
Fore
SplineSet
377.5 28.5 m 128,-1,1
 328 -10 328 -10 259 -10 c 128,-1,2
 190 -10 190 -10 146.5 35.5 c 128,-1,3
 103 81 103 81 103 165 c 0,4,5
 103 202 103 202 112 247 c 2,6,-1
 154 446 l 2,7,8
 180 569 180 569 257.5 634.5 c 128,-1,9
 335 700 335 700 421 700 c 0,10,11
 457 700 457 700 483.5 685 c 128,-1,12
 510 670 510 670 523 648 c 0,13,14
 544 611 544 611 549 575 c 1,15,-1
 573 690 l 1,16,-1
 682 690 l 1,17,-1
 536 0 l 1,18,-1
 427 0 l 1,19,-1
 450 110 l 1,20,0
 427 67 427 67 377.5 28.5 c 128,-1,1
531 522 m 0,21,22
 531 582 531 582 504 623.5 c 128,-1,23
 477 665 477 665 424 665 c 0,24,25
 394 665 394 665 368.5 651.5 c 128,-1,26
 343 638 343 638 327.5 619.5 c 128,-1,27
 312 601 312 601 300 575 c 1,28,29
 282 540 282 540 273 497 c 2,30,-1
 209 197 l 2,31,32
 201 157 201 157 201 131 c 0,33,34
 201 25 201 25 294 25 c 0,35,36
 359 25 359 25 408 85.5 c 128,-1,37
 457 146 457 146 474 227 c 2,38,-1
 525 468 l 2,39,40
 531 495 531 495 531 522 c 0,21,22
497 904 m 2,41,42
 506 920 506 920 522.5 920 c 128,-1,43
 539 920 539 920 552.5 907.5 c 128,-1,44
 566 895 566 895 566 880.5 c 128,-1,45
 566 866 566 866 555 857 c 2,46,-1
 440 757 l 1,47,-1
 423 769 l 1,48,-1
 497 904 l 2,41,42
EndSplineSet
EndChar

StartChar: Acircumflex
Encoding: 194 194 119
Width: 606
GlyphClass: 2
Flags: W
LayerCount: 2
Fore
SplineSet
377.5 28.5 m 128,-1,1
 328 -10 328 -10 259 -10 c 128,-1,2
 190 -10 190 -10 146.5 35.5 c 128,-1,3
 103 81 103 81 103 165 c 0,4,5
 103 202 103 202 112 247 c 2,6,-1
 154 446 l 2,7,8
 180 569 180 569 257.5 634.5 c 128,-1,9
 335 700 335 700 421 700 c 0,10,11
 457 700 457 700 483.5 685 c 128,-1,12
 510 670 510 670 523 648 c 0,13,14
 544 611 544 611 549 575 c 1,15,-1
 573 690 l 1,16,-1
 682 690 l 1,17,-1
 536 0 l 1,18,-1
 427 0 l 1,19,-1
 450 110 l 1,20,0
 427 67 427 67 377.5 28.5 c 128,-1,1
531 522 m 0,21,22
 531 582 531 582 504 623.5 c 128,-1,23
 477 665 477 665 424 665 c 0,24,25
 394 665 394 665 368.5 651.5 c 128,-1,26
 343 638 343 638 327.5 619.5 c 128,-1,27
 312 601 312 601 300 575 c 1,28,29
 282 540 282 540 273 497 c 2,30,-1
 209 197 l 2,31,32
 201 157 201 157 201 131 c 0,33,34
 201 25 201 25 294 25 c 0,35,36
 359 25 359 25 408 85.5 c 128,-1,37
 457 146 457 146 474 227 c 2,38,-1
 525 468 l 2,39,40
 531 495 531 495 531 522 c 0,21,22
458 893 m 1,41,42
 469 910 469 910 488.5 910 c 128,-1,43
 508 910 508 910 516 893 c 1,44,-1
 564 767 l 1,45,-1
 550 757 l 1,46,-1
 479 854 l 1,47,-1
 366 757 l 1,48,-1
 356 767 l 1,49,-1
 458 893 l 1,41,42
EndSplineSet
EndChar

StartChar: Atilde
Encoding: 195 195 120
Width: 606
GlyphClass: 2
Flags: W
LayerCount: 2
Fore
SplineSet
377.5 28.5 m 128,-1,1
 328 -10 328 -10 259 -10 c 128,-1,2
 190 -10 190 -10 146.5 35.5 c 128,-1,3
 103 81 103 81 103 165 c 0,4,5
 103 202 103 202 112 247 c 2,6,-1
 154 446 l 2,7,8
 180 569 180 569 257.5 634.5 c 128,-1,9
 335 700 335 700 421 700 c 0,10,11
 457 700 457 700 483.5 685 c 128,-1,12
 510 670 510 670 523 648 c 0,13,14
 544 611 544 611 549 575 c 1,15,-1
 573 690 l 1,16,-1
 682 690 l 1,17,-1
 536 0 l 1,18,-1
 427 0 l 1,19,-1
 450 110 l 1,20,0
 427 67 427 67 377.5 28.5 c 128,-1,1
531 522 m 0,21,22
 531 582 531 582 504 623.5 c 128,-1,23
 477 665 477 665 424 665 c 0,24,25
 394 665 394 665 368.5 651.5 c 128,-1,26
 343 638 343 638 327.5 619.5 c 128,-1,27
 312 601 312 601 300 575 c 1,28,29
 282 540 282 540 273 497 c 2,30,-1
 209 197 l 2,31,32
 201 157 201 157 201 131 c 0,33,34
 201 25 201 25 294 25 c 0,35,36
 359 25 359 25 408 85.5 c 128,-1,37
 457 146 457 146 474 227 c 2,38,-1
 525 468 l 2,39,40
 531 495 531 495 531 522 c 0,21,22
517 761 m 128,-1,42
 495 761 495 761 458 779.5 c 128,-1,43
 421 798 421 798 405 798 c 0,44,45
 374 798 374 798 345 769 c 1,46,-1
 332 780 l 1,47,48
 387 844 387 844 441 844 c 0,49,50
 458 844 458 844 489.5 827.5 c 128,-1,51
 521 811 521 811 545 811 c 128,-1,52
 569 811 569 811 591 825 c 1,53,-1
 592 826 l 1,54,-1
 604 816 l 1,55,56
 586 791 586 791 562.5 776 c 128,-1,41
 539 761 539 761 517 761 c 128,-1,42
EndSplineSet
EndChar

StartChar: Adieresis
Encoding: 196 196 121
Width: 606
GlyphClass: 2
Flags: W
LayerCount: 2
Fore
SplineSet
377.5 28.5 m 128,-1,1
 328 -10 328 -10 259 -10 c 128,-1,2
 190 -10 190 -10 146.5 35.5 c 128,-1,3
 103 81 103 81 103 165 c 0,4,5
 103 202 103 202 112 247 c 2,6,-1
 154 446 l 2,7,8
 180 569 180 569 257.5 634.5 c 128,-1,9
 335 700 335 700 421 700 c 0,10,11
 457 700 457 700 483.5 685 c 128,-1,12
 510 670 510 670 523 648 c 0,13,14
 544 611 544 611 549 575 c 1,15,-1
 573 690 l 1,16,-1
 682 690 l 1,17,-1
 536 0 l 1,18,-1
 427 0 l 1,19,-1
 450 110 l 1,20,0
 427 67 427 67 377.5 28.5 c 128,-1,1
531 522 m 0,21,22
 531 582 531 582 504 623.5 c 128,-1,23
 477 665 477 665 424 665 c 0,24,25
 394 665 394 665 368.5 651.5 c 128,-1,26
 343 638 343 638 327.5 619.5 c 128,-1,27
 312 601 312 601 300 575 c 1,28,29
 282 540 282 540 273 497 c 2,30,-1
 209 197 l 2,31,32
 201 157 201 157 201 131 c 0,33,34
 201 25 201 25 294 25 c 0,35,36
 359 25 359 25 408 85.5 c 128,-1,37
 457 146 457 146 474 227 c 2,38,-1
 525 468 l 2,39,40
 531 495 531 495 531 522 c 0,21,22
578.5 854.5 m 128,-1,42
 588 843 588 843 588 821.5 c 128,-1,43
 588 800 588 800 570 779 c 128,-1,44
 552 758 552 758 534 758 c 128,-1,45
 516 758 516 758 506.5 769.5 c 128,-1,46
 497 781 497 781 497 802.5 c 128,-1,47
 497 824 497 824 514.5 845 c 128,-1,48
 532 866 532 866 550.5 866 c 128,-1,41
 569 866 569 866 578.5 854.5 c 128,-1,42
426.5 854.5 m 128,-1,50
 436 843 436 843 436 821.5 c 128,-1,51
 436 800 436 800 418 779 c 128,-1,52
 400 758 400 758 382 758 c 128,-1,53
 364 758 364 758 354.5 769.5 c 128,-1,54
 345 781 345 781 345 802.5 c 128,-1,55
 345 824 345 824 362.5 845 c 128,-1,56
 380 866 380 866 398.5 866 c 128,-1,49
 417 866 417 866 426.5 854.5 c 128,-1,50
EndSplineSet
EndChar

StartChar: Aring
Encoding: 197 197 122
Width: 606
GlyphClass: 2
Flags: W
LayerCount: 2
Fore
SplineSet
377.5 28.5 m 128,-1,1
 328 -10 328 -10 259 -10 c 128,-1,2
 190 -10 190 -10 146.5 35.5 c 128,-1,3
 103 81 103 81 103 165 c 0,4,5
 103 202 103 202 112 247 c 2,6,-1
 154 446 l 2,7,8
 180 569 180 569 257.5 634.5 c 128,-1,9
 335 700 335 700 421 700 c 0,10,11
 457 700 457 700 483.5 685 c 128,-1,12
 510 670 510 670 523 648 c 0,13,14
 544 611 544 611 549 575 c 1,15,-1
 573 690 l 1,16,-1
 682 690 l 1,17,-1
 536 0 l 1,18,-1
 427 0 l 1,19,-1
 450 110 l 1,20,0
 427 67 427 67 377.5 28.5 c 128,-1,1
531 522 m 0,21,22
 531 582 531 582 504 623.5 c 128,-1,23
 477 665 477 665 424 665 c 0,24,25
 394 665 394 665 368.5 651.5 c 128,-1,26
 343 638 343 638 327.5 619.5 c 128,-1,27
 312 601 312 601 300 575 c 1,28,29
 282 540 282 540 273 497 c 2,30,-1
 209 197 l 2,31,32
 201 157 201 157 201 131 c 0,33,34
 201 25 201 25 294 25 c 0,35,36
 359 25 359 25 408 85.5 c 128,-1,37
 457 146 457 146 474 227 c 2,38,-1
 525 468 l 2,39,40
 531 495 531 495 531 522 c 0,21,22
515.5 776.5 m 128,-1,42
 495 758 495 758 472 758 c 128,-1,43
 449 758 449 758 436 771.5 c 128,-1,44
 423 785 423 785 423 799 c 128,-1,45
 423 813 423 813 427 833.5 c 128,-1,46
 431 854 431 854 452 873 c 128,-1,47
 473 892 473 892 496 892 c 128,-1,48
 519 892 519 892 532 878 c 128,-1,49
 545 864 545 864 545 850.5 c 128,-1,50
 545 837 545 837 540.5 816 c 128,-1,41
 536 795 536 795 515.5 776.5 c 128,-1,42
502 794.5 m 128,-1,52
 515 807 515 807 517.5 818 c 128,-1,53
 520 829 520 829 520 839 c 128,-1,54
 520 849 520 849 512.5 858 c 128,-1,55
 505 867 505 867 492 867 c 128,-1,56
 479 867 479 867 466 854 c 0,57,58
 448 837 448 837 448 819 c 0,59,60
 448 782 448 782 475 782 c 0,61,51
 489 782 489 782 502 794.5 c 128,-1,52
EndSplineSet
EndChar

StartChar: Ccedilla
Encoding: 199 199 123
Width: 562
GlyphClass: 2
Flags: W
LayerCount: 2
Fore
SplineSet
105 183 m 0,0,1
 105 214 105 214 113 254 c 2,2,-1
 152 436 l 2,3,4
 177 550 177 550 257 625 c 128,-1,5
 337 700 337 700 446 700 c 0,6,7
 519 700 519 700 570.5 659 c 128,-1,8
 622 618 622 618 622 545 c 0,9,10
 622 520 622 520 615 486 c 1,11,-1
 529 486 l 1,12,13
 539 532 539 532 539 559 c 0,14,15
 539 608 539 608 514.5 636.5 c 128,-1,16
 490 665 490 665 432.5 665 c 128,-1,17
 375 665 375 665 333.5 622 c 128,-1,18
 292 579 292 579 277 509 c 2,19,-1
 207 182 l 2,20,21
 201 155 201 155 201 130 c 0,22,23
 201 81 201 81 226.5 53 c 128,-1,24
 252 25 252 25 303 25 c 0,25,26
 431 25 431 25 469 204 c 1,27,-1
 555 204 l 1,28,29
 541 133 541 133 502 87 c 0,30,31
 434 8 434 8 333 -7 c 1,32,33
 319 -71 319 -71 291 -109.5 c 128,-1,34
 263 -148 263 -148 203 -188 c 1,35,-1
 193 -178 l 1,36,37
 212 -159 212 -159 228 -124 c 1,38,39
 244 -86 244 -86 262 -8 c 1,40,41
 186 2 186 2 145.5 53.5 c 128,-1,42
 105 105 105 105 105 183 c 0,0,1
EndSplineSet
EndChar

StartChar: Egrave
Encoding: 200 200 124
Width: 567
GlyphClass: 2
Flags: W
LayerCount: 2
Fore
SplineSet
295 -10 m 0,0,1
 204 -10 204 -10 154.5 43.5 c 128,-1,2
 105 97 105 97 105 184 c 0,3,4
 105 216 105 216 113 254 c 2,5,-1
 152 436 l 2,6,7
 177 550 177 550 257 625 c 128,-1,8
 337 700 337 700 446 700 c 0,9,10
 519 700 519 700 570.5 659 c 128,-1,11
 622 618 622 618 622 545 c 0,12,13
 622 520 622 520 615 486 c 1,14,-1
 529 486 l 1,15,16
 539 541 539 541 539 560 c 0,17,18
 539 609 539 609 514.5 637 c 128,-1,19
 490 665 490 665 432.5 665 c 128,-1,20
 375 665 375 665 333 622 c 128,-1,21
 291 579 291 579 276 508 c 2,22,-1
 251 388 l 1,23,-1
 515 388 l 1,24,-1
 505 341 l 1,25,-1
 241 341 l 1,26,-1
 207 182 l 2,27,28
 201 155 201 155 201 130 c 0,29,30
 201 81 201 81 226.5 53 c 128,-1,31
 252 25 252 25 309 25 c 128,-1,32
 366 25 366 25 407 68 c 128,-1,33
 448 111 448 111 464 182 c 2,34,-1
 469 204 l 1,35,-1
 555 204 l 1,36,37
 539 124 539 124 491 75 c 0,38,39
 406 -10 406 -10 295 -10 c 0,0,1
360 858 m 1,40,41
 349 869 349 869 349 883 c 128,-1,42
 349 897 349 897 362 909.5 c 128,-1,43
 375 922 375 922 392 922 c 128,-1,44
 409 922 409 922 418 906 c 2,45,-1
 492 771 l 1,46,-1
 475 758 l 1,47,-1
 360 858 l 1,40,41
EndSplineSet
EndChar

StartChar: Eacute
Encoding: 201 201 125
Width: 567
GlyphClass: 2
Flags: W
LayerCount: 2
Fore
SplineSet
295 -10 m 0,0,1
 204 -10 204 -10 154.5 43.5 c 128,-1,2
 105 97 105 97 105 184 c 0,3,4
 105 216 105 216 113 254 c 2,5,-1
 152 436 l 2,6,7
 177 550 177 550 257 625 c 128,-1,8
 337 700 337 700 446 700 c 0,9,10
 519 700 519 700 570.5 659 c 128,-1,11
 622 618 622 618 622 545 c 0,12,13
 622 520 622 520 615 486 c 1,14,-1
 529 486 l 1,15,16
 539 541 539 541 539 560 c 0,17,18
 539 609 539 609 514.5 637 c 128,-1,19
 490 665 490 665 432.5 665 c 128,-1,20
 375 665 375 665 333 622 c 128,-1,21
 291 579 291 579 276 508 c 2,22,-1
 251 388 l 1,23,-1
 515 388 l 1,24,-1
 505 341 l 1,25,-1
 241 341 l 1,26,-1
 207 182 l 2,27,28
 201 155 201 155 201 130 c 0,29,30
 201 81 201 81 226.5 53 c 128,-1,31
 252 25 252 25 309 25 c 128,-1,32
 366 25 366 25 407 68 c 128,-1,33
 448 111 448 111 464 182 c 2,34,-1
 469 204 l 1,35,-1
 555 204 l 1,36,37
 539 124 539 124 491 75 c 0,38,39
 406 -10 406 -10 295 -10 c 0,0,1
504 906 m 2,40,41
 513 922 513 922 529.5 922 c 128,-1,42
 546 922 546 922 559.5 909.5 c 128,-1,43
 573 897 573 897 573 882.5 c 128,-1,44
 573 868 573 868 562 859 c 2,45,-1
 447 759 l 1,46,-1
 430 771 l 1,47,-1
 504 906 l 2,40,41
EndSplineSet
EndChar

StartChar: Ecircumflex
Encoding: 202 202 126
Width: 567
GlyphClass: 2
Flags: W
LayerCount: 2
Fore
SplineSet
295 -10 m 0,0,1
 204 -10 204 -10 154.5 43.5 c 128,-1,2
 105 97 105 97 105 184 c 0,3,4
 105 216 105 216 113 254 c 2,5,-1
 152 436 l 2,6,7
 177 550 177 550 257 625 c 128,-1,8
 337 700 337 700 446 700 c 0,9,10
 519 700 519 700 570.5 659 c 128,-1,11
 622 618 622 618 622 545 c 0,12,13
 622 520 622 520 615 486 c 1,14,-1
 529 486 l 1,15,16
 539 541 539 541 539 560 c 0,17,18
 539 609 539 609 514.5 637 c 128,-1,19
 490 665 490 665 432.5 665 c 128,-1,20
 375 665 375 665 333 622 c 128,-1,21
 291 579 291 579 276 508 c 2,22,-1
 251 388 l 1,23,-1
 515 388 l 1,24,-1
 505 341 l 1,25,-1
 241 341 l 1,26,-1
 207 182 l 2,27,28
 201 155 201 155 201 130 c 0,29,30
 201 81 201 81 226.5 53 c 128,-1,31
 252 25 252 25 309 25 c 128,-1,32
 366 25 366 25 407 68 c 128,-1,33
 448 111 448 111 464 182 c 2,34,-1
 469 204 l 1,35,-1
 555 204 l 1,36,37
 539 124 539 124 491 75 c 0,38,39
 406 -10 406 -10 295 -10 c 0,0,1
483 898 m 1,40,41
 494 915 494 915 513.5 915 c 128,-1,42
 533 915 533 915 541 898 c 1,43,-1
 589 772 l 1,44,-1
 575 762 l 1,45,-1
 504 859 l 1,46,-1
 391 762 l 1,47,-1
 381 772 l 1,48,-1
 483 898 l 1,40,41
EndSplineSet
EndChar

StartChar: Edieresis
Encoding: 203 203 127
Width: 567
GlyphClass: 2
Flags: W
LayerCount: 2
Fore
SplineSet
295 -10 m 0,0,1
 204 -10 204 -10 154.5 43.5 c 128,-1,2
 105 97 105 97 105 184 c 0,3,4
 105 216 105 216 113 254 c 2,5,-1
 152 436 l 2,6,7
 177 550 177 550 257 625 c 128,-1,8
 337 700 337 700 446 700 c 0,9,10
 519 700 519 700 570.5 659 c 128,-1,11
 622 618 622 618 622 545 c 0,12,13
 622 520 622 520 615 486 c 1,14,-1
 529 486 l 1,15,16
 539 541 539 541 539 560 c 0,17,18
 539 609 539 609 514.5 637 c 128,-1,19
 490 665 490 665 432.5 665 c 128,-1,20
 375 665 375 665 333 622 c 128,-1,21
 291 579 291 579 276 508 c 2,22,-1
 251 388 l 1,23,-1
 515 388 l 1,24,-1
 505 341 l 1,25,-1
 241 341 l 1,26,-1
 207 182 l 2,27,28
 201 155 201 155 201 130 c 0,29,30
 201 81 201 81 226.5 53 c 128,-1,31
 252 25 252 25 309 25 c 128,-1,32
 366 25 366 25 407 68 c 128,-1,33
 448 111 448 111 464 182 c 2,34,-1
 469 204 l 1,35,-1
 555 204 l 1,36,37
 539 124 539 124 491 75 c 0,38,39
 406 -10 406 -10 295 -10 c 0,0,1
586.5 854.5 m 128,-1,41
 596 843 596 843 596 821.5 c 128,-1,42
 596 800 596 800 578 779 c 128,-1,43
 560 758 560 758 542 758 c 128,-1,44
 524 758 524 758 514.5 769.5 c 128,-1,45
 505 781 505 781 505 802.5 c 128,-1,46
 505 824 505 824 522.5 845 c 128,-1,47
 540 866 540 866 558.5 866 c 128,-1,40
 577 866 577 866 586.5 854.5 c 128,-1,41
434.5 854.5 m 128,-1,49
 444 843 444 843 444 821.5 c 128,-1,50
 444 800 444 800 426 779 c 128,-1,51
 408 758 408 758 390 758 c 128,-1,52
 372 758 372 758 362.5 769.5 c 128,-1,53
 353 781 353 781 353 802.5 c 128,-1,54
 353 824 353 824 370.5 845 c 128,-1,55
 388 866 388 866 406.5 866 c 128,-1,48
 425 866 425 866 434.5 854.5 c 128,-1,49
EndSplineSet
EndChar

StartChar: Igrave
Encoding: 204 204 128
Width: 249
GlyphClass: 2
Flags: W
LayerCount: 2
Fore
SplineSet
179 0 m 1,0,-1
 70 0 l 1,1,-1
 216 690 l 1,2,-1
 325 690 l 1,3,-1
 179 0 l 1,0,-1
204 855 m 1,4,5
 193 866 193 866 193 880 c 128,-1,6
 193 894 193 894 206 906.5 c 128,-1,7
 219 919 219 919 236 919 c 128,-1,8
 253 919 253 919 262 903 c 2,9,-1
 336 768 l 1,10,-1
 319 755 l 1,11,-1
 204 855 l 1,4,5
EndSplineSet
EndChar

StartChar: Iacute
Encoding: 205 205 129
Width: 249
GlyphClass: 2
Flags: W
LayerCount: 2
Fore
SplineSet
179 0 m 1,0,-1
 70 0 l 1,1,-1
 216 690 l 1,2,-1
 325 690 l 1,3,-1
 179 0 l 1,0,-1
322 903 m 2,4,5
 331 919 331 919 347.5 919 c 128,-1,6
 364 919 364 919 377.5 906.5 c 128,-1,7
 391 894 391 894 391 879.5 c 128,-1,8
 391 865 391 865 380 856 c 2,9,-1
 265 756 l 1,10,-1
 248 768 l 1,11,-1
 322 903 l 2,4,5
EndSplineSet
EndChar

StartChar: Icircumflex
Encoding: 206 206 130
Width: 249
GlyphClass: 2
Flags: W
LayerCount: 2
Fore
SplineSet
179 0 m 1,0,-1
 70 0 l 1,1,-1
 216 690 l 1,2,-1
 325 690 l 1,3,-1
 179 0 l 1,0,-1
285 895 m 1,4,5
 296 912 296 912 315.5 912 c 128,-1,6
 335 912 335 912 343 895 c 1,7,-1
 391 769 l 1,8,-1
 377 759 l 1,9,-1
 306 856 l 1,10,-1
 193 759 l 1,11,-1
 183 769 l 1,12,-1
 285 895 l 1,4,5
EndSplineSet
EndChar

StartChar: Idieresis
Encoding: 207 207 131
Width: 249
GlyphClass: 2
Flags: W
LayerCount: 2
Fore
SplineSet
179 0 m 1,0,-1
 70 0 l 1,1,-1
 216 690 l 1,2,-1
 325 690 l 1,3,-1
 179 0 l 1,0,-1
409.5 853.5 m 128,-1,5
 419 842 419 842 419 820.5 c 128,-1,6
 419 799 419 799 401 778 c 128,-1,7
 383 757 383 757 365 757 c 128,-1,8
 347 757 347 757 337.5 768.5 c 128,-1,9
 328 780 328 780 328 801.5 c 128,-1,10
 328 823 328 823 345.5 844 c 128,-1,11
 363 865 363 865 381.5 865 c 128,-1,4
 400 865 400 865 409.5 853.5 c 128,-1,5
257.5 853.5 m 128,-1,13
 267 842 267 842 267 820.5 c 128,-1,14
 267 799 267 799 249 778 c 128,-1,15
 231 757 231 757 213 757 c 128,-1,16
 195 757 195 757 185.5 768.5 c 128,-1,17
 176 780 176 780 176 801.5 c 128,-1,18
 176 823 176 823 193.5 844 c 128,-1,19
 211 865 211 865 229.5 865 c 128,-1,12
 248 865 248 865 257.5 853.5 c 128,-1,13
EndSplineSet
EndChar

StartChar: Eth
Encoding: 208 208 132
Width: 577
GlyphClass: 2
Flags: W
LayerCount: 2
Fore
SplineSet
262 0 m 2,0,-1
 71 0 l 1,1,-1
 148 364 l 1,2,-1
 77 364 l 1,3,-1
 91 429 l 1,4,-1
 162 429 l 1,5,-1
 217 690 l 1,6,-1
 408 690 l 2,7,8
 503 690 503 690 558 634 c 128,-1,9
 613 578 613 578 613 487 c 0,10,11
 613 453 613 453 606 421 c 2,12,-1
 574 269 l 2,13,14
 549 152 549 152 461.5 76 c 128,-1,15
 374 0 374 0 262 0 c 2,0,-1
232 34 m 2,16,17
 318 34 318 34 377.5 82.5 c 128,-1,18
 437 131 437 131 456 222 c 2,19,-1
 508 468 l 2,20,21
 514 498 514 498 514 522 c 0,22,23
 514 587 514 587 474.5 621.5 c 128,-1,24
 435 656 435 656 364 656 c 2,25,-1
 318 656 l 1,26,-1
 270 429 l 1,27,-1
 394 429 l 1,28,-1
 380 364 l 1,29,-1
 256 364 l 1,30,-1
 186 34 l 1,31,-1
 232 34 l 2,16,17
EndSplineSet
EndChar

StartChar: Ntilde
Encoding: 209 209 133
Width: 606
GlyphClass: 2
Flags: W
LayerCount: 2
Fore
SplineSet
549 565 m 0,0,1
 549 665 549 665 464 665 c 0,2,3
 400 665 400 665 346.5 604.5 c 128,-1,4
 293 544 293 544 276 464 c 2,5,-1
 178 0 l 1,6,-1
 70 0 l 1,7,-1
 216 690 l 1,8,-1
 324 690 l 1,9,-1
 300 575 l 1,10,11
 333 634 333 634 381 667 c 128,-1,12
 429 700 429 700 481 700 c 0,13,14
 554 700 554 700 601 653 c 128,-1,15
 648 606 648 606 648 520 c 0,16,17
 648 487 648 487 640 447 c 2,18,-1
 546 0 l 1,19,-1
 436 0 l 1,20,-1
 541 498 l 2,21,22
 549 536 549 536 549 565 c 0,0,1
547 761 m 128,-1,24
 525 761 525 761 488 779.5 c 128,-1,25
 451 798 451 798 435 798 c 0,26,27
 404 798 404 798 375 769 c 1,28,-1
 362 780 l 1,29,30
 417 844 417 844 471 844 c 0,31,32
 488 844 488 844 519.5 827.5 c 128,-1,33
 551 811 551 811 575 811 c 128,-1,34
 599 811 599 811 621 825 c 1,35,-1
 622 826 l 1,36,-1
 634 816 l 1,37,38
 616 791 616 791 592.5 776 c 128,-1,23
 569 761 569 761 547 761 c 128,-1,24
EndSplineSet
EndChar

StartChar: Ograve
Encoding: 210 210 134
Width: 596
GlyphClass: 2
Flags: W
LayerCount: 2
Fore
SplineSet
295 -10 m 0,0,1
 201 -10 201 -10 153 39 c 128,-1,2
 105 88 105 88 105 175 c 0,3,4
 105 210 105 210 115 260 c 2,5,-1
 151 429 l 2,6,7
 177 554 177 554 253.5 627 c 128,-1,8
 330 700 330 700 446 700 c 0,9,10
 540 700 540 700 588 650.5 c 128,-1,11
 636 601 636 601 636 513 c 0,12,13
 636 470 636 470 627 429 c 2,14,-1
 591 260 l 2,15,16
 565 136 565 136 488 63 c 128,-1,17
 411 -10 411 -10 295 -10 c 0,0,1
539 560 m 0,18,19
 539 609 539 609 514.5 637 c 128,-1,20
 490 665 490 665 432.5 665 c 128,-1,21
 375 665 375 665 333 621.5 c 128,-1,22
 291 578 291 578 276 508 c 2,23,-1
 207 182 l 2,24,25
 201 155 201 155 201 130 c 0,26,27
 201 81 201 81 226.5 53 c 128,-1,28
 252 25 252 25 309 25 c 128,-1,29
 366 25 366 25 407.5 68 c 128,-1,30
 449 111 449 111 464 182 c 2,31,-1
 533 508 l 2,32,33
 539 535 539 535 539 560 c 0,18,19
367 858 m 1,34,35
 356 869 356 869 356 883 c 128,-1,36
 356 897 356 897 369 909.5 c 128,-1,37
 382 922 382 922 399 922 c 128,-1,38
 416 922 416 922 425 906 c 2,39,-1
 499 771 l 1,40,-1
 482 758 l 1,41,-1
 367 858 l 1,34,35
EndSplineSet
EndChar

StartChar: Oacute
Encoding: 211 211 135
Width: 596
GlyphClass: 2
Flags: W
LayerCount: 2
Fore
SplineSet
295 -10 m 0,0,1
 201 -10 201 -10 153 39 c 128,-1,2
 105 88 105 88 105 175 c 0,3,4
 105 210 105 210 115 260 c 2,5,-1
 151 429 l 2,6,7
 177 554 177 554 253.5 627 c 128,-1,8
 330 700 330 700 446 700 c 0,9,10
 540 700 540 700 588 650.5 c 128,-1,11
 636 601 636 601 636 513 c 0,12,13
 636 470 636 470 627 429 c 2,14,-1
 591 260 l 2,15,16
 565 136 565 136 488 63 c 128,-1,17
 411 -10 411 -10 295 -10 c 0,0,1
539 560 m 0,18,19
 539 609 539 609 514.5 637 c 128,-1,20
 490 665 490 665 432.5 665 c 128,-1,21
 375 665 375 665 333 621.5 c 128,-1,22
 291 578 291 578 276 508 c 2,23,-1
 207 182 l 2,24,25
 201 155 201 155 201 130 c 0,26,27
 201 81 201 81 226.5 53 c 128,-1,28
 252 25 252 25 309 25 c 128,-1,29
 366 25 366 25 407.5 68 c 128,-1,30
 449 111 449 111 464 182 c 2,31,-1
 533 508 l 2,32,33
 539 535 539 535 539 560 c 0,18,19
530 906 m 2,34,35
 539 922 539 922 555.5 922 c 128,-1,36
 572 922 572 922 585.5 909.5 c 128,-1,37
 599 897 599 897 599 882.5 c 128,-1,38
 599 868 599 868 588 859 c 2,39,-1
 473 759 l 1,40,-1
 456 771 l 1,41,-1
 530 906 l 2,34,35
EndSplineSet
EndChar

StartChar: Ocircumflex
Encoding: 212 212 136
Width: 596
GlyphClass: 2
Flags: W
LayerCount: 2
Fore
SplineSet
295 -10 m 0,0,1
 201 -10 201 -10 153 39 c 128,-1,2
 105 88 105 88 105 175 c 0,3,4
 105 210 105 210 115 260 c 2,5,-1
 151 429 l 2,6,7
 177 554 177 554 253.5 627 c 128,-1,8
 330 700 330 700 446 700 c 0,9,10
 540 700 540 700 588 650.5 c 128,-1,11
 636 601 636 601 636 513 c 0,12,13
 636 470 636 470 627 429 c 2,14,-1
 591 260 l 2,15,16
 565 136 565 136 488 63 c 128,-1,17
 411 -10 411 -10 295 -10 c 0,0,1
539 560 m 0,18,19
 539 609 539 609 514.5 637 c 128,-1,20
 490 665 490 665 432.5 665 c 128,-1,21
 375 665 375 665 333 621.5 c 128,-1,22
 291 578 291 578 276 508 c 2,23,-1
 207 182 l 2,24,25
 201 155 201 155 201 130 c 0,26,27
 201 81 201 81 226.5 53 c 128,-1,28
 252 25 252 25 309 25 c 128,-1,29
 366 25 366 25 407.5 68 c 128,-1,30
 449 111 449 111 464 182 c 2,31,-1
 533 508 l 2,32,33
 539 535 539 535 539 560 c 0,18,19
478 893 m 1,34,35
 489 910 489 910 508.5 910 c 128,-1,36
 528 910 528 910 536 893 c 1,37,-1
 584 767 l 1,38,-1
 570 757 l 1,39,-1
 499 854 l 1,40,-1
 386 757 l 1,41,-1
 376 767 l 1,42,-1
 478 893 l 1,34,35
EndSplineSet
EndChar

StartChar: Otilde
Encoding: 213 213 137
Width: 596
GlyphClass: 2
Flags: W
LayerCount: 2
Fore
SplineSet
295 -10 m 0,0,1
 201 -10 201 -10 153 39 c 128,-1,2
 105 88 105 88 105 175 c 0,3,4
 105 210 105 210 115 260 c 2,5,-1
 151 429 l 2,6,7
 177 554 177 554 253.5 627 c 128,-1,8
 330 700 330 700 446 700 c 0,9,10
 540 700 540 700 588 650.5 c 128,-1,11
 636 601 636 601 636 513 c 0,12,13
 636 470 636 470 627 429 c 2,14,-1
 591 260 l 2,15,16
 565 136 565 136 488 63 c 128,-1,17
 411 -10 411 -10 295 -10 c 0,0,1
539 560 m 0,18,19
 539 609 539 609 514.5 637 c 128,-1,20
 490 665 490 665 432.5 665 c 128,-1,21
 375 665 375 665 333 621.5 c 128,-1,22
 291 578 291 578 276 508 c 2,23,-1
 207 182 l 2,24,25
 201 155 201 155 201 130 c 0,26,27
 201 81 201 81 226.5 53 c 128,-1,28
 252 25 252 25 309 25 c 128,-1,29
 366 25 366 25 407.5 68 c 128,-1,30
 449 111 449 111 464 182 c 2,31,-1
 533 508 l 2,32,33
 539 535 539 535 539 560 c 0,18,19
522 761 m 128,-1,35
 500 761 500 761 463 779.5 c 128,-1,36
 426 798 426 798 410 798 c 0,37,38
 379 798 379 798 350 769 c 1,39,-1
 337 780 l 1,40,41
 392 844 392 844 446 844 c 0,42,43
 463 844 463 844 494.5 827.5 c 128,-1,44
 526 811 526 811 550 811 c 128,-1,45
 574 811 574 811 596 825 c 1,46,-1
 597 826 l 1,47,-1
 609 816 l 1,48,49
 591 791 591 791 567.5 776 c 128,-1,34
 544 761 544 761 522 761 c 128,-1,35
EndSplineSet
EndChar

StartChar: Odieresis
Encoding: 214 214 138
Width: 596
GlyphClass: 2
Flags: W
LayerCount: 2
Fore
SplineSet
295 -10 m 0,0,1
 201 -10 201 -10 153 39 c 128,-1,2
 105 88 105 88 105 175 c 0,3,4
 105 210 105 210 115 260 c 2,5,-1
 151 429 l 2,6,7
 177 554 177 554 253.5 627 c 128,-1,8
 330 700 330 700 446 700 c 0,9,10
 540 700 540 700 588 650.5 c 128,-1,11
 636 601 636 601 636 513 c 0,12,13
 636 470 636 470 627 429 c 2,14,-1
 591 260 l 2,15,16
 565 136 565 136 488 63 c 128,-1,17
 411 -10 411 -10 295 -10 c 0,0,1
539 560 m 0,18,19
 539 609 539 609 514.5 637 c 128,-1,20
 490 665 490 665 432.5 665 c 128,-1,21
 375 665 375 665 333 621.5 c 128,-1,22
 291 578 291 578 276 508 c 2,23,-1
 207 182 l 2,24,25
 201 155 201 155 201 130 c 0,26,27
 201 81 201 81 226.5 53 c 128,-1,28
 252 25 252 25 309 25 c 128,-1,29
 366 25 366 25 407.5 68 c 128,-1,30
 449 111 449 111 464 182 c 2,31,-1
 533 508 l 2,32,33
 539 535 539 535 539 560 c 0,18,19
591.5 855.5 m 128,-1,35
 601 844 601 844 601 822.5 c 128,-1,36
 601 801 601 801 583 780 c 128,-1,37
 565 759 565 759 547 759 c 128,-1,38
 529 759 529 759 519.5 770.5 c 128,-1,39
 510 782 510 782 510 803 c 128,-1,40
 510 824 510 824 527.5 845.5 c 128,-1,41
 545 867 545 867 563.5 867 c 128,-1,34
 582 867 582 867 591.5 855.5 c 128,-1,35
439.5 855.5 m 128,-1,43
 449 844 449 844 449 822.5 c 128,-1,44
 449 801 449 801 431 780 c 128,-1,45
 413 759 413 759 395 759 c 128,-1,46
 377 759 377 759 367.5 770.5 c 128,-1,47
 358 782 358 782 358 803 c 128,-1,48
 358 824 358 824 375.5 845.5 c 128,-1,49
 393 867 393 867 411.5 867 c 128,-1,42
 430 867 430 867 439.5 855.5 c 128,-1,43
EndSplineSet
EndChar

StartChar: Oslash
Encoding: 216 216 139
Width: 596
GlyphClass: 2
Flags: W
LayerCount: 2
Fore
SplineSet
439 665 m 2,0,1
 375 665 375 665 333.5 622 c 128,-1,2
 292 579 292 579 277 509 c 2,3,-1
 207 182 l 2,4,5
 201 154 201 154 201 130 c 0,6,7
 201 62 201 62 246 37 c 1,8,-1
 453 665 l 1,9,-1
 439 665 l 2,0,1
303 25 m 2,10,11
 366 25 366 25 407.5 68 c 128,-1,12
 449 111 449 111 464 182 c 2,13,-1
 534 509 l 2,14,15
 540 536 540 536 540 560 c 0,16,17
 540 628 540 628 495 653 c 1,18,-1
 289 25 l 1,19,-1
 303 25 l 2,10,11
636 513 m 0,20,21
 636 475 636 475 627 430 c 2,22,-1
 591 260 l 2,23,24
 565 136 565 136 488 63 c 128,-1,25
 411 -10 411 -10 295 -10 c 2,26,-1
 277 -10 l 1,27,-1
 268 -39 l 1,28,-1
 223 -35 l 1,29,-1
 234 -3 l 1,30,31
 105 27 105 27 105 175 c 0,32,33
 105 217 105 217 115 260 c 2,34,-1
 151 430 l 2,35,36
 177 554 177 554 253.5 627 c 128,-1,37
 330 700 330 700 446 700 c 2,38,-1
 464 700 l 1,39,-1
 474 731 l 1,40,-1
 519 726 l 1,41,-1
 507 692 l 1,42,43
 636 662 636 662 636 513 c 0,20,21
EndSplineSet
EndChar

StartChar: Ugrave
Encoding: 217 217 140
Width: 606
GlyphClass: 2
Flags: W
LayerCount: 2
Fore
SplineSet
377.5 28.5 m 128,-1,1
 328 -10 328 -10 259 -10 c 128,-1,2
 190 -10 190 -10 146.5 35.5 c 128,-1,3
 103 81 103 81 103 165 c 0,4,5
 103 202 103 202 112 247 c 2,6,-1
 206 690 l 1,7,-1
 314 690 l 1,8,-1
 209 197 l 2,9,10
 201 157 201 157 201 131 c 0,11,12
 201 25 201 25 294 25 c 0,13,14
 359 25 359 25 408 85.5 c 128,-1,15
 457 146 457 146 474 227 c 2,16,-1
 572 690 l 1,17,-1
 682 690 l 1,18,-1
 536 0 l 1,19,-1
 427 0 l 1,20,-1
 450 110 l 1,21,0
 427 67 427 67 377.5 28.5 c 128,-1,1
362 855 m 1,22,23
 351 866 351 866 351 880 c 128,-1,24
 351 894 351 894 364 906.5 c 128,-1,25
 377 919 377 919 394 919 c 128,-1,26
 411 919 411 919 420 903 c 2,27,-1
 494 768 l 1,28,-1
 477 755 l 1,29,-1
 362 855 l 1,22,23
EndSplineSet
EndChar

StartChar: Uacute
Encoding: 218 218 141
Width: 606
GlyphClass: 2
Flags: W
LayerCount: 2
Fore
SplineSet
377.5 28.5 m 128,-1,1
 328 -10 328 -10 259 -10 c 128,-1,2
 190 -10 190 -10 146.5 35.5 c 128,-1,3
 103 81 103 81 103 165 c 0,4,5
 103 202 103 202 112 247 c 2,6,-1
 206 690 l 1,7,-1
 314 690 l 1,8,-1
 209 197 l 2,9,10
 201 157 201 157 201 131 c 0,11,12
 201 25 201 25 294 25 c 0,13,14
 359 25 359 25 408 85.5 c 128,-1,15
 457 146 457 146 474 227 c 2,16,-1
 572 690 l 1,17,-1
 682 690 l 1,18,-1
 536 0 l 1,19,-1
 427 0 l 1,20,-1
 450 110 l 1,21,0
 427 67 427 67 377.5 28.5 c 128,-1,1
485 906 m 2,22,23
 494 922 494 922 510.5 922 c 128,-1,24
 527 922 527 922 540.5 909.5 c 128,-1,25
 554 897 554 897 554 882.5 c 128,-1,26
 554 868 554 868 543 859 c 2,27,-1
 428 759 l 1,28,-1
 411 771 l 1,29,-1
 485 906 l 2,22,23
EndSplineSet
EndChar

StartChar: Ucircumflex
Encoding: 219 219 142
Width: 606
GlyphClass: 2
Flags: W
LayerCount: 2
Fore
SplineSet
377.5 28.5 m 128,-1,1
 328 -10 328 -10 259 -10 c 128,-1,2
 190 -10 190 -10 146.5 35.5 c 128,-1,3
 103 81 103 81 103 165 c 0,4,5
 103 202 103 202 112 247 c 2,6,-1
 206 690 l 1,7,-1
 314 690 l 1,8,-1
 209 197 l 2,9,10
 201 157 201 157 201 131 c 0,11,12
 201 25 201 25 294 25 c 0,13,14
 359 25 359 25 408 85.5 c 128,-1,15
 457 146 457 146 474 227 c 2,16,-1
 572 690 l 1,17,-1
 682 690 l 1,18,-1
 536 0 l 1,19,-1
 427 0 l 1,20,-1
 450 110 l 1,21,0
 427 67 427 67 377.5 28.5 c 128,-1,1
453 893 m 1,22,23
 464 910 464 910 483.5 910 c 128,-1,24
 503 910 503 910 511 893 c 1,25,-1
 559 767 l 1,26,-1
 545 757 l 1,27,-1
 474 854 l 1,28,-1
 361 757 l 1,29,-1
 351 767 l 1,30,-1
 453 893 l 1,22,23
EndSplineSet
EndChar

StartChar: Udieresis
Encoding: 220 220 143
Width: 606
GlyphClass: 2
Flags: W
LayerCount: 2
Fore
SplineSet
377.5 28.5 m 128,-1,1
 328 -10 328 -10 259 -10 c 128,-1,2
 190 -10 190 -10 146.5 35.5 c 128,-1,3
 103 81 103 81 103 165 c 0,4,5
 103 202 103 202 112 247 c 2,6,-1
 206 690 l 1,7,-1
 314 690 l 1,8,-1
 209 197 l 2,9,10
 201 157 201 157 201 131 c 0,11,12
 201 25 201 25 294 25 c 0,13,14
 359 25 359 25 408 85.5 c 128,-1,15
 457 146 457 146 474 227 c 2,16,-1
 572 690 l 1,17,-1
 682 690 l 1,18,-1
 536 0 l 1,19,-1
 427 0 l 1,20,-1
 450 110 l 1,21,0
 427 67 427 67 377.5 28.5 c 128,-1,1
591.5 854.5 m 128,-1,23
 601 843 601 843 601 821.5 c 128,-1,24
 601 800 601 800 583 779 c 128,-1,25
 565 758 565 758 547 758 c 128,-1,26
 529 758 529 758 519.5 769.5 c 128,-1,27
 510 781 510 781 510 802.5 c 128,-1,28
 510 824 510 824 527.5 845 c 128,-1,29
 545 866 545 866 563.5 866 c 128,-1,22
 582 866 582 866 591.5 854.5 c 128,-1,23
439.5 854.5 m 128,-1,31
 449 843 449 843 449 821.5 c 128,-1,32
 449 800 449 800 431 779 c 128,-1,33
 413 758 413 758 395 758 c 128,-1,34
 377 758 377 758 367.5 769.5 c 128,-1,35
 358 781 358 781 358 802.5 c 128,-1,36
 358 824 358 824 375.5 845 c 128,-1,37
 393 866 393 866 411.5 866 c 128,-1,30
 430 866 430 866 439.5 854.5 c 128,-1,31
EndSplineSet
EndChar

StartChar: Yacute
Encoding: 221 221 144
Width: 565
GlyphClass: 2
Flags: W
LayerCount: 2
Fore
SplineSet
148 552 m 0,0,1
 148 581 148 581 154 611 c 2,2,-1
 171 690 l 1,3,-1
 280 690 l 1,4,-1
 248 538 l 2,5,6
 244 521 244 521 244 500 c 0,7,8
 244 447 244 447 276 414.5 c 128,-1,9
 308 382 308 382 368.5 382 c 128,-1,10
 429 382 429 382 479.5 426 c 128,-1,11
 530 470 530 470 544 538 c 2,12,-1
 576 690 l 1,13,-1
 686 690 l 1,14,-1
 669 611 l 2,15,16
 649 514 649 514 577.5 442.5 c 128,-1,17
 506 371 506 371 411 353 c 1,18,-1
 337 0 l 1,19,-1
 228 0 l 1,20,-1
 302 352 l 1,21,22
 230 368 230 368 189 422 c 128,-1,23
 148 476 148 476 148 552 c 0,0,1
483 906 m 2,24,25
 492 922 492 922 508.5 922 c 128,-1,26
 525 922 525 922 538.5 909.5 c 128,-1,27
 552 897 552 897 552 882.5 c 128,-1,28
 552 868 552 868 541 859 c 2,29,-1
 426 759 l 1,30,-1
 409 771 l 1,31,-1
 483 906 l 2,24,25
EndSplineSet
EndChar

StartChar: Thorn
Encoding: 222 222 145
Width: 606
GlyphClass: 2
Flags: W
LayerCount: 2
Fore
SplineSet
330 -10 m 0,0,1
 295 -10 295 -10 268.5 4.5 c 128,-1,2
 242 19 242 19 229 42 c 0,3,4
 206 83 206 83 202 115 c 1,5,-1
 135 -200 l 1,6,-1
 27 -200 l 1,7,-1
 217 690 l 1,8,-1
 325 690 l 1,9,-1
 285 501 l 1,10,11
 308 544 308 544 357.5 582.5 c 128,-1,12
 407 621 407 621 476 621 c 128,-1,13
 545 621 545 621 589 576 c 128,-1,14
 633 531 633 531 633 446 c 0,15,16
 633 409 633 409 624 364 c 1,17,-1
 597 244 l 1,18,19
 571 121 571 121 493.5 55.5 c 128,-1,20
 416 -10 416 -10 330 -10 c 0,0,1
533 482 m 0,21,22
 533 586 533 586 441 586 c 0,23,24
 377 586 377 586 327.5 525.5 c 128,-1,25
 278 465 278 465 261 384 c 2,26,-1
 226 222 l 2,27,28
 220 197 220 197 220 169 c 0,29,30
 220 109 220 109 247.5 67 c 128,-1,31
 275 25 275 25 328 25 c 0,32,33
 365 25 365 25 394 43.5 c 128,-1,34
 423 62 423 62 440 93 c 0,35,36
 468 145 468 145 478 193 c 2,37,-1
 525 414 l 2,38,39
 533 449 533 449 533 482 c 0,21,22
EndSplineSet
EndChar

StartChar: germandbls
Encoding: 223 223 146
Width: 509
GlyphClass: 2
Flags: W
LayerCount: 2
Fore
SplineSet
249.5 657 m 128,-1,1
 296 700 296 700 352 700 c 128,-1,2
 408 700 408 700 432.5 671.5 c 128,-1,3
 457 643 457 643 458 608 c 1,4,-1
 476 690 l 1,5,-1
 499 690 l 1,6,-1
 455 485 l 1,7,8
 425 485 425 485 400 459.5 c 128,-1,9
 375 434 375 434 375 407 c 128,-1,10
 375 380 375 380 394 353 c 2,11,-1
 497 207 l 2,12,13
 522 172 522 172 522 144 c 0,14,15
 522 80 522 80 472 35 c 128,-1,16
 422 -10 422 -10 354.5 -10 c 128,-1,17
 287 -10 287 -10 263 16.5 c 128,-1,18
 239 43 239 43 239 82 c 0,19,20
 239 100 239 100 242 113 c 1,21,-1
 269 113 l 1,22,23
 265 96 265 96 265 87 c 0,24,25
 265 57 265 57 285.5 38.5 c 128,-1,26
 306 20 306 20 345 20 c 128,-1,27
 384 20 384 20 411.5 43 c 128,-1,28
 439 66 439 66 439 106 c 0,29,30
 439 122 439 122 422 147 c 2,31,-1
 325 286 l 2,32,33
 298 324 298 324 298 359 c 0,34,35
 298 415 298 415 339.5 457.5 c 128,-1,36
 381 500 381 500 436 505 c 1,37,38
 439 524 439 524 439 559.5 c 128,-1,39
 439 595 439 595 421.5 630 c 128,-1,40
 404 665 404 665 370 665 c 128,-1,41
 336 665 336 665 312 640.5 c 128,-1,42
 288 616 288 616 282 587 c 2,43,-1
 158 0 l 1,44,-1
 73 0 l 1,45,-1
 130 270 l 1,46,-1
 97 270 l 1,47,-1
 103 300 l 1,48,-1
 136 300 l 1,49,-1
 191 557 l 2,50,0
 203 614 203 614 249.5 657 c 128,-1,1
EndSplineSet
EndChar

StartChar: agrave
Encoding: 224 224 147
Width: 444
GlyphClass: 2
Flags: W
LayerCount: 2
Fore
SplineSet
396 40 m 0,0,1
 417 40 417 40 435 72 c 1,2,-1
 453 69 l 1,3,4
 436 18 436 18 396 -2 c 0,5,6
 378 -10 378 -10 358 -10 c 0,7,8
 294 -10 294 -10 294 53 c 2,9,-1
 294 64 l 1,10,11
 250 -10 250 -10 178 -10 c 0,12,13
 129 -10 129 -10 102.5 19 c 128,-1,14
 76 48 76 48 76 100 c 0,15,16
 76 128 76 128 81 149 c 2,17,-1
 118 322 l 2,18,19
 133 394 133 394 178 437 c 128,-1,20
 223 480 223 480 283 480 c 0,21,22
 353 480 353 480 366 412 c 1,23,-1
 378 470 l 1,24,-1
 465 470 l 1,25,26
 379 65 379 65 379 59 c 0,27,28
 379 40 379 40 396 40 c 0,0,1
349 334 m 2,29,30
 353 350 353 350 353 377.5 c 128,-1,31
 353 405 353 405 337.5 427.5 c 128,-1,32
 322 450 322 450 291 450 c 0,33,34
 232 450 232 450 212 356 c 2,35,-1
 161 115 l 2,36,37
 156 88 156 88 156 73 c 0,38,39
 156 22 156 22 198 22 c 128,-1,40
 240 22 240 22 269.5 57 c 128,-1,41
 299 92 299 92 310 146 c 2,42,-1
 349 334 l 2,29,30
220 626 m 1,43,44
 209 637 209 637 209 651 c 128,-1,45
 209 665 209 665 222 677.5 c 128,-1,46
 235 690 235 690 252 690 c 128,-1,47
 269 690 269 690 278 674 c 2,48,-1
 352 539 l 1,49,-1
 335 526 l 1,50,-1
 220 626 l 1,43,44
EndSplineSet
EndChar

StartChar: aacute
Encoding: 225 225 148
Width: 444
GlyphClass: 2
Flags: W
LayerCount: 2
Fore
SplineSet
396 40 m 0,0,1
 417 40 417 40 435 72 c 1,2,-1
 453 69 l 1,3,4
 436 18 436 18 396 -2 c 0,5,6
 378 -10 378 -10 358 -10 c 0,7,8
 294 -10 294 -10 294 53 c 2,9,-1
 294 64 l 1,10,11
 250 -10 250 -10 178 -10 c 0,12,13
 129 -10 129 -10 102.5 19 c 128,-1,14
 76 48 76 48 76 100 c 0,15,16
 76 128 76 128 81 149 c 2,17,-1
 118 322 l 2,18,19
 133 394 133 394 178 437 c 128,-1,20
 223 480 223 480 283 480 c 0,21,22
 353 480 353 480 366 412 c 1,23,-1
 378 470 l 1,24,-1
 465 470 l 1,25,26
 379 65 379 65 379 59 c 0,27,28
 379 40 379 40 396 40 c 0,0,1
349 334 m 2,29,30
 353 350 353 350 353 377.5 c 128,-1,31
 353 405 353 405 337.5 427.5 c 128,-1,32
 322 450 322 450 291 450 c 0,33,34
 232 450 232 450 212 356 c 2,35,-1
 161 115 l 2,36,37
 156 88 156 88 156 73 c 0,38,39
 156 22 156 22 198 22 c 128,-1,40
 240 22 240 22 269.5 57 c 128,-1,41
 299 92 299 92 310 146 c 2,42,-1
 349 334 l 2,29,30
344 674 m 2,43,44
 353 690 353 690 369.5 690 c 128,-1,45
 386 690 386 690 399.5 677.5 c 128,-1,46
 413 665 413 665 413 650.5 c 128,-1,47
 413 636 413 636 402 627 c 2,48,-1
 287 527 l 1,49,-1
 270 539 l 1,50,-1
 344 674 l 2,43,44
EndSplineSet
EndChar

StartChar: acircumflex
Encoding: 226 226 149
Width: 444
GlyphClass: 2
Flags: W
LayerCount: 2
Fore
SplineSet
396 40 m 0,0,1
 417 40 417 40 435 72 c 1,2,-1
 453 69 l 1,3,4
 436 18 436 18 396 -2 c 0,5,6
 378 -10 378 -10 358 -10 c 0,7,8
 294 -10 294 -10 294 53 c 2,9,-1
 294 64 l 1,10,11
 250 -10 250 -10 178 -10 c 0,12,13
 129 -10 129 -10 102.5 19 c 128,-1,14
 76 48 76 48 76 100 c 0,15,16
 76 128 76 128 81 149 c 2,17,-1
 118 322 l 2,18,19
 133 394 133 394 178 437 c 128,-1,20
 223 480 223 480 283 480 c 0,21,22
 353 480 353 480 366 412 c 1,23,-1
 378 470 l 1,24,-1
 465 470 l 1,25,26
 379 65 379 65 379 59 c 0,27,28
 379 40 379 40 396 40 c 0,0,1
349 334 m 2,29,30
 353 350 353 350 353 377.5 c 128,-1,31
 353 405 353 405 337.5 427.5 c 128,-1,32
 322 450 322 450 291 450 c 0,33,34
 232 450 232 450 212 356 c 2,35,-1
 161 115 l 2,36,37
 156 88 156 88 156 73 c 0,38,39
 156 22 156 22 198 22 c 128,-1,40
 240 22 240 22 269.5 57 c 128,-1,41
 299 92 299 92 310 146 c 2,42,-1
 349 334 l 2,29,30
312 673 m 1,43,44
 323 690 323 690 342.5 690 c 128,-1,45
 362 690 362 690 370 673 c 1,46,-1
 418 547 l 1,47,-1
 404 537 l 1,48,-1
 333 634 l 1,49,-1
 220 537 l 1,50,-1
 210 547 l 1,51,-1
 312 673 l 1,43,44
EndSplineSet
EndChar

StartChar: atilde
Encoding: 227 227 150
Width: 444
GlyphClass: 2
Flags: W
LayerCount: 2
Fore
SplineSet
396 40 m 0,0,1
 417 40 417 40 435 72 c 1,2,-1
 453 69 l 1,3,4
 436 18 436 18 396 -2 c 0,5,6
 378 -10 378 -10 358 -10 c 0,7,8
 294 -10 294 -10 294 53 c 2,9,-1
 294 64 l 1,10,11
 250 -10 250 -10 178 -10 c 0,12,13
 129 -10 129 -10 102.5 19 c 128,-1,14
 76 48 76 48 76 100 c 0,15,16
 76 128 76 128 81 149 c 2,17,-1
 118 322 l 2,18,19
 133 394 133 394 178 437 c 128,-1,20
 223 480 223 480 283 480 c 0,21,22
 353 480 353 480 366 412 c 1,23,-1
 378 470 l 1,24,-1
 465 470 l 1,25,26
 379 65 379 65 379 59 c 0,27,28
 379 40 379 40 396 40 c 0,0,1
349 334 m 2,29,30
 353 350 353 350 353 377.5 c 128,-1,31
 353 405 353 405 337.5 427.5 c 128,-1,32
 322 450 322 450 291 450 c 0,33,34
 232 450 232 450 212 356 c 2,35,-1
 161 115 l 2,36,37
 156 88 156 88 156 73 c 0,38,39
 156 22 156 22 198 22 c 128,-1,40
 240 22 240 22 269.5 57 c 128,-1,41
 299 92 299 92 310 146 c 2,42,-1
 349 334 l 2,29,30
375 536 m 128,-1,44
 353 536 353 536 316 554.5 c 128,-1,45
 279 573 279 573 263 573 c 0,46,47
 232 573 232 573 203 544 c 1,48,-1
 190 555 l 1,49,50
 245 619 245 619 299 619 c 0,51,52
 316 619 316 619 347.5 602.5 c 128,-1,53
 379 586 379 586 403 586 c 128,-1,54
 427 586 427 586 449 600 c 1,55,-1
 450 601 l 1,56,-1
 462 591 l 1,57,58
 444 566 444 566 420.5 551 c 128,-1,43
 397 536 397 536 375 536 c 128,-1,44
EndSplineSet
EndChar

StartChar: adieresis
Encoding: 228 228 151
Width: 444
GlyphClass: 2
Flags: W
LayerCount: 2
Fore
SplineSet
396 40 m 0,0,1
 417 40 417 40 435 72 c 1,2,-1
 453 69 l 1,3,4
 436 18 436 18 396 -2 c 0,5,6
 378 -10 378 -10 358 -10 c 0,7,8
 294 -10 294 -10 294 53 c 2,9,-1
 294 64 l 1,10,11
 250 -10 250 -10 178 -10 c 0,12,13
 129 -10 129 -10 102.5 19 c 128,-1,14
 76 48 76 48 76 100 c 0,15,16
 76 128 76 128 81 149 c 2,17,-1
 118 322 l 2,18,19
 133 394 133 394 178 437 c 128,-1,20
 223 480 223 480 283 480 c 0,21,22
 353 480 353 480 366 412 c 1,23,-1
 378 470 l 1,24,-1
 465 470 l 1,25,26
 379 65 379 65 379 59 c 0,27,28
 379 40 379 40 396 40 c 0,0,1
349 334 m 2,29,30
 353 350 353 350 353 377.5 c 128,-1,31
 353 405 353 405 337.5 427.5 c 128,-1,32
 322 450 322 450 291 450 c 0,33,34
 232 450 232 450 212 356 c 2,35,-1
 161 115 l 2,36,37
 156 88 156 88 156 73 c 0,38,39
 156 22 156 22 198 22 c 128,-1,40
 240 22 240 22 269.5 57 c 128,-1,41
 299 92 299 92 310 146 c 2,42,-1
 349 334 l 2,29,30
451.5 664.5 m 128,-1,44
 461 653 461 653 461 631.5 c 128,-1,45
 461 610 461 610 443 589 c 128,-1,46
 425 568 425 568 407 568 c 128,-1,47
 389 568 389 568 379.5 579.5 c 128,-1,48
 370 591 370 591 370 612 c 128,-1,49
 370 633 370 633 387.5 654.5 c 128,-1,50
 405 676 405 676 423.5 676 c 128,-1,43
 442 676 442 676 451.5 664.5 c 128,-1,44
299.5 664.5 m 128,-1,52
 309 653 309 653 309 631.5 c 128,-1,53
 309 610 309 610 291 589 c 128,-1,54
 273 568 273 568 255 568 c 128,-1,55
 237 568 237 568 227.5 579.5 c 128,-1,56
 218 591 218 591 218 612 c 128,-1,57
 218 633 218 633 235.5 654.5 c 128,-1,58
 253 676 253 676 271.5 676 c 128,-1,51
 290 676 290 676 299.5 664.5 c 128,-1,52
EndSplineSet
EndChar

StartChar: aring
Encoding: 229 229 152
Width: 444
GlyphClass: 2
Flags: W
LayerCount: 2
Fore
SplineSet
396 40 m 0,0,1
 417 40 417 40 435 72 c 1,2,-1
 453 69 l 1,3,4
 436 18 436 18 396 -2 c 0,5,6
 378 -10 378 -10 358 -10 c 0,7,8
 294 -10 294 -10 294 53 c 2,9,-1
 294 64 l 1,10,11
 250 -10 250 -10 178 -10 c 0,12,13
 129 -10 129 -10 102.5 19 c 128,-1,14
 76 48 76 48 76 100 c 0,15,16
 76 128 76 128 81 149 c 2,17,-1
 118 322 l 2,18,19
 133 394 133 394 178 437 c 128,-1,20
 223 480 223 480 283 480 c 0,21,22
 353 480 353 480 366 412 c 1,23,-1
 378 470 l 1,24,-1
 465 470 l 1,25,26
 379 65 379 65 379 59 c 0,27,28
 379 40 379 40 396 40 c 0,0,1
349 334 m 2,29,30
 353 350 353 350 353 377.5 c 128,-1,31
 353 405 353 405 337.5 427.5 c 128,-1,32
 322 450 322 450 291 450 c 0,33,34
 232 450 232 450 212 356 c 2,35,-1
 161 115 l 2,36,37
 156 88 156 88 156 73 c 0,38,39
 156 22 156 22 198 22 c 128,-1,40
 240 22 240 22 269.5 57 c 128,-1,41
 299 92 299 92 310 146 c 2,42,-1
 349 334 l 2,29,30
363.5 574.5 m 128,-1,44
 343 556 343 556 320 556 c 128,-1,45
 297 556 297 556 284 569.5 c 128,-1,46
 271 583 271 583 271 597 c 128,-1,47
 271 611 271 611 275 631.5 c 128,-1,48
 279 652 279 652 300 671 c 128,-1,49
 321 690 321 690 344 690 c 128,-1,50
 367 690 367 690 380 676 c 128,-1,51
 393 662 393 662 393 648.5 c 128,-1,52
 393 635 393 635 388.5 614 c 128,-1,43
 384 593 384 593 363.5 574.5 c 128,-1,44
350 592.5 m 128,-1,54
 363 605 363 605 365.5 616 c 128,-1,55
 368 627 368 627 368 637 c 128,-1,56
 368 647 368 647 360.5 656 c 128,-1,57
 353 665 353 665 340 665 c 128,-1,58
 327 665 327 665 314 652 c 0,59,60
 296 635 296 635 296 617 c 0,61,62
 296 580 296 580 323 580 c 0,63,53
 337 580 337 580 350 592.5 c 128,-1,54
EndSplineSet
EndChar

StartChar: ccedilla
Encoding: 231 231 153
Width: 350
GlyphClass: 2
Flags: W
LayerCount: 2
Fore
SplineSet
77 107 m 0,0,1
 77 130 77 130 83 157 c 2,2,-1
 116 313 l 2,3,4
 132 388 132 388 181.5 434 c 128,-1,5
 231 480 231 480 291 480 c 128,-1,6
 351 480 351 480 371.5 450.5 c 128,-1,7
 392 421 392 421 392 381 c 0,8,9
 392 367 392 367 389 349 c 1,10,-1
 363 349 l 1,11,12
 366 367 366 367 366 385 c 128,-1,13
 366 403 366 403 352.5 426.5 c 128,-1,14
 339 450 339 450 306.5 450 c 128,-1,15
 274 450 274 450 247.5 424.5 c 128,-1,16
 221 399 221 399 211 352 c 2,17,-1
 162 118 l 2,18,19
 158 102 158 102 158 78.5 c 128,-1,20
 158 55 158 55 173 37.5 c 128,-1,21
 188 20 188 20 215 20 c 0,22,23
 257 20 257 20 282.5 54 c 128,-1,24
 308 88 308 88 314 122 c 1,25,-1
 340 122 l 1,26,27
 333 86 333 86 304.5 46.5 c 128,-1,28
 276 7 276 7 230 -5 c 1,29,30
 213 -77 213 -77 108 -148 c 1,31,-1
 97 -138 l 1,32,33
 116 -119 116 -119 131 -89 c 0,34,35
 147 -56 147 -56 159 -6 c 1,36,37
 77 12 77 12 77 107 c 0,0,1
EndSplineSet
EndChar

StartChar: egrave
Encoding: 232 232 154
Width: 381
GlyphClass: 2
Flags: W
LayerCount: 2
Fore
SplineSet
156 79 m 0,0,1
 156 20 156 20 220 20 c 0,2,3
 263 20 263 20 293 55 c 128,-1,4
 323 90 323 90 328 115 c 1,5,-1
 350 115 l 1,6,7
 344 83 344 83 311 41 c 0,8,9
 294 19 294 19 264.5 4.5 c 128,-1,10
 235 -10 235 -10 200 -10 c 0,11,12
 77 -10 77 -10 77 105 c 0,13,14
 77 130 77 130 83 157 c 2,15,-1
 116 314 l 2,16,17
 132 387 132 387 182 433.5 c 128,-1,18
 232 480 232 480 309 480 c 0,19,20
 409 480 409 480 409 372 c 0,21,22
 409 348 409 348 402 311 c 2,23,-1
 385 232 l 1,24,-1
 185 232 l 1,25,-1
 161 118 l 2,26,27
 156 95 156 95 156 79 c 0,0,1
358 390 m 0,28,29
 358 450 358 450 304 450 c 0,30,31
 232 450 232 450 211 353 c 2,32,-1
 191 262 l 1,33,-1
 334 262 l 1,34,-1
 354 353 l 2,35,36
 358 372 358 372 358 390 c 0,28,29
238 626 m 1,37,38
 227 637 227 637 227 651 c 128,-1,39
 227 665 227 665 240 677.5 c 128,-1,40
 253 690 253 690 270 690 c 128,-1,41
 287 690 287 690 296 674 c 2,42,-1
 370 539 l 1,43,-1
 353 526 l 1,44,-1
 238 626 l 1,37,38
EndSplineSet
EndChar

StartChar: eacute
Encoding: 233 233 155
Width: 381
GlyphClass: 2
Flags: W
LayerCount: 2
Fore
SplineSet
156 79 m 0,0,1
 156 20 156 20 220 20 c 0,2,3
 263 20 263 20 293 55 c 128,-1,4
 323 90 323 90 328 115 c 1,5,-1
 350 115 l 1,6,7
 344 83 344 83 311 41 c 0,8,9
 294 19 294 19 264.5 4.5 c 128,-1,10
 235 -10 235 -10 200 -10 c 0,11,12
 77 -10 77 -10 77 105 c 0,13,14
 77 130 77 130 83 157 c 2,15,-1
 116 314 l 2,16,17
 132 387 132 387 182 433.5 c 128,-1,18
 232 480 232 480 309 480 c 0,19,20
 409 480 409 480 409 372 c 0,21,22
 409 348 409 348 402 311 c 2,23,-1
 385 232 l 1,24,-1
 185 232 l 1,25,-1
 161 118 l 2,26,27
 156 95 156 95 156 79 c 0,0,1
358 390 m 0,28,29
 358 450 358 450 304 450 c 0,30,31
 232 450 232 450 211 353 c 2,32,-1
 191 262 l 1,33,-1
 334 262 l 1,34,-1
 354 353 l 2,35,36
 358 372 358 372 358 390 c 0,28,29
362 674 m 2,37,38
 371 690 371 690 387.5 690 c 128,-1,39
 404 690 404 690 417.5 677.5 c 128,-1,40
 431 665 431 665 431 650.5 c 128,-1,41
 431 636 431 636 420 627 c 2,42,-1
 305 527 l 1,43,-1
 288 539 l 1,44,-1
 362 674 l 2,37,38
EndSplineSet
EndChar

StartChar: ecircumflex
Encoding: 234 234 156
Width: 381
GlyphClass: 2
Flags: W
LayerCount: 2
Fore
SplineSet
156 79 m 0,0,1
 156 20 156 20 220 20 c 0,2,3
 263 20 263 20 293 55 c 128,-1,4
 323 90 323 90 328 115 c 1,5,-1
 350 115 l 1,6,7
 344 83 344 83 311 41 c 0,8,9
 294 19 294 19 264.5 4.5 c 128,-1,10
 235 -10 235 -10 200 -10 c 0,11,12
 77 -10 77 -10 77 105 c 0,13,14
 77 130 77 130 83 157 c 2,15,-1
 116 314 l 2,16,17
 132 387 132 387 182 433.5 c 128,-1,18
 232 480 232 480 309 480 c 0,19,20
 409 480 409 480 409 372 c 0,21,22
 409 348 409 348 402 311 c 2,23,-1
 385 232 l 1,24,-1
 185 232 l 1,25,-1
 161 118 l 2,26,27
 156 95 156 95 156 79 c 0,0,1
358 390 m 0,28,29
 358 450 358 450 304 450 c 0,30,31
 232 450 232 450 211 353 c 2,32,-1
 191 262 l 1,33,-1
 334 262 l 1,34,-1
 354 353 l 2,35,36
 358 372 358 372 358 390 c 0,28,29
308 673 m 1,37,38
 319 690 319 690 338.5 690 c 128,-1,39
 358 690 358 690 366 673 c 1,40,-1
 414 547 l 1,41,-1
 400 537 l 1,42,-1
 329 634 l 1,43,-1
 216 537 l 1,44,-1
 206 547 l 1,45,-1
 308 673 l 1,37,38
EndSplineSet
EndChar

StartChar: edieresis
Encoding: 235 235 157
Width: 381
GlyphClass: 2
Flags: W
LayerCount: 2
Fore
SplineSet
156 79 m 0,0,1
 156 20 156 20 220 20 c 0,2,3
 263 20 263 20 293 55 c 128,-1,4
 323 90 323 90 328 115 c 1,5,-1
 350 115 l 1,6,7
 344 83 344 83 311 41 c 0,8,9
 294 19 294 19 264.5 4.5 c 128,-1,10
 235 -10 235 -10 200 -10 c 0,11,12
 77 -10 77 -10 77 105 c 0,13,14
 77 130 77 130 83 157 c 2,15,-1
 116 314 l 2,16,17
 132 387 132 387 182 433.5 c 128,-1,18
 232 480 232 480 309 480 c 0,19,20
 409 480 409 480 409 372 c 0,21,22
 409 348 409 348 402 311 c 2,23,-1
 385 232 l 1,24,-1
 185 232 l 1,25,-1
 161 118 l 2,26,27
 156 95 156 95 156 79 c 0,0,1
358 390 m 0,28,29
 358 450 358 450 304 450 c 0,30,31
 232 450 232 450 211 353 c 2,32,-1
 191 262 l 1,33,-1
 334 262 l 1,34,-1
 354 353 l 2,35,36
 358 372 358 372 358 390 c 0,28,29
443.5 664.5 m 128,-1,38
 453 653 453 653 453 631.5 c 128,-1,39
 453 610 453 610 435 589 c 128,-1,40
 417 568 417 568 399 568 c 128,-1,41
 381 568 381 568 371.5 579.5 c 128,-1,42
 362 591 362 591 362 612 c 128,-1,43
 362 633 362 633 379.5 654.5 c 128,-1,44
 397 676 397 676 415.5 676 c 128,-1,37
 434 676 434 676 443.5 664.5 c 128,-1,38
291.5 664.5 m 128,-1,46
 301 653 301 653 301 631.5 c 128,-1,47
 301 610 301 610 283 589 c 128,-1,48
 265 568 265 568 247 568 c 128,-1,49
 229 568 229 568 219.5 579.5 c 128,-1,50
 210 591 210 591 210 612 c 128,-1,51
 210 633 210 633 227.5 654.5 c 128,-1,52
 245 676 245 676 263.5 676 c 128,-1,45
 282 676 282 676 291.5 664.5 c 128,-1,46
EndSplineSet
EndChar

StartChar: igrave
Encoding: 236 236 158
Width: 225
GlyphClass: 2
Flags: W
LayerCount: 2
Fore
SplineSet
159 58 m 0,0,1
 159 40 159 40 177.5 40 c 128,-1,2
 196 40 196 40 216 72 c 1,3,-1
 234 69 l 1,4,5
 217 18 217 18 176 -2 c 0,6,7
 159 -10 159 -10 139 -10 c 0,8,9
 74 -10 74 -10 74 54 c 0,10,11
 74 67 74 67 78 89 c 2,12,-1
 159 470 l 1,13,-1
 245 470 l 1,14,15
 159 65 159 65 159 58 c 0,0,1
134 626 m 1,16,17
 123 637 123 637 123 651 c 128,-1,18
 123 665 123 665 136 677.5 c 128,-1,19
 149 690 149 690 166 690 c 128,-1,20
 183 690 183 690 192 674 c 2,21,-1
 266 539 l 1,22,-1
 249 526 l 1,23,-1
 134 626 l 1,16,17
EndSplineSet
EndChar

StartChar: iacute
Encoding: 237 237 159
Width: 225
GlyphClass: 2
Flags: W
LayerCount: 2
Fore
SplineSet
159 58 m 0,0,1
 159 40 159 40 177.5 40 c 128,-1,2
 196 40 196 40 216 72 c 1,3,-1
 234 69 l 1,4,5
 217 18 217 18 176 -2 c 0,6,7
 159 -10 159 -10 139 -10 c 0,8,9
 74 -10 74 -10 74 54 c 0,10,11
 74 67 74 67 78 89 c 2,12,-1
 159 470 l 1,13,-1
 245 470 l 1,14,15
 159 65 159 65 159 58 c 0,0,1
252 674 m 2,16,17
 261 690 261 690 277.5 690 c 128,-1,18
 294 690 294 690 307.5 677.5 c 128,-1,19
 321 665 321 665 321 650.5 c 128,-1,20
 321 636 321 636 310 627 c 2,21,-1
 195 527 l 1,22,-1
 178 539 l 1,23,-1
 252 674 l 2,16,17
EndSplineSet
EndChar

StartChar: icircumflex
Encoding: 238 238 160
Width: 225
GlyphClass: 2
Flags: W
LayerCount: 2
Fore
SplineSet
159 58 m 0,0,1
 159 40 159 40 177.5 40 c 128,-1,2
 196 40 196 40 216 72 c 1,3,-1
 234 69 l 1,4,5
 217 18 217 18 176 -2 c 0,6,7
 159 -10 159 -10 139 -10 c 0,8,9
 74 -10 74 -10 74 54 c 0,10,11
 74 67 74 67 78 89 c 2,12,-1
 159 470 l 1,13,-1
 245 470 l 1,14,15
 159 65 159 65 159 58 c 0,0,1
204 673 m 1,16,17
 215 690 215 690 234.5 690 c 128,-1,18
 254 690 254 690 262 673 c 1,19,-1
 310 547 l 1,20,-1
 296 537 l 1,21,-1
 225 634 l 1,22,-1
 112 537 l 1,23,-1
 102 547 l 1,24,-1
 204 673 l 1,16,17
EndSplineSet
EndChar

StartChar: idieresis
Encoding: 239 239 161
Width: 225
GlyphClass: 2
Flags: W
LayerCount: 2
Fore
SplineSet
159 58 m 0,0,1
 159 40 159 40 177.5 40 c 128,-1,2
 196 40 196 40 216 72 c 1,3,-1
 234 69 l 1,4,5
 217 18 217 18 176 -2 c 0,6,7
 159 -10 159 -10 139 -10 c 0,8,9
 74 -10 74 -10 74 54 c 0,10,11
 74 67 74 67 78 89 c 2,12,-1
 159 470 l 1,13,-1
 245 470 l 1,14,15
 159 65 159 65 159 58 c 0,0,1
345.5 664.5 m 128,-1,17
 355 653 355 653 355 631.5 c 128,-1,18
 355 610 355 610 337 589 c 128,-1,19
 319 568 319 568 301 568 c 128,-1,20
 283 568 283 568 273.5 579.5 c 128,-1,21
 264 591 264 591 264 612 c 128,-1,22
 264 633 264 633 281.5 654.5 c 128,-1,23
 299 676 299 676 317.5 676 c 128,-1,16
 336 676 336 676 345.5 664.5 c 128,-1,17
193.5 664.5 m 128,-1,25
 203 653 203 653 203 631.5 c 128,-1,26
 203 610 203 610 185 589 c 128,-1,27
 167 568 167 568 149 568 c 128,-1,28
 131 568 131 568 121.5 579.5 c 128,-1,29
 112 591 112 591 112 612 c 128,-1,30
 112 633 112 633 129.5 654.5 c 128,-1,31
 147 676 147 676 165.5 676 c 128,-1,24
 184 676 184 676 193.5 664.5 c 128,-1,25
EndSplineSet
EndChar

StartChar: eth
Encoding: 240 240 162
Width: 426
GlyphClass: 2
Flags: W
LayerCount: 2
Fore
SplineSet
178 -10 m 0,0,1
 129 -10 129 -10 102.5 19 c 128,-1,2
 76 48 76 48 76 100 c 0,3,4
 76 128 76 128 81 149 c 2,5,-1
 118 322 l 2,6,7
 133 394 133 394 178 437 c 128,-1,8
 223 480 223 480 283 480 c 0,9,10
 353 480 353 480 366 412 c 1,11,-1
 398 560 l 1,12,-1
 288 560 l 1,13,-1
 301 625 l 1,14,-1
 411 625 l 1,15,-1
 425 690 l 1,16,-1
 512 690 l 1,17,-1
 498 625 l 1,18,-1
 558 625 l 1,19,-1
 545 560 l 1,20,-1
 485 560 l 1,21,-1
 366 0 l 1,22,-1
 279 0 l 1,23,-1
 291 60 l 1,24,25
 248 -10 248 -10 178 -10 c 0,0,1
349 334 m 2,26,27
 353 350 353 350 353 377.5 c 128,-1,28
 353 405 353 405 337.5 427.5 c 128,-1,29
 322 450 322 450 291 450 c 0,30,31
 232 450 232 450 212 356 c 2,32,-1
 161 115 l 2,33,34
 156 88 156 88 156 73 c 0,35,36
 156 22 156 22 198 22 c 128,-1,37
 240 22 240 22 269 55 c 128,-1,38
 298 88 298 88 308 137 c 2,39,-1
 349 334 l 2,26,27
EndSplineSet
EndChar

StartChar: ntilde
Encoding: 241 241 163
Width: 453
GlyphClass: 2
Flags: W
LayerCount: 2
Fore
SplineSet
388 57 m 0,0,1
 388 40 388 40 407 40 c 128,-1,2
 426 40 426 40 444 72 c 1,3,-1
 462 69 l 1,4,5
 445 18 445 18 406 -2 c 1,6,7
 388 -10 388 -10 368 -10 c 0,8,9
 302 -10 302 -10 302 53 c 0,10,11
 302 65 302 65 306 89 c 1,12,-1
 363 356 l 2,13,14
 369 383 369 383 369 400 c 0,15,16
 369 450 369 450 324 450 c 0,17,18
 285 450 285 450 255.5 415 c 128,-1,19
 226 380 226 380 216 334 c 2,20,-1
 146 0 l 1,21,-1
 60 0 l 1,22,-1
 159 470 l 1,23,-1
 245 470 l 1,24,-1
 233 412 l 1,25,26
 277 480 277 480 347 480 c 0,27,28
 395 480 395 480 422 451.5 c 128,-1,29
 449 423 449 423 449 372 c 0,30,31
 449 354 449 354 443 322 c 0,32,33
 388 65 388 65 388 57 c 0,0,1
386 536 m 128,-1,35
 364 536 364 536 327 554.5 c 128,-1,36
 290 573 290 573 274 573 c 0,37,38
 243 573 243 573 214 544 c 1,39,-1
 201 555 l 1,40,41
 256 619 256 619 310 619 c 0,42,43
 327 619 327 619 358.5 602.5 c 128,-1,44
 390 586 390 586 414 586 c 128,-1,45
 438 586 438 586 460 600 c 1,46,-1
 461 601 l 1,47,-1
 473 591 l 1,48,49
 455 566 455 566 431.5 551 c 128,-1,34
 408 536 408 536 386 536 c 128,-1,35
EndSplineSet
EndChar

StartChar: ograve
Encoding: 242 242 164
Width: 416
GlyphClass: 2
Flags: W
LayerCount: 2
Fore
SplineSet
437 359 m 0,0,1
 437 341 437 341 432 314 c 2,2,-1
 399 157 l 2,3,4
 383 84 383 84 331.5 37 c 128,-1,5
 280 -10 280 -10 211.5 -10 c 128,-1,6
 143 -10 143 -10 110.5 23.5 c 128,-1,7
 78 57 78 57 78 112 c 0,8,9
 78 130 78 130 83 157 c 2,10,-1
 116 314 l 2,11,12
 132 387 132 387 183.5 433.5 c 128,-1,13
 235 480 235 480 303.5 480 c 128,-1,14
 372 480 372 480 404.5 447 c 128,-1,15
 437 414 437 414 437 359 c 0,0,1
359 391 m 0,16,17
 359 450 359 450 303 450 c 0,18,19
 232 450 232 450 211 353 c 2,20,-1
 161 118 l 2,21,22
 156 96 156 96 156 80 c 0,23,24
 156 20 156 20 212 20 c 0,25,26
 283 20 283 20 304 118 c 2,27,-1
 354 353 l 2,28,29
 359 375 359 375 359 391 c 0,16,17
227 626 m 1,30,31
 216 637 216 637 216 651 c 128,-1,32
 216 665 216 665 229 677.5 c 128,-1,33
 242 690 242 690 259 690 c 128,-1,34
 276 690 276 690 285 674 c 2,35,-1
 359 539 l 1,36,-1
 342 526 l 1,37,-1
 227 626 l 1,30,31
EndSplineSet
EndChar

StartChar: oacute
Encoding: 243 243 165
Width: 416
GlyphClass: 2
Flags: W
LayerCount: 2
Fore
SplineSet
437 359 m 0,0,1
 437 341 437 341 432 314 c 2,2,-1
 399 157 l 2,3,4
 383 84 383 84 331.5 37 c 128,-1,5
 280 -10 280 -10 211.5 -10 c 128,-1,6
 143 -10 143 -10 110.5 23.5 c 128,-1,7
 78 57 78 57 78 112 c 0,8,9
 78 130 78 130 83 157 c 2,10,-1
 116 314 l 2,11,12
 132 387 132 387 183.5 433.5 c 128,-1,13
 235 480 235 480 303.5 480 c 128,-1,14
 372 480 372 480 404.5 447 c 128,-1,15
 437 414 437 414 437 359 c 0,0,1
359 391 m 0,16,17
 359 450 359 450 303 450 c 0,18,19
 232 450 232 450 211 353 c 2,20,-1
 161 118 l 2,21,22
 156 96 156 96 156 80 c 0,23,24
 156 20 156 20 212 20 c 0,25,26
 283 20 283 20 304 118 c 2,27,-1
 354 353 l 2,28,29
 359 375 359 375 359 391 c 0,16,17
366 674 m 2,30,31
 375 690 375 690 391.5 690 c 128,-1,32
 408 690 408 690 421.5 677.5 c 128,-1,33
 435 665 435 665 435 650.5 c 128,-1,34
 435 636 435 636 424 627 c 2,35,-1
 309 527 l 1,36,-1
 292 539 l 1,37,-1
 366 674 l 2,30,31
EndSplineSet
EndChar

StartChar: ocircumflex
Encoding: 244 244 166
Width: 416
GlyphClass: 2
Flags: W
LayerCount: 2
Fore
SplineSet
437 359 m 0,0,1
 437 341 437 341 432 314 c 2,2,-1
 399 157 l 2,3,4
 383 84 383 84 331.5 37 c 128,-1,5
 280 -10 280 -10 211.5 -10 c 128,-1,6
 143 -10 143 -10 110.5 23.5 c 128,-1,7
 78 57 78 57 78 112 c 0,8,9
 78 130 78 130 83 157 c 2,10,-1
 116 314 l 2,11,12
 132 387 132 387 183.5 433.5 c 128,-1,13
 235 480 235 480 303.5 480 c 128,-1,14
 372 480 372 480 404.5 447 c 128,-1,15
 437 414 437 414 437 359 c 0,0,1
359 391 m 0,16,17
 359 450 359 450 303 450 c 0,18,19
 232 450 232 450 211 353 c 2,20,-1
 161 118 l 2,21,22
 156 96 156 96 156 80 c 0,23,24
 156 20 156 20 212 20 c 0,25,26
 283 20 283 20 304 118 c 2,27,-1
 354 353 l 2,28,29
 359 375 359 375 359 391 c 0,16,17
318 673 m 1,30,31
 329 690 329 690 348.5 690 c 128,-1,32
 368 690 368 690 376 673 c 1,33,-1
 424 547 l 1,34,-1
 410 537 l 1,35,-1
 339 634 l 1,36,-1
 226 537 l 1,37,-1
 216 547 l 1,38,-1
 318 673 l 1,30,31
EndSplineSet
EndChar

StartChar: otilde
Encoding: 245 245 167
Width: 416
GlyphClass: 2
Flags: W
LayerCount: 2
Fore
SplineSet
437 359 m 0,0,1
 437 341 437 341 432 314 c 2,2,-1
 399 157 l 2,3,4
 383 84 383 84 331.5 37 c 128,-1,5
 280 -10 280 -10 211.5 -10 c 128,-1,6
 143 -10 143 -10 110.5 23.5 c 128,-1,7
 78 57 78 57 78 112 c 0,8,9
 78 130 78 130 83 157 c 2,10,-1
 116 314 l 2,11,12
 132 387 132 387 183.5 433.5 c 128,-1,13
 235 480 235 480 303.5 480 c 128,-1,14
 372 480 372 480 404.5 447 c 128,-1,15
 437 414 437 414 437 359 c 0,0,1
359 391 m 0,16,17
 359 450 359 450 303 450 c 0,18,19
 232 450 232 450 211 353 c 2,20,-1
 161 118 l 2,21,22
 156 96 156 96 156 80 c 0,23,24
 156 20 156 20 212 20 c 0,25,26
 283 20 283 20 304 118 c 2,27,-1
 354 353 l 2,28,29
 359 375 359 375 359 391 c 0,16,17
385 536 m 128,-1,31
 363 536 363 536 326 554.5 c 128,-1,32
 289 573 289 573 273 573 c 0,33,34
 242 573 242 573 213 544 c 1,35,-1
 200 555 l 1,36,37
 255 619 255 619 309 619 c 0,38,39
 326 619 326 619 357.5 602.5 c 128,-1,40
 389 586 389 586 413 586 c 128,-1,41
 437 586 437 586 459 600 c 1,42,-1
 460 601 l 1,43,-1
 472 591 l 1,44,45
 454 566 454 566 430.5 551 c 128,-1,30
 407 536 407 536 385 536 c 128,-1,31
EndSplineSet
EndChar

StartChar: odieresis
Encoding: 246 246 168
Width: 416
GlyphClass: 2
Flags: W
LayerCount: 2
Fore
SplineSet
437 359 m 0,0,1
 437 341 437 341 432 314 c 2,2,-1
 399 157 l 2,3,4
 383 84 383 84 331.5 37 c 128,-1,5
 280 -10 280 -10 211.5 -10 c 128,-1,6
 143 -10 143 -10 110.5 23.5 c 128,-1,7
 78 57 78 57 78 112 c 0,8,9
 78 130 78 130 83 157 c 2,10,-1
 116 314 l 2,11,12
 132 387 132 387 183.5 433.5 c 128,-1,13
 235 480 235 480 303.5 480 c 128,-1,14
 372 480 372 480 404.5 447 c 128,-1,15
 437 414 437 414 437 359 c 0,0,1
359 391 m 0,16,17
 359 450 359 450 303 450 c 0,18,19
 232 450 232 450 211 353 c 2,20,-1
 161 118 l 2,21,22
 156 96 156 96 156 80 c 0,23,24
 156 20 156 20 212 20 c 0,25,26
 283 20 283 20 304 118 c 2,27,-1
 354 353 l 2,28,29
 359 375 359 375 359 391 c 0,16,17
453.5 664.5 m 128,-1,31
 463 653 463 653 463 631.5 c 128,-1,32
 463 610 463 610 445 589 c 128,-1,33
 427 568 427 568 409 568 c 128,-1,34
 391 568 391 568 381.5 579.5 c 128,-1,35
 372 591 372 591 372 612 c 128,-1,36
 372 633 372 633 389.5 654.5 c 128,-1,37
 407 676 407 676 425.5 676 c 128,-1,30
 444 676 444 676 453.5 664.5 c 128,-1,31
301.5 664.5 m 128,-1,39
 311 653 311 653 311 631.5 c 128,-1,40
 311 610 311 610 293 589 c 128,-1,41
 275 568 275 568 257 568 c 128,-1,42
 239 568 239 568 229.5 579.5 c 128,-1,43
 220 591 220 591 220 612 c 128,-1,44
 220 633 220 633 237.5 654.5 c 128,-1,45
 255 676 255 676 273.5 676 c 128,-1,38
 292 676 292 676 301.5 664.5 c 128,-1,39
EndSplineSet
EndChar

StartChar: oslash
Encoding: 248 248 169
Width: 416
GlyphClass: 2
Flags: W
LayerCount: 2
Fore
SplineSet
161 118 m 2,0,1
 156 95 156 95 156 70 c 128,-1,2
 156 45 156 45 175 31 c 1,3,-1
 309 450 l 1,4,-1
 303 451 l 1,5,6
 232 451 232 451 211 353 c 2,7,-1
 161 118 l 2,0,1
214 20 m 2,8,9
 283 20 283 20 304 118 c 2,10,-1
 354 353 l 2,11,12
 358 372 358 372 358 399 c 128,-1,13
 358 426 358 426 341 440 c 1,14,-1
 207 21 l 1,15,-1
 212 20 l 1,16,-1
 214 20 l 2,8,9
437 359 m 0,17,18
 437 341 437 341 432 314 c 2,19,-1
 399 157 l 2,20,21
 383 84 383 84 331.5 37 c 128,-1,22
 280 -10 280 -10 205 -10 c 2,23,-1
 197 -10 l 1,24,-1
 188 -39 l 1,25,-1
 154 -35 l 1,26,-1
 164 -4 l 1,27,28
 78 17 78 17 78 112 c 0,29,30
 78 130 78 130 83 157 c 2,31,-1
 116 314 l 2,32,33
 132 387 132 387 183.5 433.5 c 128,-1,34
 235 480 235 480 310 480 c 2,35,-1
 319 480 l 1,36,-1
 328 511 l 1,37,-1
 362 507 l 1,38,-1
 351 475 l 1,39,40
 437 454 437 454 437 359 c 0,17,18
EndSplineSet
EndChar

StartChar: ugrave
Encoding: 249 249 170
Width: 444
GlyphClass: 2
Flags: W
LayerCount: 2
Fore
SplineSet
379 57 m 0,0,1
 379 40 379 40 398 40 c 128,-1,2
 417 40 417 40 435 72 c 1,3,-1
 453 68 l 1,4,5
 442 36 442 36 428 22 c 0,6,7
 396 -10 396 -10 358 -10 c 0,8,9
 294 -10 294 -10 294 53 c 2,10,-1
 294 64 l 1,11,12
 250 -10 250 -10 178 -10 c 0,13,14
 129 -10 129 -10 102.5 19 c 128,-1,15
 76 48 76 48 76 100 c 0,16,17
 76 125 76 125 81 149 c 2,18,-1
 149 470 l 1,19,-1
 236 470 l 1,20,-1
 161 115 l 2,21,22
 156 90 156 90 156 73 c 0,23,24
 156 22 156 22 198 22 c 128,-1,25
 240 22 240 22 269 55 c 128,-1,26
 298 88 298 88 308 137 c 2,27,-1
 378 470 l 1,28,-1
 465 470 l 1,29,-1
 381 74 l 2,30,31
 379 62 379 62 379 57 c 0,0,1
208 626 m 1,32,33
 197 637 197 637 197 651 c 128,-1,34
 197 665 197 665 210 677.5 c 128,-1,35
 223 690 223 690 240 690 c 128,-1,36
 257 690 257 690 266 674 c 2,37,-1
 340 539 l 1,38,-1
 323 526 l 1,39,-1
 208 626 l 1,32,33
EndSplineSet
EndChar

StartChar: uacute
Encoding: 250 250 171
Width: 444
GlyphClass: 2
Flags: W
LayerCount: 2
Fore
SplineSet
379 57 m 0,0,1
 379 40 379 40 398 40 c 128,-1,2
 417 40 417 40 435 72 c 1,3,-1
 453 68 l 1,4,5
 442 36 442 36 428 22 c 0,6,7
 396 -10 396 -10 358 -10 c 0,8,9
 294 -10 294 -10 294 53 c 2,10,-1
 294 64 l 1,11,12
 250 -10 250 -10 178 -10 c 0,13,14
 129 -10 129 -10 102.5 19 c 128,-1,15
 76 48 76 48 76 100 c 0,16,17
 76 125 76 125 81 149 c 2,18,-1
 149 470 l 1,19,-1
 236 470 l 1,20,-1
 161 115 l 2,21,22
 156 90 156 90 156 73 c 0,23,24
 156 22 156 22 198 22 c 128,-1,25
 240 22 240 22 269 55 c 128,-1,26
 298 88 298 88 308 137 c 2,27,-1
 378 470 l 1,28,-1
 465 470 l 1,29,-1
 381 74 l 2,30,31
 379 62 379 62 379 57 c 0,0,1
350 674 m 2,32,33
 359 690 359 690 375.5 690 c 128,-1,34
 392 690 392 690 405.5 677.5 c 128,-1,35
 419 665 419 665 419 650.5 c 128,-1,36
 419 636 419 636 408 627 c 2,37,-1
 293 527 l 1,38,-1
 276 539 l 1,39,-1
 350 674 l 2,32,33
EndSplineSet
EndChar

StartChar: ucircumflex
Encoding: 251 251 172
Width: 444
GlyphClass: 2
Flags: W
LayerCount: 2
Fore
SplineSet
379 57 m 0,0,1
 379 40 379 40 398 40 c 128,-1,2
 417 40 417 40 435 72 c 1,3,-1
 453 68 l 1,4,5
 442 36 442 36 428 22 c 0,6,7
 396 -10 396 -10 358 -10 c 0,8,9
 294 -10 294 -10 294 53 c 2,10,-1
 294 64 l 1,11,12
 250 -10 250 -10 178 -10 c 0,13,14
 129 -10 129 -10 102.5 19 c 128,-1,15
 76 48 76 48 76 100 c 0,16,17
 76 125 76 125 81 149 c 2,18,-1
 149 470 l 1,19,-1
 236 470 l 1,20,-1
 161 115 l 2,21,22
 156 90 156 90 156 73 c 0,23,24
 156 22 156 22 198 22 c 128,-1,25
 240 22 240 22 269 55 c 128,-1,26
 298 88 298 88 308 137 c 2,27,-1
 378 470 l 1,28,-1
 465 470 l 1,29,-1
 381 74 l 2,30,31
 379 62 379 62 379 57 c 0,0,1
308 673 m 1,32,33
 319 690 319 690 338.5 690 c 128,-1,34
 358 690 358 690 366 673 c 1,35,-1
 414 547 l 1,36,-1
 400 537 l 1,37,-1
 329 634 l 1,38,-1
 216 537 l 1,39,-1
 206 547 l 1,40,-1
 308 673 l 1,32,33
EndSplineSet
EndChar

StartChar: udieresis
Encoding: 252 252 173
Width: 444
GlyphClass: 2
Flags: W
LayerCount: 2
Fore
SplineSet
379 57 m 0,0,1
 379 40 379 40 398 40 c 128,-1,2
 417 40 417 40 435 72 c 1,3,-1
 453 68 l 1,4,5
 442 36 442 36 428 22 c 0,6,7
 396 -10 396 -10 358 -10 c 0,8,9
 294 -10 294 -10 294 53 c 2,10,-1
 294 64 l 1,11,12
 250 -10 250 -10 178 -10 c 0,13,14
 129 -10 129 -10 102.5 19 c 128,-1,15
 76 48 76 48 76 100 c 0,16,17
 76 125 76 125 81 149 c 2,18,-1
 149 470 l 1,19,-1
 236 470 l 1,20,-1
 161 115 l 2,21,22
 156 90 156 90 156 73 c 0,23,24
 156 22 156 22 198 22 c 128,-1,25
 240 22 240 22 269 55 c 128,-1,26
 298 88 298 88 308 137 c 2,27,-1
 378 470 l 1,28,-1
 465 470 l 1,29,-1
 381 74 l 2,30,31
 379 62 379 62 379 57 c 0,0,1
446.5 664.5 m 128,-1,33
 456 653 456 653 456 631.5 c 128,-1,34
 456 610 456 610 438 589 c 128,-1,35
 420 568 420 568 402 568 c 128,-1,36
 384 568 384 568 374.5 579.5 c 128,-1,37
 365 591 365 591 365 612 c 128,-1,38
 365 633 365 633 382.5 654.5 c 128,-1,39
 400 676 400 676 418.5 676 c 128,-1,32
 437 676 437 676 446.5 664.5 c 128,-1,33
294.5 664.5 m 128,-1,41
 304 653 304 653 304 631.5 c 128,-1,42
 304 610 304 610 286 589 c 128,-1,43
 268 568 268 568 250 568 c 128,-1,44
 232 568 232 568 222.5 579.5 c 128,-1,45
 213 591 213 591 213 612 c 128,-1,46
 213 633 213 633 230.5 654.5 c 128,-1,47
 248 676 248 676 266.5 676 c 128,-1,40
 285 676 285 676 294.5 664.5 c 128,-1,41
EndSplineSet
EndChar

StartChar: yacute
Encoding: 253 253 174
Width: 421
GlyphClass: 2
Flags: W
LayerCount: 2
Fore
SplineSet
112 394 m 0,0,1
 112 409 112 409 124 470 c 1,2,-1
 203 470 l 1,3,4
 184 378 184 378 184 369 c 0,5,6
 184 336 184 336 207.5 315.5 c 128,-1,7
 231 295 231 295 275 295 c 128,-1,8
 319 295 319 295 355 322 c 128,-1,9
 391 349 391 349 399 388 c 2,10,-1
 416 470 l 1,11,-1
 495 470 l 1,12,-1
 486 424 l 1,13,14
 474 368 474 368 425.5 326 c 128,-1,15
 377 284 377 284 311 273 c 1,16,-1
 253 0 l 1,17,-1
 167 0 l 1,18,-1
 225 273 l 1,19,20
 173 283 173 283 142.5 315.5 c 128,-1,21
 112 348 112 348 112 394 c 0,0,1
345 674 m 2,22,23
 354 690 354 690 370.5 690 c 128,-1,24
 387 690 387 690 400.5 677.5 c 128,-1,25
 414 665 414 665 414 650.5 c 128,-1,26
 414 636 414 636 403 627 c 2,27,-1
 288 527 l 1,28,-1
 271 539 l 1,29,-1
 345 674 l 2,22,23
EndSplineSet
EndChar

StartChar: thorn
Encoding: 254 254 175
Width: 426
GlyphClass: 2
Flags: W
LayerCount: 2
Fore
SplineSet
347 33.5 m 128,-1,1
 302 -10 302 -10 237.5 -10 c 128,-1,2
 173 -10 173 -10 158 59 c 1,3,-1
 115 -145 l 1,4,-1
 29 -145 l 1,5,-1
 206 690 l 1,6,-1
 292 690 l 1,7,-1
 233 411 l 1,8,9
 277 480 277 480 347 480 c 0,10,11
 396 480 396 480 423 451 c 128,-1,12
 450 422 450 422 450 371 c 0,13,14
 450 349 450 349 444 322 c 2,15,-1
 407 149 l 2,16,0
 392 77 392 77 347 33.5 c 128,-1,1
368 399 m 0,17,18
 368 450 368 450 326.5 450 c 128,-1,19
 285 450 285 450 255.5 416.5 c 128,-1,20
 226 383 226 383 216 334 c 2,21,-1
 175 137 l 2,22,23
 171 121 171 121 171 94 c 128,-1,24
 171 67 171 67 186.5 44.5 c 128,-1,25
 202 22 202 22 233 22 c 0,26,27
 292 22 292 22 312 115 c 2,28,-1
 363 356 l 2,29,30
 368 376 368 376 368 399 c 0,17,18
EndSplineSet
EndChar

StartChar: ydieresis
Encoding: 255 255 176
Width: 421
GlyphClass: 2
Flags: W
LayerCount: 2
Fore
SplineSet
112 394 m 0,0,1
 112 409 112 409 124 470 c 1,2,-1
 203 470 l 1,3,4
 184 378 184 378 184 369 c 0,5,6
 184 336 184 336 207.5 315.5 c 128,-1,7
 231 295 231 295 275 295 c 128,-1,8
 319 295 319 295 355 322 c 128,-1,9
 391 349 391 349 399 388 c 2,10,-1
 416 470 l 1,11,-1
 495 470 l 1,12,-1
 486 424 l 1,13,14
 474 368 474 368 425.5 326 c 128,-1,15
 377 284 377 284 311 273 c 1,16,-1
 253 0 l 1,17,-1
 167 0 l 1,18,-1
 225 273 l 1,19,20
 173 283 173 283 142.5 315.5 c 128,-1,21
 112 348 112 348 112 394 c 0,0,1
453.5 664.5 m 128,-1,23
 463 653 463 653 463 631.5 c 128,-1,24
 463 610 463 610 445 589 c 128,-1,25
 427 568 427 568 409 568 c 128,-1,26
 391 568 391 568 381.5 579.5 c 128,-1,27
 372 591 372 591 372 612 c 128,-1,28
 372 633 372 633 389.5 654.5 c 128,-1,29
 407 676 407 676 425.5 676 c 128,-1,22
 444 676 444 676 453.5 664.5 c 128,-1,23
301.5 664.5 m 128,-1,31
 311 653 311 653 311 631.5 c 128,-1,32
 311 610 311 610 293 589 c 128,-1,33
 275 568 275 568 257 568 c 128,-1,34
 239 568 239 568 229.5 579.5 c 128,-1,35
 220 591 220 591 220 612 c 128,-1,36
 220 633 220 633 237.5 654.5 c 128,-1,37
 255 676 255 676 273.5 676 c 128,-1,30
 292 676 292 676 301.5 664.5 c 128,-1,31
EndSplineSet
EndChar

StartChar: dotlessi
Encoding: 305 305 177
Width: 225
GlyphClass: 2
Flags: W
LayerCount: 2
Fore
SplineSet
159 58 m 0,0,1
 159 40 159 40 177.5 40 c 128,-1,2
 196 40 196 40 216 72 c 1,3,-1
 234 69 l 1,4,5
 217 18 217 18 176 -2 c 0,6,7
 159 -10 159 -10 139 -10 c 0,8,9
 74 -10 74 -10 74 54 c 0,10,11
 74 67 74 67 78 89 c 2,12,-1
 159 470 l 1,13,-1
 245 470 l 1,14,15
 159 65 159 65 159 58 c 0,0,1
EndSplineSet
EndChar

StartChar: Lslash
Encoding: 321 321 178
Width: 385
GlyphClass: 2
Flags: W
LayerCount: 2
Fore
SplineSet
392 412 m 1,0,-1
 252 358 l 1,1,-1
 185 47 l 1,2,-1
 369 47 l 1,3,-1
 360 0 l 1,4,-1
 68 0 l 1,5,-1
 134 314 l 1,6,-1
 87 296 l 1,7,-1
 75 356 l 1,8,-1
 149 384 l 1,9,-1
 214 690 l 1,10,-1
 322 690 l 1,11,-1
 267 429 l 1,12,-1
 380 472 l 1,13,-1
 392 412 l 1,0,-1
EndSplineSet
EndChar

StartChar: lslash
Encoding: 322 322 179
Width: 226
GlyphClass: 2
Flags: W
LayerCount: 2
Fore
SplineSet
160 57 m 0,0,1
 160 40 160 40 179.5 40 c 128,-1,2
 199 40 199 40 217 72 c 1,3,-1
 235 69 l 1,4,5
 218 18 218 18 178 -2 c 0,6,7
 160 -10 160 -10 139 -10 c 0,8,9
 75 -10 75 -10 75 53 c 0,10,11
 75 65 75 65 79 89 c 1,12,-1
 130 328 l 1,13,-1
 79 308 l 1,14,-1
 66 367 l 1,15,-1
 145 399 l 1,16,-1
 207 690 l 1,17,-1
 293 690 l 1,18,-1
 239 436 l 1,19,-1
 323 470 l 1,20,-1
 337 410 l 1,21,-1
 224 365 l 1,22,23
 160 65 160 65 160 57 c 0,0,1
EndSplineSet
EndChar

StartChar: OE
Encoding: 338 338 180
Width: 933
GlyphClass: 2
Flags: W
LayerCount: 2
Fore
SplineSet
539 559 m 0,0,1
 539 608 539 608 514.5 636.5 c 128,-1,2
 490 665 490 665 432.5 665 c 128,-1,3
 375 665 375 665 333.5 622.5 c 128,-1,4
 292 580 292 580 277 509 c 2,5,-1
 207 182 l 2,6,7
 201 155 201 155 201 130 c 0,8,9
 201 81 201 81 226.5 53 c 128,-1,10
 252 25 252 25 309 25 c 128,-1,11
 366 25 366 25 407.5 68 c 128,-1,12
 449 111 449 111 464 182 c 2,13,-1
 534 509 l 2,14,15
 539 534 539 534 539 559 c 0,0,1
498 75 m 1,16,17
 418 -10 418 -10 295 -10 c 0,18,19
 201 -10 201 -10 153 39 c 128,-1,20
 105 88 105 88 105 175 c 0,21,22
 105 210 105 210 115 260 c 2,23,-1
 151 430 l 2,24,25
 177 554 177 554 253.5 627 c 128,-1,26
 330 700 330 700 449 700 c 128,-1,27
 568 700 568 700 613 615 c 1,28,29
 698 700 698 700 812 700 c 0,30,31
 886 700 886 700 937 659.5 c 128,-1,32
 988 619 988 619 988 546 c 0,33,34
 988 532 988 532 981 486 c 1,35,-1
 896 486 l 1,36,37
 906 537 906 537 906 560 c 0,38,39
 906 609 906 609 881 637 c 128,-1,40
 856 665 856 665 798.5 665 c 128,-1,41
 741 665 741 665 699.5 622 c 128,-1,42
 658 579 658 579 643 508 c 2,43,-1
 618 388 l 1,44,-1
 881 388 l 1,45,-1
 871 341 l 1,46,-1
 608 341 l 1,47,-1
 574 182 l 2,48,49
 568 155 568 155 568 130 c 0,50,51
 568 81 568 81 593 53 c 128,-1,52
 618 25 618 25 669 25 c 0,53,54
 791 25 791 25 831 182 c 1,55,-1
 837 204 l 1,56,-1
 921 204 l 1,57,58
 905 124 905 124 857 75 c 0,59,60
 772 -10 772 -10 659.5 -10 c 128,-1,61
 547 -10 547 -10 498 75 c 1,16,17
EndSplineSet
EndChar

StartChar: oe
Encoding: 339 339 181
Width: 611
GlyphClass: 2
Flags: W
LayerCount: 2
Fore
SplineSet
359 391 m 0,0,1
 359 450 359 450 303 450 c 0,2,3
 232 450 232 450 211 353 c 2,4,-1
 161 118 l 2,5,6
 156 96 156 96 156 80 c 0,7,8
 156 20 156 20 212 20 c 0,9,10
 283 20 283 20 304 118 c 2,11,-1
 354 353 l 2,12,13
 359 375 359 375 359 391 c 0,0,1
386 79 m 0,14,15
 386 20 386 20 450 20 c 0,16,17
 493 20 493 20 522.5 55 c 128,-1,18
 552 90 552 90 557 115 c 1,19,-1
 579 115 l 1,20,21
 573 83 573 83 540 41 c 0,22,23
 523 19 523 19 493.5 4.5 c 128,-1,24
 464 -10 464 -10 429 -10 c 0,25,26
 358 -10 358 -10 327 33 c 1,27,28
 274 -10 274 -10 208.5 -10 c 128,-1,29
 143 -10 143 -10 110.5 23.5 c 128,-1,30
 78 57 78 57 78 112 c 0,31,32
 78 130 78 130 83 157 c 2,33,-1
 116 314 l 2,34,35
 132 387 132 387 183.5 433.5 c 128,-1,36
 235 480 235 480 307.5 480 c 128,-1,37
 380 480 380 480 414 436 c 1,38,39
 466 480 466 480 539 480 c 0,40,41
 639 480 639 480 639 371 c 0,42,43
 639 348 639 348 632 311 c 2,44,-1
 615 232 l 1,45,-1
 415 232 l 1,46,-1
 391 118 l 2,47,48
 386 95 386 95 386 79 c 0,14,15
588 390 m 0,49,50
 588 450 588 450 534 450 c 0,51,52
 462 450 462 450 441 353 c 2,53,-1
 421 262 l 1,54,-1
 564 262 l 1,55,-1
 584 353 l 2,56,57
 588 372 588 372 588 390 c 0,49,50
EndSplineSet
EndChar

StartChar: Scaron
Encoding: 352 352 182
Width: 482
GlyphClass: 2
Flags: W
LayerCount: 2
Fore
SplineSet
488 211 m 0,0,1
 488 118 488 118 415 54 c 128,-1,2
 342 -10 342 -10 239 -10 c 0,3,4
 65 -10 65 -10 65 123 c 0,5,6
 65 147 65 147 74 184 c 1,7,-1
 153 184 l 1,8,9
 142 134 142 134 142 111 c 0,10,11
 142 25 142 25 241 25 c 0,12,13
 299 25 299 25 342 62.5 c 128,-1,14
 385 100 385 100 385 157 c 0,15,16
 385 185 385 185 364 207 c 2,17,-1
 197 385 l 2,18,19
 164 419 164 419 164 476 c 0,20,21
 164 565 164 565 228.5 632.5 c 128,-1,22
 293 700 293 700 392 700 c 0,23,24
 463 700 463 700 497.5 668 c 128,-1,25
 532 636 532 636 532 591 c 1,26,-1
 530 563 l 1,27,-1
 497 563 l 1,28,29
 498 569 498 569 498 576 c 0,30,31
 498 609 498 609 474 637 c 128,-1,32
 450 665 450 665 395.5 665 c 128,-1,33
 341 665 341 665 302 628 c 128,-1,34
 263 591 263 591 263 528 c 0,35,36
 263 493 263 493 285 470 c 2,37,-1
 457 286 l 2,38,39
 488 254 488 254 488 211 c 0,0,1
452 776 m 2,40,41
 439 759 439 759 419.5 759 c 128,-1,42
 400 759 400 759 394 776 c 2,43,-1
 346 902 l 1,44,-1
 362 912 l 1,45,-1
 433 815 l 1,46,-1
 542 912 l 1,47,-1
 554 902 l 1,48,-1
 452 776 l 2,40,41
EndSplineSet
EndChar

StartChar: scaron
Encoding: 353 353 183
Width: 356
GlyphClass: 2
Flags: W
LayerCount: 2
Fore
SplineSet
283 26.5 m 128,-1,1
 237 -10 237 -10 173 -10 c 128,-1,2
 109 -10 109 -10 85 16.5 c 128,-1,3
 61 43 61 43 61 82 c 0,4,5
 61 100 61 100 64 113 c 1,6,-1
 89 113 l 1,7,8
 86 94 86 94 86 87 c 0,9,10
 86 56 86 56 106.5 38 c 128,-1,11
 127 20 127 20 163 20 c 0,12,13
 244 20 244 20 259 90 c 0,14,15
 261 102 261 102 261 114.5 c 128,-1,16
 261 127 261 127 244 147 c 2,17,-1
 141 261 l 2,18,19
 114 290 114 290 114 331 c 0,20,21
 114 342 114 342 117 356 c 0,22,23
 129 411 129 411 173 445.5 c 128,-1,24
 217 480 217 480 270.5 480 c 128,-1,25
 324 480 324 480 346.5 456.5 c 128,-1,26
 369 433 369 433 369 396 c 0,27,28
 369 380 369 380 366 365 c 1,29,-1
 341 365 l 1,30,31
 344 386 344 386 344 391 c 0,32,33
 344 418 344 418 325.5 434 c 128,-1,34
 307 450 307 450 276 450 c 0,35,36
 206 450 206 450 193 387 c 0,37,38
 191 377 191 377 191 373 c 0,39,40
 191 350 191 350 210 328 c 2,41,-1
 319 207 l 2,42,43
 344 179 344 179 344 146 c 0,44,45
 344 134 344 134 341 119 c 0,46,0
 329 63 329 63 283 26.5 c 128,-1,1
320 554 m 2,47,48
 307 537 307 537 287.5 537 c 128,-1,49
 268 537 268 537 262 554 c 2,50,-1
 214 680 l 1,51,-1
 230 690 l 1,52,-1
 301 593 l 1,53,-1
 410 690 l 1,54,-1
 422 680 l 1,55,-1
 320 554 l 2,47,48
EndSplineSet
EndChar

StartChar: Ydieresis
Encoding: 376 376 184
Width: 565
GlyphClass: 2
Flags: W
LayerCount: 2
Fore
SplineSet
148 552 m 0,0,1
 148 581 148 581 154 611 c 2,2,-1
 171 690 l 1,3,-1
 280 690 l 1,4,-1
 248 538 l 2,5,6
 244 521 244 521 244 500 c 0,7,8
 244 447 244 447 276 414.5 c 128,-1,9
 308 382 308 382 368.5 382 c 128,-1,10
 429 382 429 382 479.5 426 c 128,-1,11
 530 470 530 470 544 538 c 2,12,-1
 576 690 l 1,13,-1
 686 690 l 1,14,-1
 669 611 l 2,15,16
 649 514 649 514 577.5 442.5 c 128,-1,17
 506 371 506 371 411 353 c 1,18,-1
 337 0 l 1,19,-1
 228 0 l 1,20,-1
 302 352 l 1,21,22
 230 368 230 368 189 422 c 128,-1,23
 148 476 148 476 148 552 c 0,0,1
565.5 854.5 m 128,-1,25
 575 843 575 843 575 821.5 c 128,-1,26
 575 800 575 800 557 779 c 128,-1,27
 539 758 539 758 521 758 c 128,-1,28
 503 758 503 758 493.5 769.5 c 128,-1,29
 484 781 484 781 484 802.5 c 128,-1,30
 484 824 484 824 501.5 845 c 128,-1,31
 519 866 519 866 537.5 866 c 128,-1,24
 556 866 556 866 565.5 854.5 c 128,-1,25
413.5 854.5 m 128,-1,33
 423 843 423 843 423 821.5 c 128,-1,34
 423 800 423 800 405 779 c 128,-1,35
 387 758 387 758 369 758 c 128,-1,36
 351 758 351 758 341.5 769.5 c 128,-1,37
 332 781 332 781 332 802.5 c 128,-1,38
 332 824 332 824 349.5 845 c 128,-1,39
 367 866 367 866 385.5 866 c 128,-1,32
 404 866 404 866 413.5 854.5 c 128,-1,33
EndSplineSet
EndChar

StartChar: Zcaron
Encoding: 381 381 185
Width: 525
GlyphClass: 2
Flags: W
LayerCount: 2
Fore
SplineSet
495 0 m 1,0,-1
 30 0 l 1,1,-1
 482 643 l 1,2,-1
 174 643 l 1,3,-1
 184 690 l 1,4,-1
 625 690 l 1,5,-1
 172 47 l 1,6,-1
 504 47 l 1,7,-1
 495 0 l 1,0,-1
494 776 m 2,8,9
 481 759 481 759 461.5 759 c 128,-1,10
 442 759 442 759 436 776 c 2,11,-1
 388 902 l 1,12,-1
 404 912 l 1,13,-1
 475 815 l 1,14,-1
 584 912 l 1,15,-1
 596 902 l 1,16,-1
 494 776 l 2,8,9
EndSplineSet
EndChar

StartChar: zcaron
Encoding: 382 382 186
Width: 355
GlyphClass: 2
Flags: W
LayerCount: 2
Fore
SplineSet
424 470 m 1,0,-1
 135 30 l 1,1,-1
 319 30 l 1,2,-1
 313 0 l 1,3,-1
 30 0 l 1,4,-1
 319 440 l 1,5,-1
 134 440 l 1,6,-1
 140 470 l 1,7,-1
 424 470 l 1,0,-1
340 554 m 2,8,9
 327 537 327 537 307.5 537 c 128,-1,10
 288 537 288 537 282 554 c 2,11,-1
 234 680 l 1,12,-1
 250 690 l 1,13,-1
 321 593 l 1,14,-1
 430 690 l 1,15,-1
 442 680 l 1,16,-1
 340 554 l 2,8,9
EndSplineSet
EndChar

StartChar: florin
Encoding: 402 402 187
Width: 433
GlyphClass: 2
Flags: W
LayerCount: 2
Fore
SplineSet
471 596 m 0,0,1
 471 655 471 655 436 655 c 0,2,3
 397 655 397 655 381 577 c 2,4,-1
 329 330 l 1,5,-1
 414 330 l 1,6,-1
 407 300 l 1,7,-1
 322 300 l 1,8,-1
 259 0 l 2,9,10
 244 -68 244 -68 209.5 -105.5 c 128,-1,11
 175 -143 175 -143 132 -143 c 0,12,13
 72 -143 72 -143 64 -87 c 1,14,-1
 48 -163 l 1,15,-1
 25 -163 l 1,16,-1
 68 42 l 1,17,-1
 91 42 l 1,18,19
 77 -26 77 -26 77 -48 c 0,20,21
 77 -108 77 -108 113.5 -108 c 128,-1,22
 150 -108 150 -108 164 -43 c 2,23,-1
 237 300 l 1,24,-1
 204 300 l 1,25,-1
 211 330 l 1,26,-1
 244 330 l 1,27,-1
 290 547 l 2,28,29
 304 614 304 614 338.5 652 c 128,-1,30
 373 690 373 690 416 690 c 0,31,32
 476 690 476 690 484 634 c 1,33,-1
 500 710 l 1,34,-1
 523 710 l 1,35,-1
 480 505 l 1,36,-1
 457 505 l 1,37,38
 471 573 471 573 471 596 c 0,0,1
EndSplineSet
EndChar

StartChar: circumflex
Encoding: 710 710 188
Width: 308
GlyphClass: 2
Flags: W
LayerCount: 2
Fore
SplineSet
152 673 m 1,0,1
 163 690 163 690 182.5 690 c 128,-1,2
 202 690 202 690 210 673 c 1,3,-1
 258 547 l 1,4,-1
 244 537 l 1,5,-1
 173 634 l 1,6,-1
 60 537 l 1,7,-1
 50 547 l 1,8,-1
 152 673 l 1,0,1
EndSplineSet
EndChar

StartChar: caron
Encoding: 711 711 189
Width: 308
GlyphClass: 2
Flags: W
LayerCount: 2
Fore
SplineSet
156 554 m 2,0,1
 143 537 143 537 123.5 537 c 128,-1,2
 104 537 104 537 98 554 c 2,3,-1
 50 680 l 1,4,-1
 66 690 l 1,5,-1
 137 593 l 1,6,-1
 246 690 l 1,7,-1
 258 680 l 1,8,-1
 156 554 l 2,0,1
EndSplineSet
EndChar

StartChar: breve
Encoding: 728 728 190
Width: 356
GlyphClass: 2
Flags: W
LayerCount: 2
Fore
SplineSet
387.5 567 m 128,-1,1
 346 535 346 535 294 535 c 128,-1,2
 242 535 242 535 214.5 560 c 128,-1,3
 187 585 187 585 187 630 c 0,4,5
 187 637 187 637 189 655 c 1,6,-1
 215 655 l 1,7,8
 224 594 224 594 305.5 594 c 128,-1,9
 387 594 387 594 418 655 c 1,10,-1
 445 655 l 1,11,0
 429 599 429 599 387.5 567 c 128,-1,1
EndSplineSet
EndChar

StartChar: dotaccent
Encoding: 729 729 191
Width: 188
GlyphClass: 2
Flags: W
LayerCount: 2
Fore
SplineSet
235.5 675 m 128,-1,1
 252 675 252 675 261.5 663.5 c 128,-1,2
 271 652 271 652 271 639 c 0,3,4
 271 605 271 605 251.5 587 c 128,-1,5
 232 569 232 569 215.5 569 c 128,-1,6
 199 569 199 569 190 580.5 c 128,-1,7
 181 592 181 592 181 604 c 0,8,9
 181 639 181 639 200 657 c 128,-1,0
 219 675 219 675 235.5 675 c 128,-1,1
EndSplineSet
EndChar

StartChar: ring
Encoding: 730 730 192
Width: 223
GlyphClass: 2
Flags: W
LayerCount: 2
Fore
SplineSet
143.5 574.5 m 128,-1,1
 123 556 123 556 100 556 c 128,-1,2
 77 556 77 556 64 569.5 c 128,-1,3
 51 583 51 583 51 597 c 128,-1,4
 51 611 51 611 55 631.5 c 128,-1,5
 59 652 59 652 80 671 c 128,-1,6
 101 690 101 690 124 690 c 128,-1,7
 147 690 147 690 160 676 c 128,-1,8
 173 662 173 662 173 648.5 c 128,-1,9
 173 635 173 635 168.5 614 c 128,-1,0
 164 593 164 593 143.5 574.5 c 128,-1,1
130 592.5 m 128,-1,11
 143 605 143 605 145.5 616 c 128,-1,12
 148 627 148 627 148 637 c 128,-1,13
 148 647 148 647 140.5 656 c 128,-1,14
 133 665 133 665 120 665 c 128,-1,15
 107 665 107 665 94 652 c 0,16,17
 76 635 76 635 76 617 c 0,18,19
 76 580 76 580 103 580 c 0,20,10
 117 580 117 580 130 592.5 c 128,-1,11
EndSplineSet
EndChar

StartChar: ogonek
Encoding: 731 731 193
Width: 231
GlyphClass: 2
Flags: W
LayerCount: 2
Fore
SplineSet
50 0 m 1,0,-1
 121 0 l 1,1,-1
 121 -5 l 2,2,3
 121 -79 121 -79 181 -103 c 1,4,-1
 176 -119 l 1,5,6
 115 -110 115 -110 82.5 -77.5 c 128,-1,7
 50 -45 50 -45 50 0 c 1,0,-1
EndSplineSet
EndChar

StartChar: tilde
Encoding: 732 732 194
Width: 372
GlyphClass: 2
Flags: W
LayerCount: 2
Fore
SplineSet
235 536 m 128,-1,1
 213 536 213 536 176 554.5 c 128,-1,2
 139 573 139 573 123 573 c 0,3,4
 92 573 92 573 63 544 c 1,5,-1
 50 555 l 1,6,7
 105 619 105 619 159 619 c 0,8,9
 176 619 176 619 207.5 602.5 c 128,-1,10
 239 586 239 586 263 586 c 128,-1,11
 287 586 287 586 309 600 c 1,12,-1
 310 601 l 1,13,-1
 322 591 l 1,14,15
 304 566 304 566 280.5 551 c 128,-1,0
 257 536 257 536 235 536 c 128,-1,1
EndSplineSet
EndChar

StartChar: hungarumlaut
Encoding: 733 733 195
Width: 392
GlyphClass: 2
Flags: W
LayerCount: 2
Fore
SplineSet
123 674 m 1,0,1
 133 690 133 690 149.5 690 c 128,-1,2
 166 690 166 690 179 677.5 c 128,-1,3
 192 665 192 665 192 650 c 128,-1,4
 192 635 192 635 181 627 c 1,5,-1
 67 527 l 1,6,-1
 50 539 l 1,7,-1
 123 674 l 1,0,1
273 674 m 1,8,9
 283 690 283 690 299.5 690 c 128,-1,10
 316 690 316 690 329 677.5 c 128,-1,11
 342 665 342 665 342 650 c 128,-1,12
 342 635 342 635 331 627 c 1,13,-1
 217 527 l 1,14,-1
 200 539 l 1,15,-1
 273 674 l 1,8,9
EndSplineSet
EndChar

StartChar: endash
Encoding: 8211 8211 196
Width: 500
GlyphClass: 2
Flags: W
LayerCount: 2
Fore
SplineSet
553 250 m 1,0,-1
 53 250 l 1,1,-1
 63 300 l 1,2,-1
 563 300 l 1,3,-1
 553 250 l 1,0,-1
EndSplineSet
EndChar

StartChar: emdash
Encoding: 8212 8212 197
Width: 1000
GlyphClass: 2
Flags: W
LayerCount: 2
Fore
SplineSet
1053 250 m 1,0,-1
 53 250 l 1,1,-1
 63 300 l 1,2,-1
 1063 300 l 1,3,-1
 1053 250 l 1,0,-1
EndSplineSet
EndChar

StartChar: quoteleft
Encoding: 8216 8216 198
Width: 204
GlyphClass: 2
Flags: W
LayerCount: 2
Fore
SplineSet
152 480 m 1,0,1
 167 551 167 551 197.5 600 c 128,-1,2
 228 649 228 649 288 688 c 1,3,-1
 298 678 l 1,4,5
 279 659 279 659 263 624 c 128,-1,6
 247 589 247 589 235 539 c 1,7,-1
 223 480 l 1,8,-1
 152 480 l 1,0,1
EndSplineSet
EndChar

StartChar: quoteright
Encoding: 8217 8217 199
Width: 204
GlyphClass: 2
Flags: W
LayerCount: 2
Fore
SplineSet
300 690 m 1,0,1
 285 619 285 619 254.5 570.5 c 128,-1,2
 224 522 224 522 165 482 c 1,3,-1
 154 492 l 1,4,5
 173 511 173 511 189 546 c 128,-1,6
 205 581 205 581 218 631 c 1,7,-1
 230 690 l 1,8,-1
 300 690 l 1,0,1
EndSplineSet
EndChar

StartChar: quotesinglbase
Encoding: 8218 8218 200
Width: 204
GlyphClass: 2
Flags: W
LayerCount: 2
Fore
SplineSet
177 110 m 1,0,1
 161 39 161 39 130.5 -10 c 128,-1,2
 100 -59 100 -59 42 -98 c 1,3,-1
 31 -88 l 1,4,5
 50 -69 50 -69 66 -34 c 128,-1,6
 82 1 82 1 94 51 c 2,7,-1
 107 110 l 1,8,-1
 177 110 l 1,0,1
EndSplineSet
EndChar

StartChar: quotedblleft
Encoding: 8220 8220 201
Width: 345
GlyphClass: 2
Flags: W
LayerCount: 2
Fore
SplineSet
293 480 m 1,0,1
 308 551 308 551 338.5 600 c 128,-1,2
 369 649 369 649 429 688 c 1,3,-1
 439 678 l 1,4,5
 420 659 420 659 404 624 c 128,-1,6
 388 589 388 589 376 539 c 1,7,-1
 364 480 l 1,8,-1
 293 480 l 1,0,1
152 480 m 1,9,10
 167 551 167 551 197.5 600 c 128,-1,11
 228 649 228 649 288 688 c 1,12,-1
 298 678 l 1,13,14
 279 659 279 659 263 624 c 128,-1,15
 247 589 247 589 235 539 c 1,16,-1
 223 480 l 1,17,-1
 152 480 l 1,9,10
EndSplineSet
EndChar

StartChar: quotedblright
Encoding: 8221 8221 202
Width: 345
GlyphClass: 2
Flags: W
LayerCount: 2
Fore
SplineSet
300 690 m 1,0,1
 285 619 285 619 254.5 570.5 c 128,-1,2
 224 522 224 522 165 482 c 1,3,-1
 154 492 l 1,4,5
 173 511 173 511 189 546 c 128,-1,6
 205 581 205 581 218 631 c 1,7,-1
 230 690 l 1,8,-1
 300 690 l 1,0,1
441 690 m 1,9,10
 426 619 426 619 395.5 570.5 c 128,-1,11
 365 522 365 522 306 482 c 1,12,-1
 295 492 l 1,13,14
 314 511 314 511 330 546 c 128,-1,15
 346 581 346 581 359 631 c 1,16,-1
 371 690 l 1,17,-1
 441 690 l 1,9,10
EndSplineSet
EndChar

StartChar: quotedblbase
Encoding: 8222 8222 203
Width: 345
GlyphClass: 2
Flags: W
LayerCount: 2
Fore
SplineSet
177 110 m 1,0,1
 161 39 161 39 130.5 -10 c 128,-1,2
 100 -59 100 -59 42 -98 c 1,3,-1
 31 -88 l 1,4,5
 50 -69 50 -69 66 -34 c 128,-1,6
 82 1 82 1 94 51 c 2,7,-1
 107 110 l 1,8,-1
 177 110 l 1,0,1
318 110 m 1,9,10
 302 39 302 39 271.5 -10 c 128,-1,11
 241 -59 241 -59 183 -98 c 1,12,-1
 172 -88 l 1,13,14
 191 -69 191 -69 207 -34 c 128,-1,15
 223 1 223 1 235 51 c 2,16,-1
 248 110 l 1,17,-1
 318 110 l 1,9,10
EndSplineSet
EndChar

StartChar: dagger
Encoding: 8224 8224 204
Width: 490
GlyphClass: 2
Flags: W
LayerCount: 2
Fore
SplineSet
561 619 m 1,0,-1
 547 554 l 1,1,-1
 416 554 l 1,2,-1
 299 0 l 1,3,-1
 190 0 l 1,4,-1
 307 554 l 1,5,-1
 177 554 l 1,6,-1
 191 619 l 1,7,-1
 321 619 l 1,8,-1
 336 690 l 1,9,-1
 445 690 l 1,10,-1
 430 619 l 1,11,-1
 561 619 l 1,0,-1
EndSplineSet
EndChar

StartChar: daggerdbl
Encoding: 8225 8225 205
Width: 490
GlyphClass: 2
Flags: W
LayerCount: 2
Fore
SplineSet
520 424 m 1,0,-1
 389 424 l 1,1,-1
 299 0 l 1,2,-1
 190 0 l 1,3,-1
 280 424 l 1,4,-1
 150 424 l 1,5,-1
 163 489 l 1,6,-1
 293 489 l 1,7,-1
 307 554 l 1,8,-1
 177 554 l 1,9,-1
 191 619 l 1,10,-1
 321 619 l 1,11,-1
 336 690 l 1,12,-1
 445 690 l 1,13,-1
 430 619 l 1,14,-1
 561 619 l 1,15,-1
 547 554 l 1,16,-1
 416 554 l 1,17,-1
 402 489 l 1,18,-1
 533 489 l 1,19,-1
 520 424 l 1,0,-1
EndSplineSet
EndChar

StartChar: bullet
Encoding: 8226 8226 206
Width: 296
GlyphClass: 2
Flags: W
LayerCount: 2
Fore
SplineSet
142.5 298 m 128,-1,1
 176 330 176 330 213 330 c 128,-1,2
 250 330 250 330 269.5 310 c 128,-1,3
 289 290 289 290 289 254 c 128,-1,4
 289 218 289 218 255.5 186 c 128,-1,5
 222 154 222 154 185 154 c 128,-1,6
 148 154 148 154 128.5 174 c 128,-1,7
 109 194 109 194 109 230 c 128,-1,0
 109 266 109 266 142.5 298 c 128,-1,1
EndSplineSet
EndChar

StartChar: ellipsis
Encoding: 8230 8230 207
Width: 540
GlyphClass: 2
Flags: W
LayerCount: 2
Fore
SplineSet
139 84.5 m 128,-1,1
 149 73 149 73 149 52.5 c 128,-1,2
 149 32 149 32 130.5 11 c 128,-1,3
 112 -10 112 -10 94 -10 c 128,-1,4
 76 -10 76 -10 66.5 1 c 128,-1,5
 57 12 57 12 57 33 c 128,-1,6
 57 54 57 54 74.5 75 c 128,-1,7
 92 96 92 96 110.5 96 c 128,-1,0
 129 96 129 96 139 84.5 c 128,-1,1
315 84.5 m 128,-1,9
 325 73 325 73 325 52.5 c 128,-1,10
 325 32 325 32 306.5 11 c 128,-1,11
 288 -10 288 -10 270 -10 c 128,-1,12
 252 -10 252 -10 242.5 1 c 128,-1,13
 233 12 233 12 233 33 c 128,-1,14
 233 54 233 54 250.5 75 c 128,-1,15
 268 96 268 96 286.5 96 c 128,-1,8
 305 96 305 96 315 84.5 c 128,-1,9
491 84.5 m 128,-1,17
 501 73 501 73 501 52.5 c 128,-1,18
 501 32 501 32 482.5 11 c 128,-1,19
 464 -10 464 -10 446 -10 c 128,-1,20
 428 -10 428 -10 418.5 1 c 128,-1,21
 409 12 409 12 409 33 c 128,-1,22
 409 54 409 54 426.5 75 c 128,-1,23
 444 96 444 96 462.5 96 c 128,-1,16
 481 96 481 96 491 84.5 c 128,-1,17
EndSplineSet
EndChar

StartChar: perthousand
Encoding: 8240 8240 208
Width: 1128
GlyphClass: 2
Flags: W
LayerCount: 2
Fore
SplineSet
683 739 m 1,0,-1
 768 739 l 1,1,-1
 236 -39 l 1,2,-1
 150 -39 l 1,3,-1
 683 739 l 1,0,-1
257 350 m 0,4,5
 136 350 136 350 136 458 c 0,6,7
 136 481 136 481 151 549 c 128,-1,8
 166 617 166 617 211 658.5 c 128,-1,9
 256 700 256 700 331 700 c 0,10,11
 452 700 452 700 452 593 c 0,12,13
 452 570 452 570 437 502 c 128,-1,14
 422 434 422 434 376.5 392 c 128,-1,15
 331 350 331 350 257 350 c 0,4,5
372 624 m 0,16,17
 372 670 372 670 325 670 c 0,18,19
 287 670 287 670 269.5 645 c 128,-1,20
 252 620 252 620 242 573 c 2,21,-1
 222 478 l 2,22,23
 215 446 215 446 215 428 c 0,24,25
 215 380 215 380 263 380 c 0,26,27
 301 380 301 380 318 405 c 128,-1,28
 335 430 335 430 345 478 c 2,29,-1
 365 573 l 2,30,31
 372 604 372 604 372 624 c 0,16,17
580 -10 m 0,32,33
 460 -10 460 -10 460 97 c 0,34,35
 460 118 460 118 474.5 187 c 128,-1,36
 489 256 489 256 534.5 298 c 128,-1,37
 580 340 580 340 655 340 c 0,38,39
 775 340 775 340 775 232 c 0,40,41
 775 211 775 211 760.5 142 c 128,-1,42
 746 73 746 73 700.5 31.5 c 128,-1,43
 655 -10 655 -10 580 -10 c 0,32,33
695 263 m 0,44,45
 695 310 695 310 648 310 c 0,46,47
 610 310 610 310 592.5 284.5 c 128,-1,48
 575 259 575 259 565 212 c 2,49,-1
 545 117 l 2,50,51
 539 91 539 91 539 69 c 0,52,53
 539 20 539 20 587 20 c 0,54,55
 625 20 625 20 641.5 44.5 c 128,-1,56
 658 69 658 69 668 117 c 2,57,-1
 688 212 l 2,58,59
 695 243 695 243 695 263 c 0,44,45
929 -10 m 0,60,61
 809 -10 809 -10 809 97 c 0,62,63
 809 118 809 118 823.5 187 c 128,-1,64
 838 256 838 256 883.5 298 c 128,-1,65
 929 340 929 340 1004 340 c 0,66,67
 1124 340 1124 340 1124 232 c 0,68,69
 1124 211 1124 211 1109.5 142 c 128,-1,70
 1095 73 1095 73 1049.5 31.5 c 128,-1,71
 1004 -10 1004 -10 929 -10 c 0,60,61
1044 263 m 0,72,73
 1044 310 1044 310 997 310 c 0,74,75
 959 310 959 310 941.5 284.5 c 128,-1,76
 924 259 924 259 914 212 c 2,77,-1
 894 117 l 2,78,79
 888 91 888 91 888 69 c 0,80,81
 888 20 888 20 936 20 c 0,82,83
 974 20 974 20 990.5 44.5 c 128,-1,84
 1007 69 1007 69 1017 117 c 2,85,-1
 1037 212 l 2,86,87
 1044 243 1044 243 1044 263 c 0,72,73
EndSplineSet
EndChar

StartChar: guilsinglleft
Encoding: 8249 8249 209
Width: 274
GlyphClass: 2
Flags: W
LayerCount: 2
Fore
SplineSet
259 183 m 2,0,1
 261 179 261 179 261 175 c 128,-1,2
 261 171 261 171 250.5 163.5 c 128,-1,3
 240 156 240 156 234.5 156 c 128,-1,4
 229 156 229 156 226 159 c 2,5,-1
 117 302 l 2,6,7
 115 304 115 304 115 310.5 c 128,-1,8
 115 317 115 317 121 323 c 2,9,-1
 292 467 l 2,10,11
 295 470 295 470 300.5 470 c 128,-1,12
 306 470 306 470 312.5 464.5 c 128,-1,13
 319 459 319 459 319 453.5 c 128,-1,14
 319 448 319 448 317 446 c 2,15,-1
 199 313 l 1,16,-1
 259 183 l 2,0,1
EndSplineSet
EndChar

StartChar: guilsinglright
Encoding: 8250 8250 210
Width: 274
GlyphClass: 2
Flags: W
LayerCount: 2
Fore
SplineSet
146 447 m 2,0,1
 145 449 145 449 145 452.5 c 128,-1,2
 145 456 145 456 155 463 c 128,-1,3
 165 470 165 470 171 470 c 128,-1,4
 177 470 177 470 180 467 c 2,5,-1
 289 323 l 2,6,7
 291 321 291 321 291 314.5 c 128,-1,8
 291 308 291 308 285 302 c 2,9,-1
 114 159 l 2,10,11
 111 156 111 156 104.5 156 c 128,-1,12
 98 156 98 156 92.5 163 c 128,-1,13
 87 170 87 170 87 174 c 128,-1,14
 87 178 87 178 89 180 c 2,15,-1
 207 313 l 1,16,-1
 146 447 l 2,0,1
EndSplineSet
EndChar

StartChar: fraction
Encoding: 8260 8260 211
Width: 608
GlyphClass: 2
Flags: W
LayerCount: 2
Fore
SplineSet
583 739 m 1,0,-1
 668 739 l 1,1,-1
 136 -39 l 1,2,-1
 50 -39 l 1,3,-1
 583 739 l 1,0,-1
EndSplineSet
EndChar

StartChar: Euro
Encoding: 8364 8364 212
Width: 629
GlyphClass: 2
Flags: W
LayerCount: 2
Fore
SplineSet
503 700 m 0,0,1
 577 700 577 700 628.5 659 c 128,-1,2
 680 618 680 618 680 544 c 0,3,4
 680 521 680 521 672 486 c 1,5,-1
 586 486 l 1,6,7
 597 537 597 537 597 560 c 0,8,9
 597 609 597 609 572 637 c 128,-1,10
 547 665 547 665 489.5 665 c 128,-1,11
 432 665 432 665 390.5 622 c 128,-1,12
 349 579 349 579 334 509 c 2,13,-1
 315 420 l 1,14,-1
 573 420 l 1,15,-1
 563 373 l 1,16,-1
 305 373 l 1,17,-1
 295 326 l 1,18,-1
 553 326 l 1,19,-1
 543 279 l 1,20,-1
 285 279 l 1,21,-1
 264 182 l 2,22,23
 258 155 258 155 258 130 c 0,24,25
 258 81 258 81 283 53 c 128,-1,26
 308 25 308 25 365.5 25 c 128,-1,27
 423 25 423 25 464.5 68 c 128,-1,28
 506 111 506 111 521 182 c 1,29,-1
 526 204 l 1,30,-1
 612 204 l 1,31,32
 596 124 596 124 548 75 c 0,33,34
 463 -10 463 -10 352 -10 c 0,35,36
 261 -10 261 -10 211.5 43.5 c 128,-1,37
 162 97 162 97 162 184 c 0,38,39
 162 221 162 221 176 279 c 1,40,-1
 119 279 l 1,41,-1
 129 326 l 1,42,-1
 186 326 l 1,43,-1
 196 373 l 1,44,-1
 139 373 l 1,45,-1
 149 420 l 1,46,-1
 206 420 l 1,47,-1
 209 435 l 1,48,49
 233 549 233 549 313.5 624.5 c 128,-1,50
 394 700 394 700 503 700 c 0,0,1
EndSplineSet
EndChar

StartChar: trademark
Encoding: 8482 8482 213
Width: 666
GlyphClass: 2
Flags: W
LayerCount: 2
Fore
SplineSet
434 629 m 0,0,1
 434 671 434 671 387 682 c 1,2,-1
 319 361 l 1,3,-1
 263 361 l 1,4,-1
 331 682 l 1,5,6
 299 675 299 675 281.5 658 c 128,-1,7
 264 641 264 641 250 589 c 1,8,-1
 197 589 l 1,9,-1
 201 604 l 1,10,11
 221 700 221 700 363 700 c 0,12,13
 487 700 487 700 487 627 c 0,14,15
 487 615 487 615 480 589 c 1,16,-1
 427 589 l 1,17,18
 434 615 434 615 434 629 c 0,0,1
664 389 m 1,19,20
 664 381 664 381 673.5 381 c 128,-1,21
 683 381 683 381 693 397 c 1,22,-1
 702 396 l 1,23,24
 699 382 699 382 684.5 368.5 c 128,-1,25
 670 355 670 355 654 355 c 0,26,27
 621 355 621 355 621 387 c 0,28,29
 621 396 621 396 632.5 450.5 c 128,-1,30
 644 505 644 505 644 515 c 0,31,32
 644 541 644 541 621 541 c 0,33,34
 601 541 601 541 586.5 523.5 c 128,-1,35
 572 506 572 506 567 482 c 2,36,-1
 541 361 l 1,37,-1
 496 361 l 1,38,39
 527 507 527 507 527 515 c 0,40,41
 527 541 527 541 504 541 c 0,42,43
 484 541 484 541 469 523 c 128,-1,44
 454 505 454 505 449 482 c 2,45,-1
 423 361 l 1,46,-1
 379 361 l 1,47,-1
 419 551 l 1,48,-1
 463 551 l 1,49,-1
 457 522 l 1,50,51
 480 556 480 556 515 556 c 0,52,53
 563 556 563 556 567 508 c 1,54,55
 589 556 589 556 632 556 c 0,56,57
 657 556 657 556 671 541 c 128,-1,58
 685 526 685 526 685 507 c 128,-1,59
 685 488 685 488 682 475 c 2,60,-1
 664 389 l 1,19,20
EndSplineSet
EndChar

StartChar: minus
Encoding: 8722 8722 214
Width: 350
GlyphClass: 2
Flags: W
LayerCount: 2
Fore
SplineSet
344 210 m 1,0,-1
 94 210 l 1,1,-1
 105 260 l 1,2,-1
 355 260 l 1,3,-1
 344 210 l 1,0,-1
EndSplineSet
EndChar

StartChar: ff
Encoding: 64256 64256 215
Width: 546
GlyphClass: 2
Flags: W
LayerCount: 2
Fore
SplineSet
607 606 m 0,0,1
 607 665 607 665 570.5 665 c 128,-1,2
 534 665 534 665 516 587 c 1,3,-1
 455 300 l 1,4,-1
 541 300 l 1,5,-1
 535 270 l 1,6,-1
 449 270 l 1,7,-1
 392 0 l 1,8,-1
 307 0 l 1,9,-1
 364 270 l 1,10,-1
 215 270 l 1,11,-1
 158 0 l 1,12,-1
 73 0 l 1,13,-1
 130 270 l 1,14,-1
 97 270 l 1,15,-1
 103 300 l 1,16,-1
 136 300 l 1,17,-1
 191 557 l 2,18,19
 205 624 205 624 239.5 662 c 128,-1,20
 274 700 274 700 317 700 c 0,21,22
 377 700 377 700 385 644 c 1,23,-1
 402 720 l 1,24,-1
 425 720 l 1,25,-1
 381 516 l 1,26,-1
 358 516 l 1,27,28
 372 582 372 582 372 606 c 0,29,30
 372 665 372 665 337 665 c 0,31,32
 315 665 315 665 303 645 c 128,-1,33
 291 625 291 625 282 587 c 2,34,-1
 221 300 l 1,35,-1
 370 300 l 1,36,-1
 425 557 l 2,37,38
 439 624 439 624 473.5 662 c 128,-1,39
 508 700 508 700 552 700 c 0,40,41
 611 700 611 700 620 644 c 1,42,-1
 637 720 l 1,43,-1
 659 720 l 1,44,-1
 615 516 l 1,45,-1
 593 516 l 1,46,47
 607 582 607 582 607 606 c 0,0,1
EndSplineSet
EndChar

StartChar: fi
Encoding: 64257 64257 216
Width: 471
GlyphClass: 2
Flags: W
LayerCount: 2
Fore
SplineSet
423 545 m 1,0,1
 428 568 428 568 428 593 c 128,-1,2
 428 618 428 618 412 641.5 c 128,-1,3
 396 665 396 665 367.5 665 c 128,-1,4
 339 665 339 665 315 644.5 c 128,-1,5
 291 624 291 624 284 591 c 2,6,-1
 221 300 l 1,7,-1
 306 300 l 1,8,-1
 300 270 l 1,9,-1
 215 270 l 1,10,-1
 158 0 l 1,11,-1
 73 0 l 1,12,-1
 130 270 l 1,13,-1
 97 270 l 1,14,-1
 103 300 l 1,15,-1
 136 300 l 1,16,-1
 193 566 l 2,17,18
 207 629 207 629 256 664.5 c 128,-1,19
 305 700 305 700 349.5 700 c 128,-1,20
 394 700 394 700 417 678 c 128,-1,21
 440 656 440 656 441 633 c 1,22,-1
 460 720 l 1,23,-1
 482 720 l 1,24,-1
 445 545 l 1,25,-1
 423 545 l 1,0,1
405 58 m 0,26,27
 405 40 405 40 423.5 40 c 128,-1,28
 442 40 442 40 462 72 c 1,29,-1
 480 69 l 1,30,31
 463 18 463 18 422 -2 c 0,32,33
 405 -10 405 -10 385 -10 c 0,34,35
 320 -10 320 -10 320 53 c 0,36,37
 320 65 320 65 324 89 c 1,38,-1
 405 470 l 1,39,-1
 491 470 l 1,40,41
 405 65 405 65 405 58 c 0,26,27
EndSplineSet
EndChar

StartChar: fl
Encoding: 64258 64258 217
Width: 471
GlyphClass: 2
Flags: W
LayerCount: 2
Fore
SplineSet
405 57 m 0,0,1
 405 40 405 40 424.5 40 c 128,-1,2
 444 40 444 40 462 72 c 1,3,-1
 480 69 l 1,4,5
 463 18 463 18 422 -2 c 0,6,7
 405 -10 405 -10 384 -10 c 0,8,9
 319 -10 319 -10 319 54 c 0,10,11
 319 67 319 67 323 89 c 2,12,-1
 424 560 l 2,13,14
 427 575 427 575 427 589 c 0,15,16
 427 625 427 625 409 646.5 c 128,-1,17
 391 668 391 668 365.5 668 c 128,-1,18
 340 668 340 668 315.5 647 c 128,-1,19
 291 626 291 626 284 594 c 2,20,-1
 221 300 l 1,21,-1
 306 300 l 1,22,-1
 300 270 l 1,23,-1
 215 270 l 1,24,-1
 158 0 l 1,25,-1
 73 0 l 1,26,-1
 130 270 l 1,27,-1
 97 270 l 1,28,-1
 103 300 l 1,29,-1
 136 300 l 1,30,-1
 193 569 l 2,31,32
 207 632 207 632 255 666 c 128,-1,33
 303 700 303 700 348 700 c 128,-1,34
 393 700 393 700 415.5 679 c 128,-1,35
 438 658 438 658 439 635 c 1,36,-1
 451 690 l 1,37,-1
 538 690 l 1,38,-1
 407 74 l 2,39,40
 405 62 405 62 405 57 c 0,0,1
EndSplineSet
EndChar

StartChar: typerepublic
Encoding: 65540 -1 219
Width: 815
GlyphClass: 2
Flags: W
LayerCount: 2
Fore
SplineSet
735 0 m 1,0,-1
 80 0 l 1,1,-1
 80 658 l 1,2,-1
 735 658 l 1,3,-1
 735 0 l 1,0,-1
668 403 m 1,4,-1
 471 409 l 1,5,-1
 404 595 l 1,6,-1
 337 409 l 1,7,-1
 139 403 l 1,8,-1
 295 282 l 1,9,-1
 240 92 l 1,10,-1
 404 203 l 1,11,-1
 567 92 l 1,12,-1
 512 282 l 1,13,-1
 668 403 l 1,4,-1
EndSplineSet
EndChar

StartChar: W.alt1
Encoding: 65541 -1 220
Width: 878
GlyphClass: 2
Flags: W
LayerCount: 2
Fore
SplineSet
658 690 m 1,0,-1
 670 77 l 1,1,-1
 954 690 l 1,2,-1
 1002 690 l 1,3,-1
 685 0 l 1,4,-1
 561 0 l 1,5,-1
 550 528 l 1,6,-1
 306 0 l 1,7,-1
 183 0 l 1,8,-1
 167 690 l 1,9,-1
 279 690 l 1,10,-1
 293 77 l 1,11,-1
 548 631 l 1,12,-1
 546 690 l 1,13,-1
 658 690 l 1,0,-1
EndSplineSet
EndChar

StartChar: w.alt1
Encoding: 65542 -1 221
Width: 579
GlyphClass: 2
Flags: W
LayerCount: 2
Fore
SplineSet
449 0 m 1,0,-1
 362 0 l 1,1,-1
 352 302 l 1,2,-1
 209 0 l 1,3,-1
 121 0 l 1,4,-1
 104 470 l 1,5,-1
 191 470 l 1,6,-1
 206 62 l 1,7,-1
 350 365 l 1,8,-1
 345 470 l 1,9,-1
 432 470 l 1,10,-1
 446 62 l 1,11,-1
 640 470 l 1,12,-1
 673 470 l 1,13,-1
 449 0 l 1,0,-1
EndSplineSet
EndChar
